<svg viewBox="0 0 36 36" xmlns="http://www.w3.org/2000/svg" xmlns:xlink="http://www.w3.org/1999/xlink" width="36" height="36" fill="none" customFrame="#000000">
	<g id="组合 189">
		<rect id="矩形 28" width="36" height="36" x="0" y="0" rx="10" fill="rgb(255,254.745,254.745)" />
		<path id="path" d="M13.5 18.6857L24.1667 18.6857C24.5833 18.6857 25 18.3429 25 17.8286C25 17.4 24.6667 16.9714 24.1667 16.9714L13.9167 16.9714L17.3333 13.4571C17.6667 13.1143 17.6667 12.6 17.3333 12.2571C17 11.9143 16.5 11.9143 16.1667 12.2571L11.25 17.3143C11.0833 17.4857 11 17.7429 11 18C11 18.2571 11 18.5143 11.25 18.6857L16.1667 23.7429C16.5 24.0857 17 24.0857 17.3333 23.7429C17.6667 23.4 17.6667 22.8857 17.3333 22.5429L13.5 18.6857Z" fill="rgb(29,35,69)" fill-rule="nonzero" />
	</g>
</svg>
