<svg viewBox="0 0 37 37" xmlns="http://www.w3.org/2000/svg" xmlns:xlink="http://www.w3.org/1999/xlink" width="37" height="37" fill="none" customFrame="#000000">
	<g id="组合 253">
		<rect id="矩形备份 69" width="37" height="37" x="0" y="0" rx="13" fill="rgb(246,244,252)" />
		<rect id="矩形备份 69" width="36" height="36" x="0.5" y="0.5" rx="13" stroke="rgb(151,151,151)" stroke-opacity="0" stroke-width="1" />
		<circle id="椭圆 28" cx="18.5" cy="18.5" r="10.5" fill="rgb(0,0,0)" />
		<path id="矢量 252" d="M15.6336 17.6901L21.3693 17.6901L21.3671 17.6881C21.4267 17.6881 21.4851 17.6804 21.5423 17.6648C21.5995 17.6493 21.6534 17.6265 21.7038 17.5966C21.7542 17.5667 21.7993 17.5307 21.839 17.4888C21.8787 17.4468 21.9115 17.4005 21.9373 17.3498C21.9631 17.2991 21.9811 17.246 21.991 17.1905C22.001 17.1351 22.0027 17.0794 21.996 17.0234C21.9893 16.9675 21.9746 16.9136 21.9518 16.8616C21.929 16.8096 21.899 16.7616 21.8619 16.7176L20.5969 15.2231C20.5708 15.1925 20.5419 15.1646 20.51 15.1394C20.4782 15.1142 20.444 15.0922 20.4076 15.0733C20.3711 15.0545 20.3331 15.0392 20.2934 15.0275C20.2538 15.0157 20.2133 15.0077 20.172 15.0035C20.1307 14.9993 20.0894 14.9989 20.048 15.0023C20.0066 15.0058 19.966 15.0131 19.9261 15.0241C19.8863 15.0351 19.8479 15.0497 19.8111 15.0679C19.7743 15.0861 19.7397 15.1075 19.7073 15.1321C19.6749 15.1567 19.6454 15.1841 19.6187 15.2142C19.5921 15.2443 19.5688 15.2765 19.5488 15.311C19.5289 15.3454 19.5127 15.3814 19.5003 15.4188C19.4878 15.4563 19.4794 15.4945 19.4749 15.5336C19.4704 15.5726 19.47 15.6117 19.4737 15.6508C19.4774 15.6899 19.4851 15.7283 19.4967 15.7659C19.5084 15.8036 19.5239 15.8399 19.5431 15.8747C19.5623 15.9095 19.585 15.9421 19.611 15.9727L20.0531 16.4948L15.6336 16.4948C15.5921 16.4948 15.5509 16.4986 15.5102 16.5063C15.4695 16.5139 15.4299 16.5252 15.3916 16.5403C15.3532 16.5553 15.3167 16.5737 15.2822 16.5955C15.2477 16.6173 15.2157 16.6421 15.1864 16.6698C15.157 16.6976 15.1308 16.7278 15.1077 16.7604C15.0846 16.793 15.0651 16.8275 15.0492 16.8637C15.0334 16.9 15.0214 16.9374 15.0133 16.9758C15.0052 17.0143 15.0011 17.0532 15.0011 17.0925C15.0011 17.1317 15.0052 17.1706 15.0133 17.2091C15.0214 17.2475 15.0334 17.2849 15.0492 17.3212C15.0651 17.3574 15.0846 17.3919 15.1077 17.4245C15.1308 17.4571 15.157 17.4873 15.1864 17.5151C15.2157 17.5428 15.2477 17.5676 15.2822 17.5894C15.3167 17.6112 15.3532 17.6296 15.3916 17.6446C15.4299 17.6597 15.4695 17.671 15.5102 17.6786C15.5509 17.6863 15.5921 17.6901 15.6336 17.6901ZM16.8979 22C16.8016 22.0001 16.7101 21.9804 16.6233 21.9409C16.5366 21.9015 16.4632 21.8462 16.4031 21.7751L15.1381 20.2806C15.101 20.2366 15.0711 20.1887 15.0483 20.1367C15.0255 20.0848 15.0107 20.0309 15.0041 19.9751C14.9974 19.9192 14.999 19.8636 15.0089 19.8081C15.0188 19.7527 15.0366 19.6997 15.0624 19.649C15.0881 19.5983 15.1208 19.552 15.1604 19.51C15.2 19.4681 15.245 19.4321 15.2953 19.4021C15.3456 19.3722 15.3993 19.3493 15.4565 19.3337C15.5136 19.3181 15.5719 19.3102 15.6314 19.3101L21.3671 19.3101C21.4087 19.3101 21.4498 19.3139 21.4905 19.3216C21.5312 19.3292 21.5708 19.3406 21.6092 19.3556C21.6475 19.3706 21.684 19.389 21.7185 19.4108C21.753 19.4326 21.785 19.4574 21.8144 19.4851C21.8437 19.5129 21.87 19.5431 21.893 19.5757C21.9161 19.6083 21.9356 19.6428 21.9515 19.679C21.9674 19.7153 21.9794 19.7527 21.9875 19.7912C21.9956 19.8297 21.9996 19.8685 21.9996 19.9078C21.9996 19.947 21.9956 19.9859 21.9875 20.0244C21.9794 20.0629 21.9674 20.1002 21.9515 20.1365C21.9356 20.1727 21.9161 20.2072 21.893 20.2398C21.87 20.2725 21.8437 20.3026 21.8144 20.3304C21.785 20.3581 21.753 20.3829 21.7185 20.4047C21.684 20.4265 21.6475 20.4449 21.6092 20.46C21.5708 20.475 21.5313 20.4863 21.4905 20.494C21.4498 20.5016 21.4087 20.5055 21.3671 20.5055L16.9491 20.5055L17.3912 21.0275C17.4284 21.0714 17.4584 21.1194 17.4813 21.1713C17.5042 21.2233 17.519 21.2772 17.5258 21.3331C17.5325 21.389 17.5309 21.4448 17.5211 21.5002C17.5112 21.5557 17.4933 21.6089 17.4676 21.6596C17.4418 21.7103 17.4091 21.7567 17.3694 21.7987C17.3298 21.8407 17.2848 21.8767 17.2344 21.9067C17.184 21.9367 17.1302 21.9595 17.073 21.9751C17.0158 21.9908 16.9574 21.9986 16.8979 21.9986L16.8979 22Z" fill="rgb(255,255,255)" fill-rule="evenodd" />
	</g>
</svg>
