<svg viewBox="0 0 153 116" xmlns="http://www.w3.org/2000/svg" xmlns:xlink="http://www.w3.org/1999/xlink" width="153" height="116" fill="none" customFrame="#000000">
	<mask id="mask_1" width="137" height="100" x="8" y="4" maskUnits="userSpaceOnUse" mask-type="outline">
		<g filter="url(#pixso_custom_mask_type_outline)">
			<path id="矩形备份 9" d="M23 4L130 4C138.284 4 145 10.7157 145 19L145 89C145 97.2843 138.284 104 130 104L23 104C14.7157 104 8 97.2843 8 89L8 19C8 10.7157 14.7157 4 23 4Z" fill="rgb(9,9,10)" fill-rule="evenodd" />
			<path id="矩形备份 9" d="M130 4L23 4C14.7157 4 8 10.7157 8 19L8 89C8 97.2843 14.7157 104 23 104L130 104C138.284 104 145 97.2843 145 89L145 19C145 10.7157 138.284 4 130 4ZM23 5L130 5C131.059 5 132.092 5.11392 133.099 5.34177C133.899 5.52265 134.682 5.77532 135.449 6.09978C135.799 6.24777 136.142 6.40947 136.477 6.58489C136.941 6.82722 137.391 7.09572 137.827 7.39039C138.166 7.6193 138.493 7.86201 138.81 8.11854C139.189 8.42602 139.552 8.75334 139.899 9.1005C140.246 9.44678 140.572 9.80906 140.879 10.1873C141.137 10.5047 141.38 10.8333 141.61 11.1732C141.905 11.6108 142.175 12.0622 142.418 12.5274C142.592 12.8615 142.753 13.2026 142.9 13.5509C143.225 14.3177 143.477 15.1007 143.658 15.9C143.886 16.9075 144 17.9409 144 19L144 89C144 90.0592 143.886 91.0926 143.658 92.1001C143.477 92.8994 143.225 93.6824 142.9 94.4491C142.753 94.7972 142.592 95.1383 142.418 95.4722C142.175 95.9375 141.905 96.3891 141.61 96.8268C141.38 97.1664 141.137 97.4948 140.88 97.8119C140.573 98.1904 140.246 98.553 139.899 98.8995C139.552 99.2469 139.189 99.5744 138.809 99.8821C138.493 100.138 138.165 100.381 137.827 100.61C137.39 100.905 136.94 101.174 136.475 101.416C136.14 101.591 135.798 101.753 135.449 101.9C134.682 102.225 133.898 102.478 133.098 102.658C132.091 102.886 131.059 103 130 103L23 103C21.9413 103 20.9083 102.886 19.9011 102.658C19.1014 102.477 18.318 102.225 17.5509 101.9C17.2016 101.752 16.8594 101.591 16.5244 101.416C16.0603 101.173 15.6099 100.905 15.1732 100.61C14.8327 100.38 14.5036 100.136 14.1857 99.8778C13.808 99.5714 13.4463 99.2453 13.1005 98.8995C12.7547 98.5537 12.4285 98.1919 12.1221 97.8141C11.8642 97.4963 11.6204 97.1672 11.3904 96.8268C11.0961 96.3912 10.8279 95.9419 10.5858 95.479C10.41 95.1429 10.248 94.7996 10.0998 94.4491C9.77532 93.682 9.52265 92.8987 9.34177 92.0991C9.11393 91.0918 9 90.0588 9 89L9 19C9 17.9412 9.11393 16.9081 9.3418 15.9008C9.52267 15.1013 9.77533 14.318 10.0998 13.5509C10.2479 13.2006 10.4098 12.8575 10.5854 12.5217C10.8276 12.0585 11.0959 11.609 11.3904 11.1732C11.6206 10.8323 11.8649 10.5029 12.123 10.1847C12.4292 9.80736 12.755 9.44596 13.1005 9.1005C13.446 8.75505 13.8073 8.42924 14.1847 8.12306C14.5028 7.86487 14.8323 7.62065 15.1732 7.39039C15.609 7.09594 16.0585 6.82762 16.5217 6.58543C16.8576 6.40981 17.2006 6.24792 17.5509 6.09978C18.3179 5.77534 19.1012 5.52268 19.9008 5.34181C20.9081 5.11394 21.9412 5 23 5Z" fill="rgb(151,151,151)" fill-opacity="0" fill-rule="evenodd" />
		</g>
	</mask>
	<defs>
		<g id="pixso_custom_effect_1">
			<effect x="0" y="4" visibility="visible" fill="rgb(0,0,0)" fill-opacity="0.25" effectType="dropShadow" stdDeviation="8" radius="0" />
		</g>
		<filter id="filter_1" width="153" height="116" x="0" y="0" filterUnits="userSpaceOnUse" customEffect="url(#pixso_custom_effect_1)" color-interpolation-filters="sRGB">
			<feFlood flood-opacity="0" result="BackgroundImageFix" />
			<feColorMatrix result="hardAlpha" in="SourceAlpha" type="matrix" values="0 0 0 0 0 0 0 0 0 0 0 0 0 0 0 0 0 0 127 0 " />
			<feOffset dx="0" dy="4" />
			<feGaussianBlur stdDeviation="2.66666675" />
			<feComposite k2="-1" k3="1" in2="hardAlpha" operator="out" />
			<feColorMatrix type="matrix" values="0 0 0 0 0 0 0 0 0 0 0 0 0 0 0 0 0 0 0.25 0 " />
			<feBlend result="effect_dropShadow_1" in2="BackgroundImageFix" mode="normal" />
			<feBlend result="shape" in="SourceGraphic" in2="effect_dropShadow_1" mode="normal" />
		</filter>
		<filter id="pixso_custom_mask_type_outline">
			<feColorMatrix type="matrix" values="0 0 0 0 1 0 0 0 0 1 0 0 0 0 1 0 0 0 255 0 " />
		</filter>
	</defs>
	<g id="组合 3266" filter="url(#filter_1)">
		<g id="组合 3268" mask="url(#mask_1)">
			<path id="矩形备份 10" d="M21 1L130 1C138.284 1 145 7.71573 145 16L145 109C145 117.284 138.284 124 130 124L21 124C12.7157 124 6 117.284 6 109L6 16C6 7.71573 12.7157 1 21 1Z" fill="rgb(9,9,10)" fill-rule="evenodd" />
			<path id="矩形备份 10" d="M130 1L21 1C12.7157 1 6 7.71573 6 16L6 109C6 117.284 12.7157 124 21 124L130 124C138.284 124 145 117.284 145 109L145 16C145 7.71573 138.284 1 130 1ZM21 2L130 2C131.059 2 132.092 2.11392 133.099 2.34177C133.899 2.52265 134.682 2.77532 135.449 3.09978C135.799 3.24777 136.142 3.40947 136.477 3.58489C136.941 3.82722 137.391 4.09572 137.827 4.39039C138.166 4.6193 138.493 4.86201 138.81 5.11854C139.189 5.42602 139.552 5.75334 139.899 6.1005C140.246 6.44678 140.572 6.80906 140.879 7.18734C141.137 7.50468 141.38 7.83329 141.61 8.17316C141.905 8.61061 142.174 9.0618 142.417 9.52674C142.592 9.86101 142.753 10.2024 142.9 10.5509C143.225 11.3177 143.477 12.1007 143.658 12.9C143.886 13.9075 144 14.9409 144 16L144 109C144 110.059 143.886 111.092 143.658 112.1C143.477 112.899 143.225 113.682 142.9 114.449C142.753 114.797 142.592 115.138 142.418 115.472C142.175 115.938 141.905 116.389 141.61 116.827C141.38 117.166 141.137 117.495 140.88 117.812C140.573 118.19 140.246 118.553 139.899 118.899C139.552 119.247 139.188 119.575 138.808 119.883C138.492 120.139 138.165 120.381 137.827 120.61C137.39 120.905 136.939 121.174 136.474 121.417C136.139 121.592 135.798 121.753 135.449 121.9C134.682 122.225 133.898 122.477 133.099 122.658C132.092 122.886 131.059 123 130 123L21 123C19.9413 123 18.9084 122.886 17.9013 122.658C17.1016 122.477 16.3181 122.225 15.5509 121.9C15.2017 121.753 14.8597 121.591 14.5248 121.416C14.0605 121.174 13.61 120.905 13.1732 120.61C12.8327 120.38 12.5036 120.136 12.1857 119.878C11.808 119.571 11.4463 119.245 11.1005 118.899C10.7547 118.554 10.4285 118.192 10.1221 117.814C9.86425 117.496 9.62035 117.167 9.39039 116.827C9.09581 116.391 8.82738 115.941 8.58511 115.478C8.40961 115.142 8.24783 114.799 8.09978 114.449C7.77532 113.682 7.52265 112.899 7.34177 112.099C7.11393 111.092 7 110.059 7 109L7 16C7 14.9412 7.11393 13.9081 7.3418 12.9008C7.52267 12.1013 7.77533 11.318 8.09978 10.5509C8.24793 10.2006 8.40982 9.85754 8.58545 9.52166C8.82763 9.0585 9.09594 8.609 9.39039 8.17316C9.62064 7.83234 9.86486 7.50285 10.123 7.18469C10.4292 6.80736 10.755 6.44597 11.1005 6.1005C11.446 5.75505 11.8073 5.42924 12.1847 5.12306C12.5028 4.86487 12.8323 4.62065 13.1732 4.39039C13.609 4.09594 14.0585 3.82762 14.5217 3.58544C14.8576 3.40981 15.2006 3.24792 15.5509 3.09978C16.3179 2.77534 17.1012 2.52268 17.9008 2.34181C18.9081 2.11394 19.9412 2 21 2Z" fill="rgb(151,151,151)" fill-opacity="0" fill-rule="evenodd" />
			<g id="泡泡" opacity="0.310000002">
				<ellipse id="椭圆 21" rx="3.75" ry="3.76859522" cx="103.375" cy="66.7934952" opacity="0.119999997" fill="rgb(255,215,51)" />
				<ellipse id="椭圆 90" rx="3.75" ry="3.76859522" cx="151.5" cy="98.82621" fill="rgb(255,215,51)" />
				<ellipse id="椭圆 24" rx="3.75" ry="3.76859522" cx="98.375" cy="94.4297256" opacity="0.519999981" fill="rgb(255,215,51)" />
				<ellipse id="椭圆 97" rx="3.75" ry="3.76859522" cx="133.375" cy="130.231491" fill="rgb(255,215,51)" />
				<ellipse id="椭圆 22" rx="3.4375" ry="3.45454526" cx="112.4375" cy="62.7108917" opacity="0.689999998" fill="rgb(255,215,51)" />
				<ellipse id="椭圆 23" rx="2.5" ry="2.51239657" cx="122.75" cy="62.3966751" opacity="0.589999974" fill="rgb(255,215,51)" />
				<ellipse id="椭圆 27" rx="2.5" ry="2.51239657" cx="94.625" cy="76.2150345" opacity="0.280000001" fill="rgb(255,215,51)" />
				<ellipse id="椭圆 74" rx="2.5" ry="2.51239657" cx="127.125" cy="122.694038" fill="rgb(255,215,51)" />
				<ellipse id="椭圆 47" rx="2.5" ry="2.51239657" cx="135.25" cy="78.7272415" fill="rgb(255,215,51)" />
				<ellipse id="椭圆 94" rx="2.5" ry="2.51239657" cx="159.625" cy="117.669624" fill="rgb(255,215,51)" />
				<ellipse id="椭圆 71" rx="2.5" ry="2.51239657" cx="134.625" cy="106.99189" fill="rgb(255,215,51)" />
				<ellipse id="椭圆 45" rx="2.5" ry="2.51239657" cx="117.125" cy="85.0084915" fill="rgb(255,215,51)" />
				<ellipse id="椭圆 61" rx="2.5" ry="2.51239657" cx="130.875" cy="100.08271" fill="rgb(255,215,51)" />
				<ellipse id="椭圆 96" rx="2.5" ry="2.51239657" cx="149" cy="120.181831" fill="rgb(255,215,51)" />
				<ellipse id="椭圆 38" rx="2.8125" ry="2.82644606" cx="91.8125" cy="123.008087" fill="rgb(255,215,51)" />
				<ellipse id="椭圆 39" rx="2.8125" ry="2.82644606" cx="99.3125" cy="104.793243" opacity="0.449999988" fill="rgb(255,215,51)" />
				<ellipse id="椭圆 84" rx="2.8125" ry="2.82644606" cx="120.5625" cy="129.289337" fill="rgb(255,215,51)" />
				<ellipse id="椭圆 37" rx="2.5" ry="2.51239657" cx="87.125" cy="110.760445" fill="rgb(255,215,51)" />
				<ellipse id="椭圆 31" rx="2.5" ry="2.51239657" cx="130.25" cy="68.6774368" fill="rgb(255,215,51)" />
				<ellipse id="椭圆 88" rx="2.5" ry="2.51239657" cx="151.5" cy="82.4957962" fill="rgb(255,215,51)" />
				<ellipse id="椭圆 26" rx="1.25" ry="1.25619829" cx="130.25" cy="59.2561989" fill="rgb(255,215,51)" />
				<ellipse id="椭圆 29" rx="1.25" ry="1.25619829" cx="113.375" cy="71.8182068" fill="rgb(255,215,51)" />
				<ellipse id="椭圆 33" rx="0.9375" ry="0.942148805" cx="110.5625" cy="77.1569901" fill="rgb(255,215,51)" />
				<ellipse id="椭圆 89" rx="0.9375" ry="0.942148805" cx="153.0625" cy="91.6032791" fill="rgb(255,215,51)" />
				<ellipse id="椭圆 52" rx="0.9375" ry="0.942148805" cx="113.0625" cy="99.7683182" fill="rgb(255,215,51)" />
				<ellipse id="椭圆 62" rx="0.9375" ry="0.942148805" cx="124.9375" cy="99.1403885" fill="rgb(255,215,51)" />
				<ellipse id="椭圆 82" rx="0.9375" ry="0.942148805" cx="141.1875" cy="117.355232" fill="rgb(255,215,51)" />
				<ellipse id="椭圆 100" rx="0.9375" ry="0.942148805" cx="149.9375" cy="129.289322" fill="rgb(255,215,51)" />
				<ellipse id="椭圆 68" rx="0.9375" ry="0.942148805" cx="120.5625" cy="112.330818" fill="rgb(255,215,51)" />
				<ellipse id="椭圆 48" rx="0.9375" ry="0.942148805" cx="91.8125" cy="102.281013" fill="rgb(255,215,51)" />
				<ellipse id="椭圆 64" rx="0.9375" ry="0.942148805" cx="114.9375" cy="111.074471" fill="rgb(255,215,51)" />
				<ellipse id="椭圆 76" rx="0.9375" ry="0.942148805" cx="109.3125" cy="124.892342" fill="rgb(255,215,51)" />
				<ellipse id="椭圆 75" rx="0.9375" ry="0.942148805" cx="118.6875" cy="123.008064" fill="rgb(255,215,51)" />
				<ellipse id="椭圆 49" rx="0.9375" ry="0.942148805" cx="94.9375" cy="114.214607" fill="rgb(255,215,51)" />
				<ellipse id="椭圆 77" rx="0.9375" ry="0.942148805" cx="101.1875" cy="124.892342" fill="rgb(255,215,51)" />
				<ellipse id="椭圆 43" rx="0.9375" ry="0.942148805" cx="116.8125" cy="78.4133377" opacity="0.569999993" fill="rgb(255,215,51)" />
				<ellipse id="椭圆 83" rx="0.9375" ry="0.942148805" cx="141.8125" cy="124.264412" fill="rgb(255,215,51)" />
				<ellipse id="椭圆 79" rx="0.9375" ry="0.942148805" cx="141.1875" cy="109.818123" fill="rgb(255,215,51)" />
				<ellipse id="椭圆 60" rx="0.9375" ry="0.942148805" cx="134.3125" cy="92.8596268" fill="rgb(255,215,51)" />
				<ellipse id="椭圆 58" rx="0.9375" ry="0.942148805" cx="142.4375" cy="82.1818924" fill="rgb(255,215,51)" />
				<ellipse id="椭圆 57" rx="0.9375" ry="0.942148805" cx="139.3125" cy="86.5783768" fill="rgb(255,215,51)" />
				<ellipse id="椭圆 72" rx="0.9375" ry="0.942148805" cx="141.8125" cy="91.6032791" fill="rgb(255,215,51)" />
				<ellipse id="椭圆 98" rx="0.9375" ry="0.942148805" cx="158.0625" cy="75.2727127" fill="rgb(255,215,51)" />
				<ellipse id="椭圆 55" rx="0.9375" ry="0.942148805" cx="127.4375" cy="87.2067947" fill="rgb(255,215,51)" />
				<ellipse id="椭圆 41" rx="0.9375" ry="0.942148805" cx="138.0625" cy="69.6198807" fill="rgb(255,215,51)" />
				<ellipse id="椭圆 99" rx="0.9375" ry="0.942148805" cx="151.1875" cy="65.851326" fill="rgb(255,215,51)" />
				<ellipse id="椭圆 95" rx="0.9375" ry="0.942148805" cx="144.3125" cy="75.2727127" fill="rgb(255,215,51)" />
				<ellipse id="椭圆 30" rx="1.25" ry="1.25619829" cx="121.5" cy="71.8182068" fill="rgb(255,215,51)" />
				<ellipse id="椭圆 53" rx="1.25" ry="1.25619829" cx="117.75" cy="97.5701599" opacity="0.340000004" fill="rgb(255,215,51)" />
				<ellipse id="椭圆 69" rx="1.25" ry="1.25619829" cx="125.875" cy="106.991547" fill="rgb(255,215,51)" />
				<ellipse id="椭圆 63" rx="1.25" ry="1.25619829" cx="117.75" cy="103.85141" fill="rgb(255,215,51)" />
				<ellipse id="椭圆 85" rx="1.25" ry="1.25619829" cx="110.875" cy="130.231293" fill="rgb(255,215,51)" />
				<ellipse id="椭圆 40" rx="1.25" ry="1.25619829" cx="129.625" cy="74.9588318" fill="rgb(255,215,51)" />
				<ellipse id="椭圆 59" rx="1.25" ry="1.25619829" cx="127.75" cy="92.5452576" fill="rgb(255,215,51)" />
				<ellipse id="椭圆 56" rx="1.25" ry="1.25619829" cx="132.75" cy="86.2644958" opacity="0.439999998" fill="rgb(255,215,51)" />
				<ellipse id="椭圆 73" rx="1.25" ry="1.25619829" cx="137.75" cy="96.3138123" fill="rgb(255,215,51)" />
				<ellipse id="椭圆 32" rx="1.25" ry="1.25619829" cx="139" cy="61.7684059" opacity="0.540000021" fill="rgb(255,215,51)" />
				<ellipse id="椭圆 25" rx="2.5" ry="2.51239657" cx="87.75" cy="86.8922806" opacity="0.469999999" fill="rgb(255,215,51)" />
				<ellipse id="椭圆 28" rx="1.875" ry="1.88429761" cx="103.375" cy="74.958519" opacity="0.189999998" fill="rgb(255,215,51)" />
				<ellipse id="椭圆 87" rx="1.875" ry="1.88429761" cx="147.125" cy="70.5620346" fill="rgb(255,215,51)" />
				<ellipse id="椭圆 42" rx="1.875" ry="1.88429761" cx="109.625" cy="83.1240463" fill="rgb(255,215,51)" />
				<ellipse id="椭圆 92" rx="1.875" ry="1.88429761" cx="162.125" cy="105.735374" fill="rgb(255,215,51)" />
				<ellipse id="椭圆 80" rx="1.875" ry="1.88429761" cx="136.5" cy="114.528831" fill="rgb(255,215,51)" />
				<ellipse id="椭圆 51" rx="1.875" ry="1.88429761" cx="109.625" cy="105.107445" fill="rgb(255,215,51)" />
				<ellipse id="椭圆 65" rx="1.875" ry="1.88429761" cx="107.75" cy="112.644554" fill="rgb(255,215,51)" />
				<ellipse id="椭圆 86" rx="1.875" ry="1.88429761" cx="102.75" cy="130.85939" fill="rgb(255,215,51)" />
				<ellipse id="椭圆 34" rx="1.875" ry="1.88429761" cx="102.125" cy="85.0083237" opacity="0.629999995" fill="rgb(255,215,51)" />
				<ellipse id="椭圆 81" rx="1.875" ry="1.88429761" cx="135.875" cy="122.694359" fill="rgb(255,215,51)" />
				<ellipse id="椭圆 54" rx="1.875" ry="1.88429761" cx="120.875" cy="91.2890854" fill="rgb(255,215,51)" />
				<ellipse id="椭圆 93" rx="1.875" ry="1.88429761" cx="151.5" cy="112.644554" fill="rgb(255,215,51)" />
				<ellipse id="椭圆 91" rx="1.875" ry="1.88429761" cx="160.875" cy="90.033226" fill="rgb(255,215,51)" />
				<ellipse id="椭圆 78" rx="1.875" ry="1.88429761" cx="129" cy="113.272972" fill="rgb(255,215,51)" />
				<ellipse id="椭圆 70" rx="1.875" ry="1.88429761" cx="140.875" cy="101.96682" fill="rgb(255,215,51)" />
				<ellipse id="椭圆 35" rx="1.875" ry="1.88429761" cx="94.625" cy="85.6362534" fill="rgb(255,215,51)" />
				<ellipse id="椭圆 50" rx="1.875" ry="1.88429761" cx="105.875" cy="100.082542" fill="rgb(255,215,51)" />
				<ellipse id="椭圆 66" rx="2.1875" ry="2.19834709" cx="102.4375" cy="116.727158" fill="rgb(255,215,51)" />
				<ellipse id="椭圆 46" rx="1.875" ry="1.88429761" cx="109.625" cy="91.9175034" fill="rgb(255,215,51)" />
				<ellipse id="椭圆 67" rx="1.875" ry="1.88429761" cx="114" cy="117.669456" fill="rgb(255,215,51)" />
				<ellipse id="椭圆 44" rx="1.875" ry="1.88429761" cx="124.625" cy="79.9834213" fill="rgb(255,215,51)" />
				<ellipse id="椭圆 36" rx="1.875" ry="1.88429761" cx="85.875" cy="99.4546127" fill="rgb(255,215,51)" />
			</g>
		</g>
	</g>
</svg>
