<svg viewBox="0 0 312 142" xmlns="http://www.w3.org/2000/svg" xmlns:xlink="http://www.w3.org/1999/xlink" width="312" height="142" fill="none" customFrame="#000000">
	<mask id="mask_1" width="288" height="207.989136" x="10" y="-34" maskUnits="userSpaceOnUse" mask-type="alpha">
		<g filter="url(#pixso_custom_mask_type_alpha)">
			<path id="Union" d="M123.655 27.6134C124.996 10.4163 118.647 -7.22867 104.608 -19.7682C83.0582 -38.9359 49.9729 -38.7568 28.6016 -19.1413C4.45823 2.89256 3.83229 40.4217 26.6343 63.2617C38.9742 75.5325 55.4275 81.0858 71.523 79.7422C73.4008 79.6527 75.3681 79.384 77.2459 79.0257C78.6766 78.5779 80.0179 78.2196 81.4486 78.0404C90.48 76.6969 100.048 79.4735 107.023 86.4599C109.884 89.3261 112.03 92.5505 113.461 96.0437C114.623 98.6412 115.16 101.418 115.428 104.284C115.518 105.09 115.607 105.896 115.786 106.702C116.412 110.016 117.574 113.241 119.363 116.286C120.614 118.346 122.224 120.406 124.012 122.198C135.816 134.11 155.13 133.842 166.755 121.571C177.217 110.464 177.485 92.8192 167.381 81.444C165.235 78.9361 162.731 76.9656 160.138 75.443C157.098 73.6516 153.879 72.4872 150.57 71.8602C149.765 71.6811 148.96 71.5915 148.156 71.502C145.384 71.1437 142.522 70.6063 139.929 69.5314C136.442 68.0984 133.223 65.9487 130.361 63.0825C123.744 56.544 120.883 47.4976 121.777 38.8991C121.837 38.3019 121.976 37.7048 122.115 37.1076C122.184 36.8092 122.254 36.5105 122.313 36.212C122.582 35.2268 122.761 34.3311 122.939 33.3458C123.208 31.4649 123.476 29.4944 123.655 27.6134ZM225.622 54.2177C211.781 54.2177 200.561 42.9789 200.561 29.1151C200.561 15.2513 211.781 4.01251 225.622 4.01252C239.463 4.01252 250.683 15.2513 250.683 29.1151C250.683 42.9789 239.463 54.2177 225.622 54.2177ZM203.392 159.757C189.353 147.218 183.004 129.573 184.345 112.376C184.524 110.495 184.792 108.524 185.061 106.643C185.24 105.658 185.418 104.762 185.687 103.777C185.746 103.479 185.816 103.18 185.885 102.881C186.024 102.284 186.164 101.687 186.223 101.09C187.117 92.4915 184.256 83.4451 177.639 76.9066C174.777 74.0404 171.558 71.8908 168.071 70.4577C165.478 69.3829 162.616 68.8454 159.844 68.4872C159.04 68.3976 158.235 68.308 157.43 68.1289C154.121 67.5019 150.902 66.3375 147.862 64.5462C145.269 63.0235 142.765 61.053 140.619 58.5451C130.515 47.1699 130.783 29.5249 141.245 18.4184C152.87 6.14755 172.184 5.87885 183.988 17.7915C185.776 19.5828 187.386 21.6429 188.637 23.703C190.426 26.7483 191.588 29.9727 192.214 33.2868C192.393 34.0929 192.482 34.899 192.572 35.7051C192.84 38.5713 193.377 41.3479 194.539 43.9454C195.97 47.4386 198.116 50.663 200.977 53.5292C207.952 60.5156 217.52 63.2922 226.551 61.9487C227.982 61.7695 229.323 61.4113 230.754 60.9634C232.632 60.6052 234.599 60.3364 236.477 60.2469C252.573 58.9034 269.026 64.4566 281.366 76.7275C304.168 99.5674 303.542 137.097 279.398 159.13C258.027 178.746 224.942 178.925 203.392 159.757ZM85.2808 136.698C71.44 136.698 60.2199 125.459 60.2199 111.595C60.2199 97.7313 71.44 86.4925 85.2808 86.4925C99.1216 86.4925 110.342 97.7313 110.342 111.595C110.342 125.459 99.1216 136.698 85.2808 136.698Z" fill="url(#paint_linear_0)" fill-rule="evenodd" />
		</g>
	</mask>
	<defs>
		<filter id="pixso_custom_mask_type_outline">
			<feColorMatrix type="matrix" values="0 0 0 0 1 0 0 0 0 1 0 0 0 0 1 0 0 0 255 0 " />
		</filter>
		<linearGradient id="paint_linear_0" x1="58.8277283" x2="256.093872" y1="220.7901" y2="12.7963524" gradientUnits="userSpaceOnUse">
			<stop stop-color="rgb(0,0,0)" offset="0.243977264" stop-opacity="0" />
			<stop stop-color="rgb(0,0,0)" offset="1" stop-opacity="1" />
		</linearGradient>
		<filter id="pixso_custom_mask_type_alpha">
			<feColorMatrix type="matrix" values="0 0 0 0 1 0 0 0 0 1 0 0 0 0 1 0 0 0 1 0 " />
		</filter>
	</defs>
	<mask id="mask_0" width="312" height="142" x="0" y="0" maskUnits="userSpaceOnUse" mask-type="outline">
		<g filter="url(#pixso_custom_mask_type_outline)">
			<rect id="蒙版" width="312" height="142" x="0" y="0" rx="20" fill="rgb(0,0,0)" />
			<rect id="蒙版" width="311" height="141" x="0.5" y="0.5" rx="20" stroke="rgb(151,151,151)" stroke-opacity="0" stroke-width="1" />
			<rect id="蒙版" width="311" height="141" x="0.5" y="0.5" rx="20" stroke="rgb(0,0,0)" stroke-opacity="0.200000003" stroke-width="1" />
		</g>
	</mask>
	<g id="底纹路" mask="url(#mask_0)">
		<g id="Group 202" opacity="0.479999989" mask="url(#mask_1)">
			<g id="Group 201">
				<path id="Union" d="M146.376 113.655C163.573 114.996 181.218 108.647 193.757 94.6083C212.925 73.0582 212.746 39.9729 193.13 18.6016C171.097 -5.54177 133.567 -6.16771 110.727 16.6343C98.4566 28.9742 92.9034 45.4275 94.2469 61.523C94.3365 63.4008 94.6052 65.3681 94.9634 67.2459C95.4113 68.6766 95.7696 70.0179 95.9487 71.4486C97.2922 80.48 94.5156 90.0479 87.5293 97.0226C84.6631 99.8841 81.4386 102.03 77.9454 103.461C75.3479 104.623 72.5713 105.16 69.7051 105.428C68.899 105.518 68.0929 105.607 67.2868 105.786C63.9727 106.412 60.7483 107.574 57.703 109.363C55.6429 110.614 53.5828 112.224 51.7915 114.012C39.8789 125.816 40.1476 145.13 52.4184 156.755C63.5249 167.217 81.1699 167.485 92.5451 157.381C95.053 155.235 97.0235 152.731 98.5462 150.138C100.338 147.098 101.502 143.879 102.129 140.57C102.308 139.765 102.398 138.96 102.487 138.156C102.845 135.384 103.383 132.522 104.458 129.929C105.891 126.442 108.04 123.223 110.907 120.361C117.445 113.744 126.492 110.883 135.09 111.777C135.986 111.866 136.881 112.135 137.777 112.313C138.762 112.582 139.658 112.76 140.643 112.939C142.524 113.208 144.495 113.476 146.376 113.655ZM63.1151 47.3172C76.9789 47.3172 88.2177 58.5373 88.2177 72.3781C88.2177 86.2189 76.9789 97.439 63.1151 97.439C49.2513 97.439 38.0125 86.2189 38.0125 72.3781C38.0125 58.5373 49.2513 47.3172 63.1151 47.3172ZM14.2318 193.392C26.7713 179.353 44.4163 173.004 61.6134 174.345C63.4944 174.524 65.4649 174.792 67.3458 175.061C68.3311 175.24 69.2268 175.418 70.212 175.687C71.1077 175.865 72.0034 176.134 72.8991 176.223C81.4976 177.117 90.544 174.256 97.0825 167.639C99.9487 164.777 102.098 161.558 103.531 158.071C104.606 155.478 105.144 152.616 105.502 149.844C105.592 149.04 105.681 148.235 105.86 147.43C106.487 144.121 107.652 140.902 109.443 137.862C110.966 135.269 112.936 132.765 115.444 130.619C126.819 120.515 144.464 120.783 155.571 131.245C167.842 142.87 168.11 162.184 156.198 173.988C154.406 175.776 152.346 177.386 150.286 178.637C147.241 180.426 144.016 181.588 140.702 182.214C139.896 182.393 139.09 182.483 138.284 182.572C135.418 182.84 132.641 183.377 130.044 184.539C126.551 185.97 123.326 188.116 120.46 190.977C113.474 197.952 110.697 207.52 112.04 216.551C112.22 217.982 112.578 219.323 113.026 220.754C113.384 222.632 113.653 224.599 113.742 226.477C115.086 242.573 109.533 259.026 97.2617 271.366C74.4217 294.168 36.8926 293.542 14.8587 269.398C-4.75675 248.027 -4.93589 214.942 14.2318 193.392ZM170.698 212.719C170.698 198.878 159.459 187.658 145.595 187.658C131.731 187.658 120.492 198.878 120.492 212.719C120.492 226.56 131.731 237.78 145.595 237.78C159.459 237.78 170.698 226.56 170.698 212.719Z" fill="rgb(60,47,92)" fill-rule="evenodd" transform="matrix(-4.36388e-08,1,-1,-4.37841e-08,298,-34)" />
			</g>
		</g>
	</g>
</svg>
