<svg viewBox="0 0 22 22" xmlns="http://www.w3.org/2000/svg" xmlns:xlink="http://www.w3.org/1999/xlink" width="22" height="22" fill="none" customFrame="#000000">
	<g id="组合 219">
		<g id="组合 218">
			<path id="path" d="M0 0L22 0L22 22L0 22L0 0Z" opacity="0.00999999978" fill="rgb(32,36,37)" fill-rule="nonzero" />
			<path id="path" d="M2.19995 3.66673C2.19995 3.57066 2.20466 3.47482 2.21408 3.37922C2.22349 3.28361 2.23757 3.18869 2.25631 3.09447C2.27506 3.00024 2.29837 2.90716 2.32626 2.81523C2.35415 2.7233 2.38647 2.63295 2.42324 2.54419C2.46 2.45544 2.50103 2.36869 2.54632 2.28397C2.5916 2.19924 2.64093 2.11694 2.69431 2.03706C2.74768 1.95718 2.80484 1.88011 2.86579 1.80584C2.92673 1.73158 2.99117 1.66048 3.0591 1.59255C3.12704 1.52462 3.19813 1.46018 3.2724 1.39923C3.34666 1.33829 3.42373 1.28113 3.50361 1.22775C3.58349 1.17438 3.66579 1.12505 3.75052 1.07976C3.83525 1.03448 3.92199 0.99345 4.01075 0.956685C4.0995 0.919921 4.18985 0.887595 4.28178 0.859707C4.37372 0.831819 4.4668 0.808504 4.56102 0.789762C4.65524 0.771019 4.75016 0.75694 4.84577 0.747523C4.94138 0.738107 5.03721 0.733398 5.13329 0.733398L16.8666 0.733398C16.9627 0.733398 17.0585 0.738107 17.1541 0.747523C17.2497 0.75694 17.3447 0.771019 17.4389 0.789762C17.5331 0.808504 17.6262 0.831819 17.7181 0.859707C17.8101 0.887595 17.9004 0.919921 17.9892 0.956685C18.0779 0.99345 18.1647 1.03448 18.2494 1.07976C18.3341 1.12505 18.4164 1.17438 18.4963 1.22775C18.5762 1.28113 18.6532 1.33829 18.7275 1.39923C18.8018 1.46018 18.8729 1.52462 18.9408 1.59255C19.0087 1.66048 19.0732 1.73158 19.1341 1.80584C19.1951 1.88011 19.2522 1.95718 19.3056 2.03706C19.359 2.11694 19.4083 2.19924 19.4536 2.28397C19.4989 2.36869 19.5399 2.45544 19.5767 2.54419C19.6134 2.63295 19.6458 2.7233 19.6736 2.81523C19.7015 2.90716 19.7248 3.00024 19.7436 3.09447C19.7623 3.18869 19.7764 3.28361 19.7858 3.37922C19.7952 3.47482 19.8 3.57066 19.8 3.66673L19.8 18.3334C19.8 18.4295 19.7952 18.5253 19.7858 18.6209C19.7764 18.7165 19.7623 18.8114 19.7436 18.9057C19.7248 18.9999 19.7015 19.093 19.6736 19.1849C19.6458 19.2768 19.6134 19.3672 19.5767 19.4559C19.5399 19.5447 19.4989 19.6314 19.4536 19.7162C19.4083 19.8009 19.359 19.8832 19.3056 19.9631C19.2522 20.0429 19.1951 20.12 19.1341 20.1943C19.0732 20.2685 19.0087 20.3396 18.9408 20.4076C18.8729 20.4755 18.8018 20.5399 18.7275 20.6009C18.6532 20.6618 18.5762 20.719 18.4963 20.7724C18.4164 20.8257 18.3341 20.8751 18.2494 20.9204C18.1647 20.9657 18.0779 21.0067 17.9892 21.0434C17.9004 21.0802 17.8101 21.1125 17.7181 21.1404C17.6262 21.1683 17.5331 21.1916 17.4389 21.2104C17.3447 21.2291 17.2497 21.2432 17.1541 21.2526C17.0585 21.262 16.9627 21.2667 16.8666 21.2667L5.13328 21.2667C5.03721 21.2667 4.94138 21.262 4.84577 21.2526C4.75016 21.2432 4.65524 21.2291 4.56102 21.2104C4.4668 21.1916 4.37372 21.1683 4.28178 21.1404C4.18985 21.1125 4.0995 21.0802 4.01075 21.0434C3.92199 21.0067 3.83525 20.9657 3.75052 20.9204C3.66579 20.8751 3.58349 20.8257 3.50361 20.7724C3.42373 20.719 3.34666 20.6618 3.2724 20.6009C3.19813 20.5399 3.12704 20.4755 3.0591 20.4076C2.99117 20.3396 2.92673 20.2685 2.86579 20.1943C2.80484 20.12 2.74768 20.0429 2.69431 19.9631C2.64093 19.8832 2.5916 19.8009 2.54632 19.7162C2.50103 19.6314 2.46 19.5447 2.42324 19.4559C2.38647 19.3672 2.35415 19.2768 2.32626 19.1849C2.29837 19.093 2.27506 18.9999 2.25631 18.9057C2.23757 18.8114 2.22349 18.7165 2.21408 18.6209C2.20466 18.5253 2.19995 18.4295 2.19995 18.3334L2.19995 3.66673Z" fill="rgb(0,0,0)" fill-rule="nonzero" />
			<path id="path" d="M2.19995 9.53307C2.19995 9.48504 2.20231 9.43712 2.20701 9.38931C2.21172 9.34151 2.21876 9.29405 2.22813 9.24694C2.2375 9.19983 2.24916 9.15329 2.26311 9.10732C2.27705 9.06136 2.29321 9.01618 2.31159 8.9718C2.32998 8.92743 2.35049 8.88405 2.37313 8.84169C2.39578 8.79933 2.42044 8.75818 2.44713 8.71824C2.47382 8.6783 2.5024 8.63976 2.53287 8.60263C2.56334 8.5655 2.59556 8.52995 2.62953 8.49598C2.66349 8.46202 2.69904 8.4298 2.73617 8.39932C2.77331 8.36885 2.81184 8.34027 2.85178 8.31358C2.89172 8.2869 2.93287 8.26223 2.97524 8.23959C3.0176 8.21694 3.06097 8.19643 3.10535 8.17805C3.14973 8.15967 3.1949 8.1435 3.24087 8.12956C3.28683 8.11562 3.33337 8.10396 3.38049 8.09459C3.4276 8.08522 3.47506 8.07818 3.52286 8.07347C3.57066 8.06876 3.61858 8.06641 3.66662 8.06641L18.3333 8.06641C18.3813 8.06641 18.4292 8.06876 18.477 8.07347C18.5248 8.07818 18.5723 8.08522 18.6194 8.09459C18.6665 8.10396 18.7131 8.11562 18.759 8.12956C18.805 8.1435 18.8502 8.15967 18.8946 8.17805C18.9389 8.19643 18.9823 8.21694 19.0247 8.23959C19.067 8.26223 19.1082 8.2869 19.1481 8.31358C19.1881 8.34027 19.2266 8.36885 19.2637 8.39932C19.3009 8.4298 19.3364 8.46202 19.3704 8.49598C19.4043 8.52995 19.4366 8.5655 19.467 8.60263C19.4975 8.63976 19.5261 8.6783 19.5528 8.71824C19.5795 8.75818 19.6041 8.79933 19.6268 8.84169C19.6494 8.88405 19.6699 8.92743 19.6883 8.9718C19.7067 9.01618 19.7229 9.06136 19.7368 9.10732C19.7507 9.15329 19.7624 9.19983 19.7718 9.24694C19.7811 9.29405 19.7882 9.34151 19.7929 9.38931C19.7976 9.43712 19.8 9.48504 19.8 9.53307L19.8 18.3331C19.8 18.4291 19.7952 18.525 19.7858 18.6206C19.7764 18.7162 19.7623 18.8111 19.7436 18.9053C19.7248 18.9996 19.7015 19.0926 19.6736 19.1846C19.6458 19.2765 19.6134 19.3669 19.5767 19.4556C19.5399 19.5444 19.4989 19.6311 19.4536 19.7158C19.4083 19.8006 19.359 19.8829 19.3056 19.9627C19.2522 20.0426 19.1951 20.1197 19.1341 20.194C19.0732 20.2682 19.0087 20.3393 18.9408 20.4073C18.8729 20.4752 18.8018 20.5396 18.7275 20.6006C18.6532 20.6615 18.5762 20.7187 18.4963 20.772C18.4164 20.8254 18.3341 20.8748 18.2494 20.92C18.1647 20.9653 18.0779 21.0064 17.9892 21.0431C17.9004 21.0799 17.8101 21.1122 17.7181 21.1401C17.6262 21.168 17.5331 21.1913 17.4389 21.21C17.3447 21.2288 17.2497 21.2429 17.1541 21.2523C17.0585 21.2617 16.9627 21.2664 16.8666 21.2664L5.13328 21.2664C5.03721 21.2664 4.94138 21.2617 4.84577 21.2523C4.75016 21.2429 4.65524 21.2288 4.56102 21.21C4.4668 21.1913 4.37372 21.168 4.28178 21.1401C4.18985 21.1122 4.0995 21.0799 4.01075 21.0431C3.92199 21.0064 3.83525 20.9653 3.75052 20.92C3.66579 20.8748 3.58349 20.8254 3.50361 20.772C3.42373 20.7187 3.34666 20.6615 3.2724 20.6006C3.19813 20.5396 3.12704 20.4752 3.0591 20.4073C2.99117 20.3393 2.92673 20.2682 2.86579 20.194C2.80484 20.1197 2.74768 20.0426 2.69431 19.9627C2.64093 19.8829 2.5916 19.8006 2.54632 19.7158C2.50103 19.6311 2.46 19.5444 2.42324 19.4556C2.38647 19.3669 2.35415 19.2765 2.32626 19.1846C2.29837 19.0926 2.27506 18.9996 2.25631 18.9053C2.23757 18.8111 2.22349 18.7162 2.21408 18.6206C2.20466 18.525 2.19995 18.4291 2.19995 18.3331L2.19995 9.53307Z" fill="rgb(60,63,65)" fill-rule="nonzero" />
			<path id="path" d="M5.86657 2.93359C5.81853 2.93359 5.77061 2.93595 5.72281 2.94066C5.67501 2.94536 5.62755 2.9524 5.58044 2.96178C5.53332 2.97115 5.48678 2.9828 5.44082 2.99675C5.39485 3.01069 5.34968 3.02685 5.3053 3.04524C5.26092 3.06362 5.21755 3.08413 5.17519 3.10678C5.13282 3.12942 5.09167 3.15408 5.05173 3.18077C5.01179 3.20746 4.97326 3.23604 4.93613 3.26651C4.89899 3.29698 4.86344 3.3292 4.82948 3.36317C4.79551 3.39714 4.76329 3.43269 4.73282 3.46982C4.70235 3.50695 4.67377 3.54548 4.64708 3.58542C4.62039 3.62536 4.59573 3.66652 4.57308 3.70888C4.55044 3.75124 4.52993 3.79461 4.51155 3.83899C4.49316 3.88337 4.477 3.92854 4.46306 3.97451C4.44911 4.02048 4.43746 4.06702 4.42808 4.11413C4.41871 4.16124 4.41167 4.2087 4.40696 4.2565C4.40226 4.30431 4.3999 4.35223 4.3999 4.40026C4.3999 4.4483 4.40226 4.49622 4.40696 4.54402C4.41167 4.59182 4.41871 4.63928 4.42808 4.68639C4.43746 4.73351 4.44911 4.78004 4.46306 4.82601C4.477 4.87198 4.49316 4.91715 4.51155 4.96153C4.52993 5.00591 4.55044 5.04928 4.57308 5.09164C4.59573 5.13401 4.62039 5.17516 4.64708 5.2151C4.67377 5.25504 4.70235 5.29357 4.73282 5.3307C4.76329 5.36784 4.79551 5.40338 4.82948 5.43735C4.86344 5.47132 4.89899 5.50354 4.93613 5.53401C4.97326 5.56448 5.01179 5.59306 5.05173 5.61975C5.09167 5.64644 5.13282 5.6711 5.17519 5.69374C5.21755 5.71639 5.26092 5.7369 5.3053 5.75528C5.34968 5.77367 5.39485 5.78983 5.44082 5.80377C5.48678 5.81772 5.53332 5.82937 5.58044 5.83875C5.62755 5.84812 5.67501 5.85516 5.72281 5.85987C5.77061 5.86457 5.81853 5.86693 5.86657 5.86693L16.1332 5.86693C16.1813 5.86693 16.2292 5.86457 16.277 5.85987C16.3248 5.85516 16.3723 5.84812 16.4194 5.83875C16.4665 5.82937 16.513 5.81772 16.559 5.80377C16.6049 5.78983 16.6501 5.77367 16.6945 5.75528C16.7389 5.7369 16.7823 5.71639 16.8246 5.69374C16.867 5.6711 16.9081 5.64644 16.9481 5.61975C16.988 5.59306 17.0265 5.56448 17.0637 5.53401C17.1008 5.50354 17.1364 5.47132 17.1703 5.43735C17.2043 5.40338 17.2365 5.36784 17.267 5.3307C17.2975 5.29357 17.326 5.25504 17.3527 5.2151C17.3794 5.17516 17.4041 5.13401 17.4267 5.09164C17.4494 5.04928 17.4699 5.00591 17.4883 4.96153C17.5066 4.91715 17.5228 4.87198 17.5367 4.82601C17.5507 4.78004 17.5623 4.73351 17.5717 4.68639C17.5811 4.63928 17.5881 4.59182 17.5928 4.54402C17.5975 4.49622 17.5999 4.4483 17.5999 4.40026C17.5999 4.35223 17.5975 4.30431 17.5928 4.2565C17.5881 4.2087 17.5811 4.16124 17.5717 4.11413C17.5623 4.06702 17.5507 4.02048 17.5367 3.97451C17.5228 3.92854 17.5066 3.88337 17.4883 3.83899C17.4699 3.79461 17.4494 3.75124 17.4267 3.70888C17.4041 3.66652 17.3794 3.62536 17.3527 3.58542C17.326 3.54548 17.2975 3.50695 17.267 3.46982C17.2365 3.43269 17.2043 3.39714 17.1703 3.36317C17.1364 3.3292 17.1008 3.29698 17.0637 3.26651C17.0265 3.23604 16.988 3.20746 16.9481 3.18077C16.9081 3.15408 16.867 3.12942 16.8246 3.10678C16.7823 3.08413 16.7389 3.06362 16.6945 3.04524C16.6501 3.02685 16.6049 3.01069 16.559 2.99675C16.513 2.9828 16.4665 2.97115 16.4194 2.96178C16.3723 2.9524 16.3248 2.94536 16.277 2.94066C16.2292 2.93595 16.1813 2.93359 16.1332 2.93359L5.86657 2.93359ZM5.86657 10.2669C5.9146 10.2669 5.96252 10.2693 6.01033 10.274C6.05813 10.2787 6.10559 10.2857 6.1527 10.2951C6.19981 10.3045 6.24635 10.3161 6.29232 10.3301C6.33829 10.344 6.38346 10.3602 6.42784 10.3786C6.47222 10.397 6.51559 10.4175 6.55795 10.4401C6.60031 10.4628 6.64147 10.4874 6.68141 10.5141C6.72134 10.5408 6.75988 10.5694 6.79701 10.5998C6.83414 10.6303 6.86969 10.6625 6.90366 10.6965C6.93762 10.7305 6.96984 10.766 7.00032 10.8032C7.03079 10.8403 7.05937 10.8788 7.08606 10.9188C7.11274 10.9587 7.13741 10.9998 7.16005 11.0422C7.1827 11.0846 7.20321 11.1279 7.22159 11.1723C7.23997 11.2167 7.25614 11.2619 7.27008 11.3078C7.28403 11.3538 7.29568 11.4003 7.30505 11.4475C7.31442 11.4946 7.32146 11.542 7.32617 11.5898C7.33088 11.6376 7.33324 11.6856 7.33324 11.7336C7.33324 11.7816 7.33088 11.8295 7.32617 11.8774C7.32146 11.9252 7.31442 11.9726 7.30505 12.0197C7.29568 12.0668 7.28403 12.1134 7.27008 12.1593C7.25614 12.2053 7.23997 12.2505 7.22159 12.2949C7.20321 12.3392 7.1827 12.3826 7.16005 12.425C7.13741 12.4673 7.11274 12.5085 7.08606 12.5484C7.05937 12.5884 7.03079 12.6269 7.00032 12.664C6.96984 12.7012 6.93762 12.7367 6.90366 12.7707C6.86969 12.8046 6.83414 12.8369 6.79701 12.8673C6.75988 12.8978 6.72134 12.9264 6.68141 12.9531C6.64147 12.9798 6.60031 13.0044 6.55795 13.0271C6.51559 13.0497 6.47222 13.0702 6.42784 13.0886C6.38346 13.107 6.33829 13.1232 6.29232 13.1371C6.24635 13.151 6.19981 13.1627 6.1527 13.1721C6.10559 13.1814 6.05813 13.1885 6.01033 13.1932C5.96252 13.1979 5.9146 13.2003 5.86657 13.2003C5.81853 13.2003 5.77061 13.1979 5.72281 13.1932C5.67501 13.1885 5.62755 13.1814 5.58044 13.1721C5.53332 13.1627 5.48678 13.151 5.44082 13.1371C5.39485 13.1232 5.34968 13.107 5.3053 13.0886C5.26092 13.0702 5.21755 13.0497 5.17519 13.0271C5.13282 13.0044 5.09167 12.9798 5.05173 12.9531C5.01179 12.9264 4.97326 12.8978 4.93613 12.8673C4.89899 12.8369 4.86344 12.8046 4.82948 12.7707C4.79551 12.7367 4.76329 12.7012 4.73282 12.664C4.70235 12.6269 4.67377 12.5884 4.64708 12.5484C4.62039 12.5085 4.59573 12.4673 4.57308 12.425C4.55044 12.3826 4.52993 12.3392 4.51155 12.2949C4.49316 12.2505 4.477 12.2053 4.46306 12.1593C4.44911 12.1134 4.43746 12.0668 4.42808 12.0197C4.41871 11.9726 4.41167 11.9252 4.40696 11.8774C4.40226 11.8295 4.3999 11.7816 4.3999 11.7336C4.3999 11.6856 4.40226 11.6376 4.40696 11.5898C4.41167 11.542 4.41871 11.4946 4.42808 11.4475C4.43746 11.4003 4.44911 11.3538 4.46306 11.3078C4.477 11.2619 4.49316 11.2167 4.51155 11.1723C4.52993 11.1279 4.55044 11.0846 4.57308 11.0422C4.59573 10.9998 4.62039 10.9587 4.64708 10.9188C4.67377 10.8788 4.70235 10.8403 4.73282 10.8032C4.76329 10.766 4.79551 10.7305 4.82948 10.6965C4.86344 10.6625 4.89899 10.6303 4.93613 10.5998C4.97326 10.5694 5.01179 10.5408 5.05173 10.5141C5.09167 10.4874 5.13282 10.4628 5.17519 10.4401C5.21755 10.4175 5.26092 10.397 5.3053 10.3786C5.34968 10.3602 5.39485 10.344 5.44082 10.3301C5.48678 10.3161 5.53332 10.3045 5.58044 10.2951C5.62755 10.2857 5.67501 10.2787 5.72281 10.274C5.77061 10.2693 5.81853 10.2669 5.86657 10.2669ZM5.86657 15.4003C5.9146 15.4003 5.96252 15.4026 6.01033 15.4073C6.05813 15.412 6.10559 15.4191 6.1527 15.4284C6.19981 15.4378 6.24635 15.4495 6.29232 15.4634C6.33829 15.4774 6.38346 15.4935 6.42784 15.5119C6.47222 15.5303 6.51559 15.5508 6.55795 15.5734C6.60031 15.5961 6.64147 15.6208 6.68141 15.6474C6.72134 15.6741 6.75988 15.7027 6.79701 15.7332C6.83414 15.7636 6.86969 15.7959 6.90366 15.8298C6.93762 15.8638 6.96984 15.8994 7.00032 15.9365C7.03079 15.9736 7.05937 16.0122 7.08606 16.0521C7.11274 16.092 7.13741 16.1332 7.16005 16.1755C7.1827 16.2179 7.20321 16.2613 7.22159 16.3057C7.23997 16.35 7.25614 16.3952 7.27008 16.4412C7.28403 16.4871 7.29568 16.5337 7.30505 16.5808C7.31442 16.6279 7.32146 16.6754 7.32617 16.7232C7.33088 16.771 7.33324 16.8189 7.33324 16.8669C7.33324 16.915 7.33088 16.9629 7.32617 17.0107C7.32146 17.0585 7.31442 17.1059 7.30505 17.1531C7.29568 17.2002 7.28403 17.2467 7.27008 17.2927C7.25614 17.3386 7.23997 17.3838 7.22159 17.4282C7.20321 17.4726 7.1827 17.5159 7.16005 17.5583C7.13741 17.6007 7.11274 17.6418 7.08606 17.6818C7.05937 17.7217 7.03079 17.7602 7.00032 17.7974C6.96984 17.8345 6.93762 17.8701 6.90366 17.904C6.86969 17.938 6.83414 17.9702 6.79701 18.0007C6.75988 18.0311 6.72134 18.0597 6.68141 18.0864C6.64147 18.1131 6.60031 18.1378 6.55795 18.1604C6.51559 18.1831 6.47222 18.2036 6.42784 18.222C6.38346 18.2403 6.33829 18.2565 6.29232 18.2704C6.24635 18.2844 6.19981 18.296 6.1527 18.3054C6.10559 18.3148 6.05813 18.3218 6.01033 18.3265C5.96252 18.3312 5.9146 18.3336 5.86657 18.3336C5.81853 18.3336 5.77061 18.3312 5.72281 18.3265C5.67501 18.3218 5.62755 18.3148 5.58044 18.3054C5.53332 18.296 5.48678 18.2844 5.44082 18.2704C5.39485 18.2565 5.34968 18.2403 5.3053 18.222C5.26092 18.2036 5.21755 18.1831 5.17519 18.1604C5.13282 18.1378 5.09167 18.1131 5.05173 18.0864C5.01179 18.0597 4.97326 18.0311 4.93613 18.0007C4.89899 17.9702 4.86344 17.938 4.82948 17.904C4.79551 17.8701 4.76329 17.8345 4.73282 17.7974C4.70235 17.7602 4.67377 17.7217 4.64708 17.6818C4.62039 17.6418 4.59573 17.6007 4.57308 17.5583C4.55044 17.5159 4.52993 17.4726 4.51155 17.4282C4.49316 17.3838 4.477 17.3386 4.46306 17.2927C4.44911 17.2467 4.43746 17.2002 4.42808 17.1531C4.41871 17.1059 4.41167 17.0585 4.40696 17.0107C4.40226 16.9629 4.3999 16.915 4.3999 16.8669C4.3999 16.8189 4.40226 16.771 4.40696 16.7232C4.41167 16.6754 4.41871 16.6279 4.42808 16.5808C4.43746 16.5337 4.44911 16.4871 4.46306 16.4412C4.477 16.3952 4.49316 16.35 4.51155 16.3057C4.52993 16.2613 4.55044 16.2179 4.57308 16.1755C4.59573 16.1332 4.62039 16.092 4.64708 16.0521C4.67377 16.0122 4.70235 15.9736 4.73282 15.9365C4.76329 15.8994 4.79551 15.8638 4.82948 15.8298C4.86344 15.7959 4.89899 15.7637 4.93613 15.7332C4.97326 15.7027 5.01179 15.6741 5.05173 15.6474C5.09167 15.6208 5.13282 15.5961 5.17519 15.5734C5.21755 15.5508 5.26092 15.5303 5.3053 15.5119C5.34968 15.4935 5.39485 15.4774 5.44082 15.4634C5.48678 15.4495 5.53332 15.4378 5.58044 15.4284C5.62755 15.4191 5.67501 15.412 5.72281 15.4073C5.77061 15.4026 5.81853 15.4003 5.86657 15.4003ZM10.9999 15.4003C11.0479 15.4003 11.0959 15.4026 11.1437 15.4073C11.1915 15.412 11.2389 15.4191 11.286 15.4284C11.3331 15.4378 11.3797 15.4495 11.4257 15.4634C11.4716 15.4774 11.5168 15.4935 11.5612 15.5119C11.6055 15.5303 11.6489 15.5508 11.6913 15.5734C11.7336 15.5961 11.7748 15.6208 11.8147 15.6474C11.8547 15.6741 11.8932 15.7027 11.9303 15.7332C11.9675 15.7636 12.003 15.7959 12.037 15.8298C12.071 15.8638 12.1032 15.8994 12.1336 15.9365C12.1641 15.9736 12.1927 16.0122 12.2194 16.0521C12.2461 16.092 12.2707 16.1332 12.2934 16.1755C12.316 16.2179 12.3365 16.2613 12.3549 16.3057C12.3733 16.35 12.3895 16.3952 12.4034 16.4412C12.4174 16.4871 12.429 16.5337 12.4384 16.5808C12.4478 16.6279 12.4548 16.6754 12.4595 16.7232C12.4642 16.771 12.4666 16.8189 12.4666 16.8669C12.4666 16.915 12.4642 16.9629 12.4595 17.0107C12.4548 17.0585 12.4478 17.1059 12.4384 17.1531C12.429 17.2002 12.4174 17.2467 12.4034 17.2927C12.3895 17.3386 12.3733 17.3838 12.3549 17.4282C12.3365 17.4726 12.316 17.5159 12.2934 17.5583C12.2707 17.6007 12.2461 17.6418 12.2194 17.6818C12.1927 17.7217 12.1641 17.7602 12.1336 17.7974C12.1032 17.8345 12.071 17.8701 12.037 17.904C12.003 17.938 11.9675 17.9702 11.9303 18.0007C11.8932 18.0311 11.8547 18.0597 11.8147 18.0864C11.7748 18.1131 11.7336 18.1378 11.6913 18.1604C11.6489 18.1831 11.6055 18.2036 11.5612 18.222C11.5168 18.2403 11.4716 18.2565 11.4257 18.2704C11.3797 18.2844 11.3331 18.296 11.286 18.3054C11.2389 18.3148 11.1915 18.3218 11.1437 18.3265C11.0959 18.3312 11.0479 18.3336 10.9999 18.3336C10.9519 18.3336 10.9039 18.3312 10.8561 18.3265C10.8083 18.3218 10.7609 18.3148 10.7138 18.3054C10.6667 18.296 10.6201 18.2844 10.5742 18.2704C10.5282 18.2565 10.483 18.2403 10.4386 18.222C10.3943 18.2036 10.3509 18.1831 10.3085 18.1604C10.2662 18.1378 10.225 18.1131 10.1851 18.0864C10.1451 18.0597 10.1066 18.0311 10.0695 18.0007C10.0323 17.9702 9.99678 17.938 9.96281 17.904C9.92884 17.8701 9.89663 17.8345 9.86615 17.7974C9.83568 17.7602 9.8071 17.7217 9.78041 17.6818C9.75373 17.6418 9.72906 17.6007 9.70642 17.5583C9.68377 17.5159 9.66326 17.4726 9.64488 17.4282C9.6265 17.3838 9.61033 17.3386 9.59639 17.2927C9.58245 17.2467 9.57079 17.2002 9.56142 17.1531C9.55205 17.1059 9.54501 17.0585 9.5403 17.0107C9.53559 16.9629 9.53324 16.915 9.53324 16.8669C9.53324 16.8189 9.53559 16.771 9.5403 16.7232C9.54501 16.6754 9.55205 16.6279 9.56142 16.5808C9.57079 16.5337 9.58245 16.4871 9.59639 16.4412C9.61033 16.3952 9.6265 16.35 9.64488 16.3057C9.66326 16.2613 9.68377 16.2179 9.70642 16.1755C9.72906 16.1332 9.75373 16.092 9.78041 16.0521C9.8071 16.0122 9.83568 15.9736 9.86615 15.9365C9.89663 15.8994 9.92884 15.8638 9.96281 15.8298C9.99678 15.7959 10.0323 15.7637 10.0695 15.7332C10.1066 15.7027 10.1451 15.6741 10.1851 15.6474C10.225 15.6208 10.2662 15.5961 10.3085 15.5734C10.3509 15.5508 10.3943 15.5303 10.4386 15.5119C10.483 15.4935 10.5282 15.4774 10.5742 15.4634C10.6201 15.4495 10.6667 15.4378 10.7138 15.4284C10.7609 15.4191 10.8083 15.412 10.8561 15.4073C10.9039 15.4026 10.9519 15.4003 10.9999 15.4003ZM17.5999 16.8669C17.6 16.8189 17.5976 16.7709 17.593 16.7231C17.5883 16.6752 17.5813 16.6277 17.572 16.5806C17.5626 16.5334 17.551 16.4869 17.5371 16.4409C17.5232 16.3949 17.507 16.3496 17.4887 16.3052C17.4703 16.2608 17.4498 16.2174 17.4272 16.175C17.4046 16.1326 17.3799 16.0914 17.3532 16.0514C17.3265 16.0114 17.298 15.9728 17.2675 15.9357C17.237 15.8985 17.2048 15.8629 17.1708 15.8289C17.1369 15.7949 17.1013 15.7627 17.0642 15.7321C17.027 15.7016 16.9885 15.673 16.9485 15.6463C16.9086 15.6196 16.8674 15.5949 16.825 15.5722C16.7826 15.5496 16.7392 15.529 16.6948 15.5106C16.6504 15.4922 16.6052 15.476 16.5592 15.4621C16.5132 15.4481 16.4667 15.4364 16.4195 15.427C16.3724 15.4177 16.3249 15.4106 16.2771 15.4059C16.2293 15.4012 16.1813 15.3988 16.1332 15.3988C16.0852 15.3988 16.0372 15.4012 15.9894 15.4059C15.9416 15.4106 15.8941 15.4177 15.8469 15.427C15.7998 15.4364 15.7532 15.4481 15.7072 15.4621C15.6612 15.476 15.616 15.4922 15.5716 15.5106C15.5272 15.529 15.4838 15.5496 15.4415 15.5722C15.3991 15.5949 15.3579 15.6196 15.318 15.6463C15.278 15.673 15.2395 15.7016 15.2023 15.7321C15.1652 15.7627 15.1296 15.7949 15.0956 15.8289C15.0617 15.8629 15.0294 15.8985 14.999 15.9357C14.9685 15.9728 14.9399 16.0114 14.9132 16.0514C14.8866 16.0914 14.8619 16.1326 14.8393 16.175C14.8167 16.2174 14.7962 16.2608 14.7778 16.3052C14.7594 16.3496 14.7433 16.3949 14.7294 16.4409C14.7155 16.4869 14.7038 16.5334 14.6945 16.5806C14.6852 16.6277 14.6782 16.6752 14.6735 16.7231C14.6688 16.7709 14.6665 16.8189 14.6666 16.8669C14.6666 16.9149 14.669 16.9628 14.6738 17.0106C14.6785 17.0584 14.6856 17.1058 14.695 17.1529C14.7044 17.1999 14.7161 17.2464 14.7301 17.2924C14.744 17.3383 14.7602 17.3834 14.7786 17.4278C14.797 17.4721 14.8176 17.5154 14.8402 17.5577C14.8629 17.6001 14.8876 17.6412 14.9142 17.6811C14.9409 17.721 14.9695 17.7595 15 17.7966C15.0305 17.8337 15.0627 17.8692 15.0967 17.9031C15.1306 17.937 15.1662 17.9692 15.2033 17.9996C15.2404 18.0301 15.2789 18.0586 15.3188 18.0853C15.3588 18.1119 15.3999 18.1366 15.4422 18.1592C15.4846 18.1818 15.5279 18.2023 15.5723 18.2207C15.6167 18.239 15.6618 18.2552 15.7077 18.2691C15.7537 18.283 15.8002 18.2947 15.8473 18.304C15.8944 18.3134 15.9418 18.3204 15.9896 18.3251C16.0373 18.3298 16.0852 18.3322 16.1332 18.3322C16.1812 18.3322 16.2291 18.3298 16.2769 18.3251C16.3247 18.3204 16.3721 18.3134 16.4192 18.304C16.4663 18.2947 16.5128 18.283 16.5587 18.2691C16.6047 18.2552 16.6498 18.239 16.6942 18.2207C16.7385 18.2023 16.7819 18.1818 16.8242 18.1592C16.8666 18.1366 16.9077 18.1119 16.9476 18.0853C16.9875 18.0586 17.0261 18.0301 17.0632 17.9996C17.1003 17.9692 17.1359 17.937 17.1698 17.9031C17.2038 17.8692 17.236 17.8337 17.2665 17.7966C17.2969 17.7595 17.3255 17.721 17.3522 17.6811C17.3789 17.6412 17.4036 17.6001 17.4263 17.5577C17.4489 17.5154 17.4694 17.4721 17.4879 17.4278C17.5063 17.3834 17.5224 17.3383 17.5364 17.2924C17.5504 17.2464 17.5621 17.1999 17.5715 17.1529C17.5809 17.1058 17.588 17.0584 17.5927 17.0106C17.5975 16.9628 17.5999 16.9149 17.5999 16.8669ZM12.4666 11.7336C12.4666 11.6855 12.4643 11.6376 12.4596 11.5898C12.4549 11.5419 12.4479 11.4945 12.4386 11.4473C12.4292 11.4002 12.4176 11.3536 12.4037 11.3076C12.3897 11.2616 12.3736 11.2164 12.3552 11.172C12.3368 11.1276 12.3163 11.0842 12.2937 11.0418C12.2711 10.9994 12.2464 10.9582 12.2197 10.9183C12.1931 10.8783 12.1645 10.8397 12.134 10.8026C12.1035 10.7654 12.0713 10.7298 12.0373 10.6958C12.0034 10.6619 11.9678 10.6296 11.9307 10.5991C11.8935 10.5686 11.855 10.54 11.8151 10.5133C11.7751 10.4866 11.7339 10.4619 11.6916 10.4392C11.6492 10.4166 11.6058 10.3961 11.5614 10.3777C11.517 10.3593 11.4718 10.3431 11.4258 10.3291C11.3798 10.3152 11.3333 10.3035 11.2862 10.2941C11.239 10.2847 11.1915 10.2777 11.1437 10.273C11.0959 10.2683 11.048 10.2659 10.9999 10.2659C10.9518 10.2659 10.9039 10.2683 10.8561 10.273C10.8083 10.2777 10.7608 10.2847 10.7136 10.2941C10.6665 10.3035 10.62 10.3152 10.574 10.3291C10.528 10.3431 10.4828 10.3593 10.4384 10.3777C10.394 10.3961 10.3506 10.4166 10.3082 10.4392C10.2659 10.4619 10.2247 10.4866 10.1847 10.5133C10.1448 10.54 10.1063 10.5686 10.0691 10.5991C10.032 10.6296 9.99642 10.6619 9.96245 10.6958C9.92848 10.7298 9.89626 10.7654 9.86579 10.8026C9.83532 10.8397 9.80674 10.8783 9.78006 10.9183C9.75338 10.9582 9.72872 10.9994 9.70609 11.0418C9.68345 11.0842 9.66295 11.1276 9.64459 11.172C9.62622 11.2164 9.61007 11.2616 9.59615 11.3076C9.58223 11.3536 9.57059 11.4002 9.56124 11.4473C9.5519 11.4945 9.54488 11.5419 9.5402 11.5898C9.53552 11.6376 9.5332 11.6855 9.53324 11.7336C9.53327 11.7816 9.53565 11.8295 9.54039 11.8773C9.54513 11.9251 9.55219 11.9725 9.56159 12.0196C9.57098 12.0667 9.58266 12.1132 9.59663 12.1591C9.61059 12.2051 9.62677 12.2502 9.64517 12.2946C9.66357 12.3389 9.68409 12.3822 9.70675 12.4246C9.7294 12.4669 9.75407 12.508 9.78076 12.5479C9.80746 12.5879 9.83604 12.6264 9.86651 12.6635C9.89699 12.7006 9.92921 12.7361 9.96317 12.77C9.99713 12.804 10.0327 12.8362 10.0698 12.8666C10.1069 12.8971 10.1455 12.9256 10.1854 12.9523C10.2253 12.9789 10.2664 13.0036 10.3088 13.0262C10.3511 13.0488 10.3945 13.0693 10.4389 13.0877C10.4832 13.1061 10.5284 13.1222 10.5743 13.1362C10.6203 13.1501 10.6668 13.1617 10.7139 13.1711C10.761 13.1805 10.8084 13.1875 10.8562 13.1922C10.904 13.1969 10.9519 13.1992 10.9999 13.1992C11.0479 13.1992 11.0958 13.1969 11.1436 13.1922C11.1914 13.1875 11.2388 13.1805 11.2859 13.1711C11.333 13.1617 11.3795 13.1501 11.4255 13.1362C11.4714 13.1222 11.5166 13.1061 11.5609 13.0877C11.6053 13.0693 11.6487 13.0488 11.691 13.0262C11.7334 13.0036 11.7745 12.9789 11.8144 12.9523C11.8544 12.9256 11.8929 12.8971 11.93 12.8666C11.9671 12.8362 12.0027 12.804 12.0366 12.77C12.0706 12.7361 12.1028 12.7006 12.1333 12.6635C12.1638 12.6264 12.1923 12.5879 12.219 12.5479C12.2457 12.508 12.2704 12.4669 12.2931 12.4246C12.3157 12.3822 12.3362 12.3389 12.3546 12.2946C12.373 12.2502 12.3892 12.2051 12.4032 12.1591C12.4171 12.1132 12.4288 12.0667 12.4382 12.0196C12.4476 11.9725 12.4547 11.9251 12.4594 11.8773C12.4642 11.8295 12.4665 11.7816 12.4666 11.7336ZM16.1332 10.2669C16.1813 10.2669 16.2292 10.2693 16.277 10.274C16.3248 10.2787 16.3723 10.2857 16.4194 10.2951C16.4665 10.3045 16.513 10.3161 16.559 10.3301C16.6049 10.344 16.6501 10.3602 16.6945 10.3786C16.7389 10.397 16.7823 10.4175 16.8246 10.4401C16.867 10.4628 16.9081 10.4874 16.9481 10.5141C16.988 10.5408 17.0265 10.5694 17.0637 10.5998C17.1008 10.6303 17.1364 10.6625 17.1703 10.6965C17.2043 10.7305 17.2365 10.766 17.267 10.8032C17.2975 10.8403 17.326 10.8788 17.3527 10.9188C17.3794 10.9587 17.4041 10.9998 17.4267 11.0422C17.4494 11.0846 17.4699 11.1279 17.4883 11.1723C17.5066 11.2167 17.5228 11.2619 17.5367 11.3078C17.5507 11.3538 17.5623 11.4003 17.5717 11.4475C17.5811 11.4946 17.5881 11.542 17.5928 11.5898C17.5975 11.6376 17.5999 11.6856 17.5999 11.7336C17.5999 11.7816 17.5975 11.8295 17.5928 11.8774C17.5881 11.9252 17.5811 11.9726 17.5717 12.0197C17.5623 12.0668 17.5507 12.1134 17.5367 12.1593C17.5228 12.2053 17.5066 12.2505 17.4883 12.2949C17.4699 12.3392 17.4494 12.3826 17.4267 12.425C17.4041 12.4673 17.3794 12.5085 17.3527 12.5484C17.326 12.5884 17.2975 12.6269 17.267 12.664C17.2365 12.7012 17.2043 12.7367 17.1703 12.7707C17.1364 12.8046 17.1008 12.8369 17.0637 12.8673C17.0265 12.8978 16.988 12.9264 16.9481 12.9531C16.9081 12.9798 16.867 13.0044 16.8246 13.0271C16.7823 13.0497 16.7389 13.0702 16.6945 13.0886C16.6501 13.107 16.6049 13.1232 16.559 13.1371C16.513 13.151 16.4665 13.1627 16.4194 13.1721C16.3723 13.1814 16.3248 13.1885 16.277 13.1932C16.2292 13.1979 16.1813 13.2003 16.1332 13.2003C16.0852 13.2003 16.0373 13.1979 15.9895 13.1932C15.9417 13.1885 15.8942 13.1814 15.8471 13.1721C15.8 13.1627 15.7535 13.151 15.7075 13.1371C15.6615 13.1232 15.6163 13.107 15.572 13.0886C15.5276 13.0702 15.4842 13.0497 15.4419 13.0271C15.3995 13.0044 15.3583 12.9798 15.3184 12.9531C15.2785 12.9264 15.2399 12.8978 15.2028 12.8673C15.1657 12.8369 15.1301 12.8046 15.0961 12.7707C15.0622 12.7367 15.03 12.7012 14.9995 12.664C14.969 12.6269 14.9404 12.5884 14.9137 12.5484C14.8871 12.5085 14.8624 12.4673 14.8398 12.425C14.8171 12.3826 14.7966 12.3392 14.7782 12.2949C14.7598 12.2505 14.7437 12.2053 14.7297 12.1593C14.7158 12.1134 14.7041 12.0668 14.6947 12.0197C14.6854 11.9726 14.6783 11.9252 14.6736 11.8774C14.6689 11.8295 14.6666 11.7816 14.6666 11.7336C14.6666 11.6856 14.6689 11.6376 14.6736 11.5898C14.6783 11.542 14.6854 11.4946 14.6947 11.4475C14.7041 11.4003 14.7158 11.3538 14.7297 11.3078C14.7437 11.2619 14.7598 11.2167 14.7782 11.1723C14.7966 11.1279 14.8171 11.0846 14.8398 11.0422C14.8624 10.9998 14.8871 10.9587 14.9137 10.9188C14.9404 10.8788 14.969 10.8403 14.9995 10.8032C15.03 10.766 15.0622 10.7305 15.0961 10.6965C15.1301 10.6625 15.1657 10.6303 15.2028 10.5998C15.2399 10.5694 15.2785 10.5408 15.3184 10.5141C15.3583 10.4874 15.3995 10.4628 15.4419 10.4401C15.4842 10.4175 15.5276 10.397 15.572 10.3786C15.6163 10.3602 15.6615 10.344 15.7075 10.3301C15.7535 10.3161 15.8 10.3045 15.8471 10.2951C15.8942 10.2857 15.9417 10.2787 15.9895 10.274C16.0373 10.2693 16.0852 10.2669 16.1332 10.2669Z" fill="rgb(255,255,255)" fill-rule="nonzero" />
		</g>
	</g>
</svg>
