<svg viewBox="0 0 318 152" xmlns="http://www.w3.org/2000/svg" xmlns:xlink="http://www.w3.org/1999/xlink" width="318" height="152" fill="none" customFrame="#000000">
	<defs>
		<filter id="pixso_custom_mask_type_outline">
			<feColorMatrix type="matrix" values="0 0 0 0 1 0 0 0 0 1 0 0 0 0 1 0 0 0 255 0 " />
		</filter>
	</defs>
	<mask id="mask_0" width="318" height="152" x="0" y="0" maskUnits="userSpaceOnUse" mask-type="outline">
		<g filter="url(#pixso_custom_mask_type_outline)">
			<path id="矩形备份 62" d="M20 0L298 0C309.046 0 318 8.95431 318 20L318 132C318 143.046 309.046 152 298 152L20 152C8.95431 152 0 143.046 0 132L0 20C0 8.95431 8.95431 0 20 0Z" fill="rgb(0,0,0)" fill-rule="evenodd" />
			<path id="矩形备份 62" d="M298 0L20 0C8.95431 0 0 8.95431 0 20L0 132C0 143.046 8.95431 152 20 152L298 152C309.046 152 318 143.046 318 132L318 20C318 8.95431 309.046 0 298 0ZM20 0.999998L298 1C298.947 1 299.884 1.06877 300.811 1.20632C301.152 1.25692 301.492 1.31682 301.83 1.38603C302.449 1.51273 303.059 1.66962 303.66 1.85669C304.247 2.03978 304.826 2.25178 305.395 2.4927C305.874 2.69514 306.343 2.91647 306.801 3.1567C307.427 3.48413 308.034 3.84667 308.622 4.24431C309.091 4.56112 309.544 4.89739 309.982 5.25311C310.487 5.66439 310.972 6.10168 311.435 6.56497C311.905 7.03533 312.349 7.52745 312.766 8.04131C313.114 8.4715 313.444 8.91694 313.756 9.37762C314.15 9.9619 314.511 10.5643 314.836 11.1849C315.079 11.648 315.303 12.1213 315.507 12.6046C315.748 13.1729 315.959 13.7502 316.142 14.3364C316.33 14.9381 316.487 15.5492 316.614 16.1698C316.684 16.5124 316.745 16.8565 316.796 17.202C316.932 18.1246 317 19.0573 317 20L317 132C317 132.942 316.932 133.875 316.796 134.797C316.745 135.143 316.684 135.487 316.614 135.83C316.486 136.455 316.328 137.07 316.138 137.676C315.956 138.258 315.746 138.831 315.507 139.395C315.306 139.872 315.086 140.338 314.847 140.795C314.519 141.422 314.155 142.032 313.756 142.622C313.445 143.082 313.115 143.527 312.767 143.957C312.35 144.472 311.906 144.964 311.435 145.435C310.97 145.9 310.483 146.339 309.975 146.752C309.54 147.106 309.089 147.44 308.622 147.756C308.035 148.153 307.429 148.515 306.805 148.842C306.345 149.082 305.875 149.304 305.395 149.507C304.826 149.748 304.247 149.96 303.66 150.143C303.059 150.33 302.449 150.487 301.83 150.614C301.49 150.684 301.149 150.744 300.806 150.794C299.881 150.931 298.945 151 298 151L20 151C19.055 151 18.1201 150.932 17.1953 150.795C16.8521 150.744 16.5102 150.684 16.1698 150.614C15.5519 150.488 14.9435 150.331 14.3443 150.145C13.7554 149.961 13.1755 149.749 12.6046 149.507C12.1277 149.306 11.6606 149.085 11.2034 148.846C10.5763 148.518 9.96773 148.154 9.37762 147.756C8.91623 147.444 8.47014 147.113 8.03934 146.764C7.52618 146.348 7.03472 145.905 6.56497 145.435C6.09634 144.966 5.65435 144.476 5.23898 143.964C4.88846 143.532 4.5569 143.085 4.24431 142.622C3.84445 142.031 3.4801 141.42 3.15126 140.791C2.91312 140.336 2.6936 139.87 2.4927 139.395C2.25096 138.824 2.03833 138.243 1.85481 137.654C1.66856 137.055 1.5123 136.447 1.38603 135.83C1.31682 135.492 1.25691 135.152 1.20632 134.811C1.06877 133.885 0.999998 132.947 0.999998 132L1 20C1 19.0527 1.06877 18.1155 1.20632 17.1886C1.25692 16.8476 1.31682 16.508 1.38603 16.1698C1.51242 15.5521 1.66885 14.9438 1.85533 14.3448C2.03873 13.7557 2.25119 13.1757 2.4927 12.6046C2.69446 12.1276 2.915 11.6604 3.15432 11.2031C3.48236 10.5761 3.8457 9.96764 4.24431 9.37762C4.55734 8.91427 4.88938 8.46636 5.24043 8.03389C5.65538 7.52269 6.09689 7.03305 6.56497 6.56497C7.03319 6.09675 7.52298 5.65512 8.03434 5.24006C8.46668 4.88914 8.91444 4.55723 9.37762 4.24431C9.96766 3.84568 10.5762 3.48233 11.2031 3.15428C11.6605 2.91498 12.1277 2.69445 12.6046 2.4927C13.1757 2.25115 13.7559 2.03867 14.3451 1.85525C14.9439 1.66881 15.5522 1.5124 16.1698 1.38602C16.5078 1.31687 16.8471 1.257 17.1878 1.20642C18.115 1.06881 19.0524 0.999998 20 0.999998Z" fill="rgb(151,151,151)" fill-opacity="0" fill-rule="evenodd" />
		</g>
	</mask>
	<g id="组合 274" mask="url(#mask_0)">
		<path id="矩形备份 62" d="M20 0L298 0C309.046 0 318 8.95431 318 20L318 132C318 143.046 309.046 152 298 152L20 152C8.95431 152 0 143.046 0 132L0 20C0 8.95431 8.95431 0 20 0Z" fill="rgb(0,0,0)" fill-rule="evenodd" />
		<path id="矩形备份 62" d="M298 0L20 0C8.95431 0 0 8.95431 0 20L0 132C0 143.046 8.95431 152 20 152L298 152C309.046 152 318 143.046 318 132L318 20C318 8.95431 309.046 0 298 0ZM20 0.999998L298 1C298.947 1 299.884 1.06877 300.811 1.20632C301.152 1.25692 301.492 1.31682 301.83 1.38603C302.449 1.51273 303.059 1.66962 303.66 1.85669C304.247 2.03978 304.826 2.25178 305.395 2.4927C305.874 2.69514 306.343 2.91647 306.801 3.1567C307.427 3.48413 308.034 3.84667 308.622 4.24431C309.091 4.56112 309.544 4.89739 309.982 5.25311C310.487 5.66439 310.972 6.10168 311.435 6.56497C311.905 7.03533 312.349 7.52745 312.766 8.04131C313.114 8.4715 313.444 8.91694 313.756 9.37762C314.15 9.9619 314.511 10.5643 314.836 11.1849C315.079 11.648 315.303 12.1213 315.507 12.6046C315.748 13.1729 315.959 13.7502 316.142 14.3364C316.33 14.9381 316.487 15.5492 316.614 16.1698C316.684 16.5124 316.745 16.8565 316.796 17.202C316.932 18.1246 317 19.0573 317 20L317 132C317 132.942 316.932 133.875 316.796 134.797C316.745 135.143 316.684 135.487 316.614 135.83C316.486 136.455 316.328 137.07 316.138 137.676C315.956 138.258 315.746 138.831 315.507 139.395C315.306 139.872 315.086 140.338 314.847 140.795C314.519 141.422 314.155 142.032 313.756 142.622C313.445 143.082 313.115 143.527 312.767 143.957C312.35 144.472 311.906 144.964 311.435 145.435C310.97 145.9 310.483 146.339 309.975 146.752C309.54 147.106 309.089 147.44 308.622 147.756C308.035 148.153 307.429 148.515 306.805 148.842C306.345 149.082 305.875 149.304 305.395 149.507C304.826 149.748 304.247 149.96 303.66 150.143C303.059 150.33 302.449 150.487 301.83 150.614C301.49 150.684 301.149 150.744 300.806 150.794C299.881 150.931 298.945 151 298 151L20 151C19.055 151 18.1201 150.932 17.1953 150.795C16.8521 150.744 16.5102 150.684 16.1698 150.614C15.5519 150.488 14.9435 150.331 14.3443 150.145C13.7554 149.961 13.1755 149.749 12.6046 149.507C12.1277 149.306 11.6606 149.085 11.2034 148.846C10.5763 148.518 9.96773 148.154 9.37762 147.756C8.91623 147.444 8.47014 147.113 8.03934 146.764C7.52618 146.348 7.03472 145.905 6.56497 145.435C6.09634 144.966 5.65435 144.476 5.23898 143.964C4.88846 143.532 4.5569 143.085 4.24431 142.622C3.84445 142.031 3.4801 141.42 3.15126 140.791C2.91312 140.336 2.6936 139.87 2.4927 139.395C2.25096 138.824 2.03833 138.243 1.85481 137.654C1.66856 137.055 1.5123 136.447 1.38603 135.83C1.31682 135.492 1.25691 135.152 1.20632 134.811C1.06877 133.885 0.999998 132.947 0.999998 132L1 20C1 19.0527 1.06877 18.1155 1.20632 17.1886C1.25692 16.8476 1.31682 16.508 1.38603 16.1698C1.51242 15.5521 1.66885 14.9438 1.85533 14.3448C2.03873 13.7557 2.25119 13.1757 2.4927 12.6046C2.69446 12.1276 2.915 11.6604 3.15432 11.2031C3.48236 10.5761 3.8457 9.96764 4.24431 9.37762C4.55734 8.91427 4.88938 8.46636 5.24043 8.03389C5.65538 7.52269 6.09689 7.03305 6.56497 6.56497C7.03319 6.09675 7.52298 5.65512 8.03434 5.24006C8.46668 4.88914 8.91444 4.55723 9.37762 4.24431C9.96766 3.84568 10.5762 3.48233 11.2031 3.15428C11.6605 2.91498 12.1277 2.69445 12.6046 2.4927C13.1757 2.25115 13.7559 2.03867 14.3451 1.85525C14.9439 1.66881 15.5522 1.5124 16.1698 1.38602C16.5078 1.31687 16.8471 1.257 17.1878 1.20642C18.115 1.06881 19.0524 0.999998 20 0.999998Z" fill="rgb(151,151,151)" fill-opacity="0" fill-rule="evenodd" />
		<path id="" d="M25.8896 16.3096L31.9297 16.3096L31.9297 19.0806L25.8896 19.0806L25.8896 16.3096ZM31.2192 17.4302L31.2192 16.8906L26.6001 16.8906L26.6001 17.4302L31.2192 17.4302ZM26.6001 17.9502L26.6001 18.4995L31.2192 18.4995L31.2192 17.9502L26.6001 17.9502ZM24.4102 19.6104L33.3994 19.6104L33.3994 20.2012L28.6289 20.2012L28.6289 23.3091L29.2002 23.1992L29.2197 23.519L29.2393 23.7998L28.6289 23.9097L28.6289 25.0205L27.9502 25.0205L27.9502 24.0098L26.2705 24.249L24.7104 24.4712L24.6006 23.8511L25.5308 23.7412L25.5308 20.2012L24.4102 20.2012L24.4102 19.6104ZM26.2192 20.9189L27.9502 20.9189L27.9502 20.2012L26.2192 20.2012L26.2192 20.9189ZM32.6108 21.3608C32.2772 22.1405 31.867 22.8037 31.3804 23.3506C31.8605 23.751 32.4871 24.0911 33.2603 24.3711L32.9209 24.9497C32.1071 24.6226 31.4438 24.236 30.9312 23.79C30.4299 24.236 29.8496 24.6128 29.1904 24.9204L28.8389 24.3589C29.4932 24.0789 30.0433 23.7428 30.4893 23.3506C30.25 23.0771 30.0384 22.7793 29.8545 22.457C29.6722 22.1331 29.5037 21.7677 29.3491 21.3608L29.0391 21.3608L29.0391 20.7896L32.6108 20.7896L32.6108 21.3608ZM30.0303 21.3608C30.2842 22.007 30.5845 22.527 30.9312 22.9209C31.3169 22.4733 31.6335 21.9533 31.8809 21.3608L30.0303 21.3608ZM26.2192 22.1812L27.9502 22.1812L27.9502 21.4512L26.2192 21.4512L26.2192 22.1812ZM26.2192 23.6606C26.9663 23.5728 27.5433 23.4922 27.9502 23.4189L27.9502 22.7109L26.2192 22.7109L26.2192 23.6606ZM36.9504 23.0308C37.2629 22.6173 37.4891 22.2625 37.6291 21.9663C37.769 21.6685 37.861 21.3283 37.9049 20.9458C37.9489 20.5617 37.9709 19.9993 37.9709 19.2588L37.9709 16.9102C38.7375 16.863 39.4984 16.7799 40.2536 16.6611C41.0104 16.5407 41.716 16.3901 42.3703 16.2095L42.59 16.9395C42.0106 17.1006 41.3807 17.2381 40.7004 17.3521C40.02 17.4644 39.3633 17.5433 38.7301 17.5889L38.7301 19.1294L43.1711 19.1294L43.1711 19.8594L41.4401 19.8594L41.4401 23.5093L40.6711 23.5093L40.6711 19.8594L38.7204 19.8594C38.7074 20.46 38.6675 20.9507 38.6007 21.3315C38.534 21.7108 38.4233 22.0591 38.2687 22.3765C38.1157 22.6922 37.8862 23.0666 37.5802 23.4995L36.9504 23.0308ZM36.4108 18.5898C36.2708 18.3294 36.0535 18.0194 35.7589 17.6597C35.466 17.3 35.2031 17.007 34.9704 16.7808L35.5002 16.2998C35.7264 16.5195 35.9876 16.8011 36.2838 17.1445C36.5817 17.488 36.8071 17.7728 36.9601 17.999L36.4108 18.5898ZM40.6003 23.9902C41.5133 23.9902 42.4167 23.9634 43.3102 23.9097L43.1393 24.6689C42.0195 24.7031 41.2033 24.7202 40.6906 24.7202L40.0509 24.7104C39.2632 24.6909 38.6545 24.6543 38.2248 24.6006C37.7951 24.5469 37.4053 24.4329 37.0553 24.2588C36.7054 24.0863 36.3506 23.8201 35.9909 23.4604L34.7995 24.769L34.2697 24.21L35.6808 22.7598L35.6808 20.04L34.5993 20.04L34.5993 19.3296L36.4206 19.3296L36.4206 22.9111C36.7331 23.2171 37.0391 23.4417 37.3385 23.585C37.6396 23.7282 37.9749 23.8267 38.3444 23.8804C38.7155 23.9341 39.2209 23.9674 39.8605 23.9805L40.6003 23.9902ZM53.221 24.3491L52.7303 24.979C51.757 24.38 50.9603 23.7168 50.3402 22.9893C49.7803 23.6501 48.9534 24.3174 47.8597 24.9912L47.369 24.3711C48.4904 23.7233 49.3278 23.0633 49.8812 22.3911C49.3196 21.5903 48.9095 20.6366 48.6507 19.5298C48.4831 19.8569 48.2764 20.2101 48.0306 20.5894L47.3812 20.189C47.7539 19.6567 48.0965 18.9837 48.409 18.1699C48.7231 17.3561 48.9266 16.6131 49.0194 15.9409L49.8104 16.1094C49.7241 16.57 49.6069 17.0469 49.4588 17.54L52.9305 17.54L52.9305 18.2993L52.0198 18.2993C51.8994 19.2336 51.7488 20.0173 51.5682 20.6504C51.3891 21.2835 51.1328 21.8564 50.7991 22.3691C51.3867 23.056 52.194 23.716 53.221 24.3491ZM46.4388 21.4609L46.4388 16.0288L47.159 16.0703L47.159 24.9497L46.4388 24.9497L46.4388 22.269L45.8992 22.4912L45.1888 22.7891C44.9902 22.877 44.8177 22.9705 44.6712 23.0698L44.3489 22.3594C44.4629 22.2731 44.5378 22.2015 44.5736 22.1445C44.611 22.0876 44.6297 22.0127 44.6297 21.9199L44.6297 17.1396L45.3597 17.1812L45.3597 21.8809L46.4388 21.4609ZM50.3206 21.749C50.5941 21.3031 50.8024 20.8066 50.9456 20.2598C51.0889 19.7129 51.2003 19.0594 51.2801 18.2993L49.1903 18.2993L49.1292 18.4507C49.2236 19.1034 49.3652 19.6982 49.554 20.2354C49.7445 20.7725 50 21.277 50.3206 21.749ZM62.4092 17.689L62.3994 18.3701L54.4306 18.3701L54.4306 17.689L56.9502 17.689C56.6165 17.2104 56.2527 16.7572 55.8589 16.3291L56.4912 15.8701C56.6442 16.0296 56.8338 16.2493 57.06 16.5293C57.2863 16.8092 57.4865 17.0729 57.6606 17.3203L57.2407 17.689L59.0888 17.689C59.2223 17.5425 59.4258 17.2796 59.6992 16.9004C59.9726 16.5195 60.2095 16.1729 60.4096 15.8604L61.1103 16.229C60.876 16.6359 60.539 17.1226 60.0996 17.689L62.4092 17.689ZM57.7192 19.21C57.4263 19.4834 56.9795 19.8138 56.3789 20.2012C55.7799 20.5869 55.1533 20.9263 54.499 21.2192L54.0596 20.5698C54.6406 20.3371 55.251 20.0327 55.8906 19.6567C56.5303 19.2791 56.9933 18.9504 57.2798 18.6704L57.7192 19.21ZM59.4697 18.6704C59.9564 18.9634 60.43 19.2401 60.8906 19.5005C61.737 19.9806 62.3432 20.3501 62.7095 20.6089L62.3896 21.2998C61.9892 21.0068 61.5522 20.7188 61.0786 20.4355C60.6066 20.1523 60.0434 19.8236 59.3891 19.4492L59.0693 19.2588L59.4697 18.6704ZM61.5693 20.8799L61.5693 23.939L62.8388 23.939L62.8388 24.6104L54.0205 24.6104L54.0205 23.939L55.3193 23.939L55.3193 20.8799L61.5693 20.8799ZM57.1797 21.561L56.0395 21.561L56.0395 23.939L57.1797 23.939L57.1797 21.561ZM57.8706 23.939L59.0205 23.939L59.0205 21.561L57.8706 21.561L57.8706 23.939ZM59.709 23.939L60.8711 23.939L60.8711 21.561L59.709 21.561L59.709 23.939Z" fill="rgb(255,255,255)" fill-rule="nonzero" />
		<g id="组合 275" opacity="0.25">
			<path id="矢量 24" d="M0 0L219.203 0" stroke="rgb(246,72,177)" stroke-width="1" transform="matrix(0.707107,-0.707107,0.707107,0.707107,82,201)" />
			<path id="矢量 26" d="M0 0L121.622 0" stroke="rgb(255,255,255)" stroke-width="1" transform="matrix(0.707107,-0.707107,0.707107,0.707107,259,86)" />
			<path id="矢量 28" d="M0 0L121.622 0" stroke="rgb(21,214,223)" stroke-width="1" transform="matrix(0.707107,-0.707107,0.707107,0.707107,151,49)" />
			<path id="矢量 27" d="M0 0L237.588 0" stroke="rgb(137,94,255)" stroke-width="1" transform="matrix(0.707107,-0.707107,0.707107,0.707107,-53,190)" />
		</g>
	</g>
</svg>
