<svg viewBox="0 0 15.157 15.1572" xmlns="http://www.w3.org/2000/svg" xmlns:xlink="http://www.w3.org/1999/xlink" width="15.1569824" height="15.1572266" fill="none" customFrame="#000000">
	<path id="path" d="M7.57848 6.70833L1.0511 0.180944C1.02245 0.152527 0.991309 0.127161 0.957687 0.104846C0.924065 0.0825305 0.888597 0.0636899 0.851283 0.048324C0.813969 0.0329582 0.775519 0.0213594 0.735932 0.0135276C0.696346 0.00569576 0.656375 0.00177985 0.616021 0.00177985C0.575668 0.00177985 0.535697 0.00569576 0.496111 0.0135276C0.456524 0.0213594 0.418074 0.0329582 0.38076 0.048324C0.343446 0.0636899 0.307978 0.0825305 0.274356 0.104846C0.240734 0.127161 0.209596 0.152527 0.180945 0.180944C0.152272 0.209453 0.126668 0.240492 0.104133 0.274063C0.081597 0.307634 0.0625659 0.343086 0.0470394 0.380419C0.0315128 0.417752 0.0197913 0.456244 0.0118748 0.495895C0.00395828 0.535546 2.62178e-08 0.575588 2.62178e-08 0.616021C2.62178e-08 0.656454 0.00395828 0.696496 0.0118748 0.736147C0.0197913 0.775798 0.0315128 0.81429 0.0470394 0.851623C0.0625659 0.888956 0.081597 0.924408 0.104133 0.957979C0.126668 0.991549 0.152272 1.02259 0.180945 1.0511L6.70833 7.57848L0.180945 14.1059C0.152528 14.1345 0.127162 14.1657 0.104846 14.1993C0.0825309 14.2329 0.0636903 14.2684 0.0483244 14.3057C0.0329586 14.343 0.0213598 14.3814 0.0135279 14.421C0.00569611 14.4606 0.00178019 14.5006 0.00178019 14.5409C0.00178019 14.5813 0.00569611 14.6213 0.0135279 14.6609C0.0213598 14.7004 0.0329586 14.7389 0.0483244 14.7762C0.0636903 14.8135 0.0825309 14.849 0.104846 14.8826C0.127162 14.9162 0.152528 14.9474 0.180945 14.976C0.209453 15.0047 0.240493 15.0303 0.274064 15.0528C0.307634 15.0754 0.343086 15.0944 0.38042 15.1099C0.417753 15.1255 0.456245 15.1372 0.495896 15.1451C0.535546 15.153 0.575588 15.157 0.616021 15.157C0.656455 15.157 0.696497 15.153 0.736147 15.1451C0.775798 15.1372 0.81429 15.1255 0.851623 15.1099C0.888957 15.0944 0.924409 15.0754 0.957979 15.0528C0.99155 15.0303 1.02259 15.0047 1.0511 14.976L7.57848 8.44864L14.1059 14.976C14.3428 15.2129 14.7354 15.216 14.976 14.976C15.0047 14.9475 15.0303 14.9165 15.0528 14.8829C15.0754 14.8493 15.0944 14.8139 15.1099 14.7765C15.1255 14.7392 15.1372 14.7007 15.1451 14.6611C15.153 14.6214 15.157 14.5814 15.157 14.5409C15.157 14.5005 15.153 14.4605 15.1451 14.4208C15.1372 14.3812 15.1255 14.3427 15.1099 14.3053C15.0944 14.268 15.0754 14.2326 15.0528 14.199C15.0303 14.1654 15.0047 14.1344 14.976 14.1059L8.44864 7.57848L14.976 1.0511C15.0044 1.02245 15.0298 0.991309 15.0521 0.957687C15.0744 0.924064 15.0933 0.888596 15.1086 0.851282C15.124 0.813968 15.1356 0.775518 15.1434 0.735932C15.1513 0.696345 15.1552 0.656375 15.1552 0.616021C15.1552 0.575667 15.1513 0.535697 15.1434 0.49611C15.1356 0.456524 15.124 0.418073 15.1086 0.38076C15.0933 0.343446 15.0744 0.307978 15.0521 0.274355C15.0298 0.240733 15.0044 0.209596 14.976 0.180944C14.9475 0.152272 14.9165 0.126668 14.8829 0.104132C14.8493 0.0815968 14.8139 0.0625657 14.7765 0.0470392C14.7392 0.0315127 14.7007 0.0197912 14.6611 0.0118747C14.6214 0.00395824 14.5814 0 14.5409 0C14.5005 0 14.4605 0.00395824 14.4208 0.0118747C14.3812 0.0197912 14.3427 0.0315127 14.3053 0.0470392C14.268 0.0625657 14.2326 0.0815968 14.199 0.104132C14.1654 0.126668 14.1344 0.152272 14.1059 0.180944L7.57848 6.70833Z" fill="rgb(30.2487,30.2185,30.2185)" fill-rule="nonzero" />
</svg>
