<svg viewBox="0 0 16.3335 15" xmlns="http://www.w3.org/2000/svg" xmlns:xlink="http://www.w3.org/1999/xlink" width="16.3334961" height="15" fill="none" customFrame="#000000">
	<path id="矢量 96" d="M9.8 13.3333L10.6167 13.3333L10.6167 15L0 15L0 13.3333L0.816667 13.3333L0.816667 0.833333C0.816667 0.778616 0.821897 0.724424 0.832359 0.670758C0.84282 0.617092 0.858311 0.564983 0.878832 0.514431C0.899352 0.463878 0.924509 0.415854 0.9543 0.370358C0.984091 0.324862 1.01795 0.282769 1.05586 0.244078C1.09378 0.205387 1.13503 0.170841 1.17962 0.140442C1.2242 0.110043 1.27127 0.0843732 1.32081 0.0634337C1.37035 0.0424943 1.42142 0.0266871 1.47401 0.0160123C1.5266 0.00533742 1.57971 0 1.63333 0L8.98333 0C9.03696 0 9.09007 0.00533742 9.14266 0.0160123C9.19525 0.0266871 9.24632 0.0424943 9.29586 0.0634337C9.3454 0.0843732 9.39246 0.110043 9.43705 0.140442C9.48164 0.170841 9.52289 0.205387 9.56081 0.244078C9.59872 0.282769 9.63258 0.324862 9.66237 0.370358C9.69216 0.415854 9.71731 0.463878 9.73784 0.51443C9.75836 0.564983 9.77385 0.617092 9.78431 0.670758C9.79477 0.724424 9.8 0.778616 9.8 0.833333L9.8 7.5L11.4333 7.5C11.4868 7.5 11.5402 7.50268 11.5934 7.50803C11.6467 7.51338 11.6995 7.52138 11.752 7.53202C11.8044 7.54267 11.8563 7.55592 11.9075 7.57177C11.9587 7.58761 12.009 7.60598 12.0584 7.62687C12.1078 7.64776 12.1561 7.67107 12.2033 7.6968C12.2505 7.72253 12.2963 7.75056 12.3408 7.78088C12.3852 7.81121 12.4282 7.84369 12.4695 7.87832C12.5109 7.91295 12.5505 7.94956 12.5883 7.98815C12.6261 8.02675 12.662 8.06715 12.6959 8.10934C12.7299 8.15154 12.7617 8.19533 12.7914 8.24072C12.8211 8.2861 12.8486 8.33286 12.8738 8.38101C12.899 8.42914 12.9219 8.47843 12.9423 8.52886C12.9628 8.57929 12.9808 8.63062 12.9963 8.68286C13.0119 8.73509 13.0248 8.78798 13.0353 8.84152C13.0457 8.89505 13.0536 8.94898 13.0588 9.0033C13.064 9.05763 13.0667 9.11208 13.0667 9.16667L13.0667 12.5C13.0667 12.5547 13.0719 12.6089 13.0824 12.6626C13.0928 12.7162 13.1083 12.7683 13.1288 12.8189C13.1494 12.8695 13.1745 12.9175 13.2043 12.963C13.2341 13.0085 13.2679 13.0506 13.3059 13.0893C13.3438 13.1279 13.385 13.1625 13.4296 13.1929C13.4742 13.2233 13.5213 13.249 13.5708 13.2699C13.6204 13.2908 13.6714 13.3066 13.724 13.3173C13.7766 13.328 13.8297 13.3333 13.8833 13.3333C13.937 13.3333 13.9901 13.328 14.0427 13.3173C14.0953 13.3066 14.1463 13.2908 14.1959 13.2699C14.2454 13.249 14.2925 13.2233 14.3371 13.1929C14.3816 13.1625 14.4229 13.1279 14.4608 13.0893C14.4987 13.0506 14.5326 13.0085 14.5624 12.963C14.5922 12.9175 14.6173 12.8695 14.6378 12.8189C14.6584 12.7683 14.6738 12.7162 14.6843 12.6626C14.6948 12.6089 14.7 12.5547 14.7 12.5L14.7 6.66667L13.0667 6.66667C13.013 6.66667 12.9599 6.66133 12.9073 6.65065C12.8548 6.63998 12.8037 6.62417 12.7541 6.60323C12.7046 6.58229 12.6575 6.55662 12.613 6.52622C12.5684 6.49582 12.5271 6.46128 12.4892 6.42259C12.4513 6.3839 12.4174 6.3418 12.3876 6.29631C12.3578 6.25081 12.3327 6.20279 12.3122 6.15224C12.2916 6.10168 12.2762 6.04957 12.2657 5.99591C12.2552 5.94224 12.25 5.88805 12.25 5.83333L12.25 2.845L10.8968 1.46417L12.0516 0.285833L16.0941 4.41083C16.1708 4.48888 16.2298 4.57895 16.2713 4.68106C16.3128 4.78316 16.3334 4.88947 16.3333 5L16.3333 12.5C16.3333 12.5819 16.3294 12.6636 16.3215 12.745C16.3137 12.8265 16.3019 12.9074 16.2863 12.9877C16.2706 13.068 16.2511 13.1474 16.2278 13.2257C16.2045 13.3041 16.1775 13.3811 16.1468 13.4567C16.1161 13.5324 16.0819 13.6063 16.044 13.6785C16.0062 13.7507 15.965 13.8208 15.9204 13.8889C15.8759 13.957 15.8281 14.0227 15.7772 14.086C15.7263 14.1493 15.6725 14.2099 15.6157 14.2678C15.559 14.3257 15.4996 14.3806 15.4376 14.4325C15.3756 14.4845 15.3112 14.5332 15.2445 14.5787C15.1778 14.6242 15.109 14.6662 15.0383 14.7048C14.9675 14.7434 14.895 14.7784 14.8209 14.8097C14.7468 14.841 14.6713 14.8686 14.5945 14.8924C14.5177 14.9161 14.44 14.936 14.3613 14.952C14.2826 14.9679 14.2033 14.9799 14.1235 14.988C14.0436 14.996 13.9636 15 13.8833 15C13.8031 15 13.723 14.996 13.6432 14.988C13.5633 14.9799 13.4841 14.9679 13.4054 14.952C13.3267 14.936 13.2489 14.9161 13.1721 14.8924C13.0954 14.8686 13.0199 14.841 12.9458 14.8097C12.8716 14.7784 12.7992 14.7434 12.7284 14.7048C12.6576 14.6662 12.5889 14.6242 12.5222 14.5787C12.4555 14.5332 12.3911 14.4845 12.3291 14.4325C12.267 14.3806 12.2077 14.3257 12.1509 14.2678C12.0942 14.2099 12.0404 14.1493 11.9895 14.086C11.9386 14.0227 11.8908 13.957 11.8462 13.8889C11.8017 13.8208 11.7605 13.7507 11.7226 13.6785C11.6848 13.6063 11.6505 13.5324 11.6198 13.4567C11.5891 13.3811 11.5621 13.3041 11.5388 13.2257C11.5155 13.1474 11.4961 13.068 11.4804 12.9877C11.4648 12.9074 11.453 12.8265 11.4451 12.745C11.4373 12.6636 11.4333 12.5819 11.4333 12.5L11.4333 9.16667L9.8 9.16667L9.8 13.3333L9.8 13.3333ZM2.45 13.3333L8.16667 13.3333L8.16667 8.33333L2.45 8.33333L2.45 13.3333L2.45 13.3333ZM2.45 1.66667L2.45 6.66667L8.16667 6.66667L8.16667 1.66667L2.45 1.66667Z" fill="rgb(58,58,63)" fill-rule="nonzero" />
</svg>
