<svg viewBox="0 0 21.5217 21.5217" xmlns="http://www.w3.org/2000/svg" xmlns:xlink="http://www.w3.org/1999/xlink" width="21.5217285" height="21.5217285" fill="none" customFrame="#000000">
	<g id="组合 3218">
		<path id="矢量 103" d="M14.6177 6.42963C15.157 6.98797 15.157 7.88976 14.6177 8.4481L8.21638 14.9944C7.95548 15.2632 7.6014 15.4142 7.23218 15.4142C6.86296 15.4142 6.50893 15.2632 6.24798 14.9944L0 8.5719L0.707107 0.707107L8.36969 0L11.4937 3.21482" stroke="rgb(58,58,63)" stroke-linecap="round" stroke-linejoin="round" stroke-width="1.5" transform="matrix(0.707107,0.707107,-0.707107,0.707107,10.8994,0)" />
		<path id="矢量 104" d="M0.966038 1.98825C1.49956 1.98825 1.93208 1.54316 1.93208 0.994123C1.93208 0.445089 1.49956 0 0.966038 0C0.432515 0 0 0.445089 0 0.994123C0 1.54316 0.432515 1.98825 0.966038 1.98825Z" fill="rgb(58,58,63)" fill-rule="evenodd" transform="matrix(0.707107,0.707107,-0.707107,0.707107,10.8359,5.4353)" />
	</g>
</svg>
