<svg viewBox="0 0 118.063 87.0859" xmlns="http://www.w3.org/2000/svg" xmlns:xlink="http://www.w3.org/1999/xlink" width="118.063232" height="87.0859375" fill="none" customFrame="#000000">
	<defs>
		<linearGradient id="paint_linear_0" x1="21.4751644" x2="21.4751644" y1="0.945084691" y2="86.9477768" gradientUnits="userSpaceOnUse">
			<stop stop-color="rgb(164,131,253)" offset="0" stop-opacity="0.100000001" />
			<stop stop-color="rgb(137,94,255)" offset="1" stop-opacity="0.25" />
		</linearGradient>
		<linearGradient id="paint_linear_1" x1="23.209425" x2="23.209425" y1="0.945396781" y2="86.9764862" gradientUnits="userSpaceOnUse">
			<stop stop-color="rgb(164,131,253)" offset="0" stop-opacity="0.100000001" />
			<stop stop-color="rgb(137,94,255)" offset="1" stop-opacity="0.25" />
		</linearGradient>
		<linearGradient id="paint_linear_2" x1="8.40426731" x2="8.40426731" y1="0.944055259" y2="86.8530655" gradientUnits="userSpaceOnUse">
			<stop stop-color="rgb(164,131,253)" offset="0" stop-opacity="0.100000001" />
			<stop stop-color="rgb(137,94,255)" offset="1" stop-opacity="0.25" />
		</linearGradient>
	</defs>
	<g id="组合 3255">
		<path id="矢量 118" d="M42.4595 16.2543C42.2698 14.0756 41.7337 11.975 40.9191 9.94236C39.8819 7.35421 38.3311 5.14256 36.0937 3.45348C32.8603 1.01552 29.0969 0.0917692 25.1499 0.0485649C16.955 -0.0419585 8.75999 0.0218193 0.562966 0.0218193C0.381498 0.0218193 0.197967 0.0218193 0 0.0218193C0 29.016 0 57.9465 0 86.9428C0.255705 86.9428 0.459859 86.9428 0.664011 86.9428C8.51666 86.9428 16.3672 86.9592 24.2199 86.9325C26.6017 86.9242 28.9463 86.5478 31.2167 85.805C33.7367 84.98 35.9164 83.5996 37.6486 81.5916C39.0653 79.9498 40.053 78.0406 40.814 76.0162C42.3894 71.8254 42.9524 67.4494 42.9503 63.024C42.9462 49.0546 42.8452 35.0852 42.7565 21.1138C42.7462 19.4926 42.5998 17.8714 42.4595 16.2543ZM25.3293 66.8219C25.3273 67.6057 25.1685 68.4225 24.9148 69.1652C24.4055 70.6568 23.162 71.3398 21.6958 71.4756C20.3369 71.6032 18.9573 71.5024 17.5262 71.5024C17.5262 52.7579 17.5262 34.0092 17.5262 15.1763C18.0788 15.1763 18.6232 15.1475 19.1635 15.1824C20.1863 15.2483 21.2174 15.2832 22.2258 15.4519C23.9188 15.7359 24.7746 16.6123 25.0221 18.3117C25.1932 19.4905 25.3314 20.69 25.3334 21.8791C25.3541 36.8607 25.3541 51.8423 25.3293 66.8219Z" opacity="0.870000005" fill="url(#paint_linear_0)" fill-rule="nonzero" transform="matrix(1,0.000727309,-0.000727309,1,24.0479,0.0703125)" />
		<path id="矢量 119" d="M45.3383 81.6048C44.6681 78.2945 43.9958 74.9821 43.3256 71.6719C42.6843 68.5097 42.045 65.3476 41.4037 62.1854C40.7377 58.8916 40.0736 55.5957 39.4076 52.2999C38.7683 49.1377 38.1208 45.9756 37.4918 42.8114C37.3434 42.0646 37.0691 41.2766 37.1763 40.5565C37.5537 38.0363 38.0754 35.5386 38.5373 33.0328C38.9663 30.71 39.3931 28.3873 39.8179 26.0646C40.2799 23.5402 40.7315 21.0158 41.1954 18.4935C41.6924 15.786 42.2018 13.0827 42.7029 10.3773C43.2122 7.62042 43.7174 4.86357 44.2227 2.10672C44.3485 1.4134 44.4619 0.715957 44.5835 0.002057C38.8343 0.002057 33.1551 0.002057 27.4677 0.002057C26.1604 9.89791 24.855 19.767 23.5517 29.6361C23.5208 29.632 23.4899 29.6258 23.4569 29.6217C21.9536 19.7526 20.4503 9.8835 18.9429 0C13.2555 0 7.59694 0 1.91986 0C2.26011 1.92156 2.58799 3.81433 2.9303 5.70297C3.46646 8.64498 4.01705 11.5829 4.55115 14.5249C5.05843 17.3167 5.55541 20.1106 6.05857 22.9024C6.55555 25.6613 7.04634 28.4223 7.54951 31.1812C8.05061 33.9401 8.56614 36.6949 9.06518 39.4538C9.1621 39.9866 9.32295 40.5421 9.25903 41.0647C9.12911 42.1057 8.86309 43.1303 8.65275 44.1631C7.93925 47.6729 7.22575 51.1827 6.51638 54.6946C5.8503 57.9884 5.18835 61.2864 4.52228 64.5802C3.8129 68.09 3.10352 71.6019 2.39002 75.1117C1.71776 78.422 1.03932 81.7323 0.367061 85.0426C0.237145 85.6783 0.12373 86.3181 0 86.9765C5.95754 86.9765 11.8285 86.9765 17.7262 86.9765C19.5697 75.7413 21.4112 64.5205 23.2507 53.2997C23.2857 53.2977 23.3187 53.2977 23.3538 53.2956C25.1643 64.5287 26.9749 75.7619 28.7813 86.9724C34.7141 86.9724 40.5521 86.9724 46.4189 86.9724C46.0559 85.1619 45.6992 83.3844 45.3383 81.6048Z" opacity="0.870000005" fill="url(#paint_linear_1)" fill-rule="nonzero" transform="matrix(1,0.000727309,-0.000727309,1,71.6443,0.0527344)" />
		<path id="矢量 120" d="M0 86.8531C5.62965 86.8531 11.2201 86.8531 16.8085 86.8531C16.8085 57.8815 16.8085 28.9531 16.8085 0C11.1995 0 5.62141 0 0 0C0 28.9839 0 57.9247 0 86.8531Z" opacity="0.870000005" fill="url(#paint_linear_2)" fill-rule="nonzero" transform="matrix(1,0.000727309,-0.000727309,1,0.0632324,0.0986328)" />
	</g>
</svg>
