<svg viewBox="0 0 237 94.999" xmlns="http://www.w3.org/2000/svg" xmlns:xlink="http://www.w3.org/1999/xlink" width="237" height="94.9990234" fill="none" customFrame="#000000">
	<defs>
		<g id="pixso_custom_effect_0">
			<effect x="0" y="4" visibility="visible" fill="rgb(124,91,214)" fill-opacity="0.230000004" effectType="dropShadow" stdDeviation="4" radius="0" />
		</g>
		<filter id="filter_0" width="237" height="94.9990234" x="0" y="0" filterUnits="userSpaceOnUse" customEffect="url(#pixso_custom_effect_0)" color-interpolation-filters="sRGB">
			<feFlood flood-opacity="0" result="BackgroundImageFix" />
			<feColorMatrix result="hardAlpha" in="SourceAlpha" type="matrix" values="0 0 0 0 0 0 0 0 0 0 0 0 0 0 0 0 0 0 127 0 " />
			<feOffset dx="0" dy="4" />
			<feGaussianBlur stdDeviation="1.33333337" />
			<feComposite k2="-1" k3="1" in2="hardAlpha" operator="out" />
			<feColorMatrix type="matrix" values="0 0 0 0 0.486275 0 0 0 0 0.356863 0 0 0 0 0.839216 0 0 0 0.23 0 " />
			<feBlend result="effect_dropShadow_1" in2="BackgroundImageFix" mode="normal" />
			<feBlend result="shape" in="SourceGraphic" in2="effect_dropShadow_1" mode="normal" />
		</filter>
		<linearGradient id="paint_linear_0" x1="49.4600296" x2="49.4600296" y1="0.997819066" y2="87.0005112" gradientUnits="userSpaceOnUse">
			<stop stop-color="rgb(164,131,253)" offset="0" stop-opacity="1" />
			<stop stop-color="rgb(80,40,188)" offset="1" stop-opacity="1" />
		</linearGradient>
		<linearGradient id="paint_linear_1" x1="98.7906036" x2="98.7906036" y1="0.945396781" y2="86.9764862" gradientUnits="userSpaceOnUse">
			<stop stop-color="rgb(164,131,253)" offset="0" stop-opacity="1" />
			<stop stop-color="rgb(80,40,188)" offset="1" stop-opacity="1" />
		</linearGradient>
		<linearGradient id="paint_linear_2" x1="12.4042673" x2="12.4042673" y1="1.04268813" y2="86.9516983" gradientUnits="userSpaceOnUse">
			<stop stop-color="rgb(164,131,253)" offset="0" stop-opacity="1" />
			<stop stop-color="rgb(80,40,188)" offset="1" stop-opacity="1" />
		</linearGradient>
	</defs>
	<g id="001 idx logo" filter="url(#filter_0)">
		<g id="组合 3255">
			<path id="矢量 118" d="M70.4444 16.307C70.2547 14.1283 69.7185 12.0278 68.904 9.99509C67.8667 7.40695 66.316 5.1953 64.0786 3.50621C60.8451 1.06825 57.0817 0.144504 53.1348 0.101299C44.9398 0.0107759 36.7449 0.0745537 28.5478 0.0745537C28.3664 0.0745537 28.1828 0.0745537 27.9849 0.0745537C27.9849 29.0688 27.9849 57.9992 27.9849 86.9955C28.2406 86.9955 28.4447 86.9955 28.6489 86.9955C36.5015 86.9955 44.3521 87.0119 52.2048 86.9852C54.5865 86.977 56.9312 86.6005 59.2016 85.8578C61.7215 85.0328 63.9012 83.6523 65.6334 81.6443C67.0501 80.0026 68.0379 78.0933 68.7988 76.0689C70.3743 71.8781 70.9373 67.5021 70.9352 63.0767C70.9311 49.1073 70.83 35.1379 70.7414 21.1665C70.731 19.5453 70.5846 17.9241 70.4444 16.307ZM53.3142 66.8746C53.3121 67.6585 53.1533 68.4752 52.8997 69.2179C52.3903 70.7095 51.1469 71.3926 49.6807 71.5284C48.3217 71.6559 46.9422 71.5551 45.511 71.5551C45.511 52.8106 45.511 34.062 45.511 15.229C46.0637 15.229 46.6081 15.2002 47.1484 15.2352C48.1712 15.301 49.2023 15.336 50.2107 15.5047C51.9037 15.7886 52.7595 16.665 53.0069 18.3644C53.1781 19.5433 53.3162 20.7427 53.3183 21.9318C53.3389 36.9134 53.3389 51.8951 53.3142 66.8746Z" opacity="0.870000005" fill="url(#paint_linear_0)" fill-rule="nonzero" />
			<path id="矢量 119" d="M120.919 81.6048C120.249 78.2945 119.577 74.9821 118.907 71.6719C118.265 68.5097 117.626 65.3476 116.985 62.1854C116.319 58.8916 115.655 55.5957 114.989 52.2999C114.349 49.1377 113.702 45.9756 113.073 42.8114C112.925 42.0646 112.65 41.2766 112.758 40.5565C113.135 38.0363 113.657 35.5386 114.119 33.0328C114.547 30.71 114.974 28.3873 115.399 26.0646C115.861 23.5402 116.313 21.0158 116.777 18.4935C117.274 15.786 117.783 13.0827 118.284 10.3773C118.793 7.62042 119.299 4.86357 119.804 2.10672C119.93 1.4134 120.043 0.715957 120.165 0.002057C114.415 0.002057 108.736 0.002057 103.049 0.002057C101.742 9.89791 100.436 19.767 99.1329 29.6361C99.102 29.632 99.0711 29.6258 99.0381 29.6217C97.5348 19.7526 96.0315 9.8835 94.524 0C88.8366 0 83.1781 0 77.501 0C77.8413 1.92156 78.1692 3.81433 78.5115 5.70297C79.0476 8.64498 79.5982 11.5829 80.1323 14.5249C80.6396 17.3167 81.1366 20.1106 81.6397 22.9024C82.1367 25.6613 82.6275 28.4223 83.1307 31.1812C83.6318 33.9401 84.1473 36.6949 84.6464 39.4538C84.7433 39.9866 84.9041 40.5421 84.8402 41.0647C84.7103 42.1057 84.4443 43.1303 84.2339 44.1631C83.5204 47.6729 82.8069 51.1827 82.0975 54.6946C81.4315 57.9884 80.7695 61.2864 80.1035 64.5802C79.3941 68.09 78.6847 71.6019 77.9712 75.1117C77.2989 78.422 76.6205 81.7323 75.9482 85.0426C75.8183 85.6783 75.7049 86.3181 75.5812 86.9765C81.5387 86.9765 87.4096 86.9765 93.3074 86.9765C95.1509 75.7413 96.9924 64.5205 98.8318 53.2997C98.8669 53.2977 98.8999 53.2977 98.935 53.2956C100.746 64.5287 102.556 75.7619 104.363 86.9724C110.295 86.9724 116.133 86.9724 122 86.9724C121.637 85.1619 121.28 83.3844 120.919 81.6048Z" opacity="0.870000005" fill="url(#paint_linear_1)" fill-rule="nonzero" />
			<path id="矢量 120" d="M4 86.9517C9.62965 86.9517 15.2201 86.9517 20.8085 86.9517C20.8085 57.9801 20.8085 29.0517 20.8085 0.0986328C15.1995 0.0986328 9.62141 0.0986328 4 0.0986328C4 29.0826 4 58.0233 4 86.9517Z" opacity="0.870000005" fill="url(#paint_linear_2)" fill-rule="nonzero" />
		</g>
		<path id="" d="M140.291 22.5L135.313 7.92407L137.876 7.92407L141.762 20.0032L141.885 20.0032L145.859 7.92407L148.274 7.92407L143.234 22.5L140.291 22.5ZM150.161 7.99072C150.161 7.625 150.199 7.35498 150.274 7.18066C150.352 7.00635 150.482 6.89185 150.663 6.83716C150.848 6.77905 151.121 6.75 151.484 6.75C151.849 6.75 152.119 6.77905 152.294 6.83716C152.468 6.89185 152.593 7.00635 152.668 7.18066C152.747 7.35498 152.786 7.625 152.786 7.99072C152.786 8.52051 152.699 8.86743 152.525 9.03149C152.35 9.19214 152.003 9.27246 151.484 9.27246C151.121 9.27246 150.848 9.2417 150.663 9.18018C150.482 9.11523 150.352 8.99561 150.274 8.82129C150.199 8.64355 150.161 8.3667 150.161 7.99072ZM150.33 22.5L150.33 11.1592L152.596 11.1592L152.596 22.5L150.33 22.5ZM162.109 10.949L162.027 12.9895L161.776 12.9895C159.94 12.9895 158.812 13.8149 158.392 15.4658L158.392 22.5L156.126 22.5L156.126 11.1592L158.392 11.1592L158.392 13.1946C158.716 12.3435 159.18 11.7573 159.781 11.436C160.383 11.1113 161.082 10.949 161.878 10.949L162.109 10.949ZM169.712 20.6953L169.712 22.5205C169.224 22.5923 168.776 22.6282 168.369 22.6282C167.46 22.6282 166.753 22.5273 166.247 22.3257C165.744 22.1206 165.38 21.76 165.155 21.2439C164.932 20.7244 164.821 19.9673 164.821 18.9727L164.821 12.9895L163.201 12.9895L163.201 11.1592L164.821 11.1592L164.821 8.47266L167.087 8.47266L167.087 11.1592L169.712 11.1592L169.712 12.9895L167.087 12.9895L167.087 18.8035C167.087 19.364 167.125 19.781 167.2 20.0544C167.279 20.3279 167.422 20.521 167.631 20.6338C167.843 20.7432 168.166 20.7979 168.6 20.7979C169.048 20.7979 169.419 20.7637 169.712 20.6953ZM181.387 11.1592L181.387 22.5L179.413 22.5L179.183 20.967C178.608 22.1292 177.426 22.7102 175.635 22.7102C174.25 22.7102 173.271 22.3923 172.697 21.7566C172.123 21.1174 171.836 20.1895 171.836 18.9727L171.836 11.1592L174.102 11.1592L174.102 18.26C174.102 19.1418 174.245 19.7861 174.532 20.1929C174.82 20.5962 175.361 20.7979 176.158 20.7979C176.916 20.7979 177.54 20.6577 178.029 20.3774C178.518 20.0972 178.889 19.5657 179.142 18.783L179.142 11.1592L181.387 11.1592ZM194.264 14.5225L194.264 22.5L192.29 22.5L192.013 20.926C191.719 21.4729 191.218 21.907 190.511 22.2283C189.807 22.5496 189.014 22.7102 188.132 22.7102C185.527 22.7102 184.225 21.5754 184.225 19.3059C184.225 18.0208 184.61 17.0979 185.379 16.5374C186.148 15.9768 187.282 15.6965 188.783 15.6965L192.013 15.6965L192.013 14.9839C192.013 14.2422 191.827 13.7004 191.454 13.3586C191.085 13.0134 190.382 12.8408 189.347 12.8408C188.506 12.8408 187.687 12.9246 186.891 13.092L186.891 11.1387C187.732 11.0122 188.614 10.949 189.537 10.949C191.273 10.949 192.495 11.2549 193.202 11.8667C193.91 12.4751 194.264 13.3604 194.264 14.5225ZM192.013 19.0342L192.013 17.3782L189.034 17.3782C188.108 17.3782 187.452 17.5081 187.065 17.7678C186.683 18.0242 186.491 18.5164 186.491 19.2444C186.491 19.8049 186.652 20.2219 186.973 20.4954C187.298 20.7688 187.809 20.9055 188.506 20.9055C189.361 20.9055 190.092 20.7415 190.7 20.4133C191.312 20.0818 191.75 19.6221 192.013 19.0342ZM197.832 20.0237L197.832 6.53979L200.077 6.53979L200.077 19.4546C200.077 19.9878 200.154 20.345 200.308 20.5261C200.462 20.7073 200.728 20.7979 201.108 20.7979C201.388 20.7979 201.639 20.7637 201.861 20.6953L201.861 22.5C201.513 22.5854 201.108 22.6282 200.646 22.6282C199.652 22.6282 198.934 22.4214 198.493 22.0078C198.052 21.5942 197.832 20.9329 197.832 20.0237ZM139.178 49.3979L145.649 49.3979L145.649 51.5L136.825 51.5L136.825 36.9241L145.208 36.9241L145.208 39.0056L139.178 39.0056L139.178 42.9739L144.787 42.9739L144.787 44.9478L139.178 44.9478L139.178 49.3979ZM147.851 45.8296C147.851 44.3462 148.058 43.1738 148.471 42.3125C148.885 41.4512 149.483 40.8428 150.266 40.4873C151.052 40.1284 152.04 39.949 153.229 39.949C153.79 39.949 154.332 39.9883 154.854 40.0669C155.381 40.1421 155.825 40.2361 156.187 40.3489L156.187 42.3228C155.306 42.0151 154.376 41.8613 153.398 41.8613C152.599 41.8613 151.971 41.981 151.517 42.2202C151.062 42.4561 150.729 42.8611 150.517 43.4353C150.309 44.0095 150.204 44.8145 150.204 45.8501C150.204 46.8721 150.309 47.6633 150.517 48.2239C150.729 48.7844 151.062 49.1843 151.517 49.4236C151.971 49.6594 152.605 49.7773 153.419 49.7773C154.55 49.7773 155.495 49.6235 156.254 49.3159L156.254 51.2898C155.916 51.4026 155.459 51.5 154.885 51.582C154.311 51.6675 153.759 51.7102 153.229 51.7102C152.04 51.7102 151.052 51.5325 150.266 51.177C149.483 50.8181 148.885 50.208 148.471 49.3467C148.058 48.4854 147.851 47.313 147.851 45.8296ZM158.309 45.8296C158.309 44.3462 158.516 43.1738 158.929 42.3125C159.343 41.4512 159.938 40.8428 160.714 40.4873C161.493 40.1284 162.477 39.949 163.667 39.949C164.87 39.949 165.859 40.1284 166.635 40.4873C167.415 40.8428 168.006 41.4512 168.409 42.3125C168.816 43.1738 169.019 44.3462 169.019 45.8296C169.019 47.313 168.816 48.4854 168.409 49.3467C168.006 50.208 167.415 50.8181 166.635 51.177C165.859 51.5325 164.87 51.7102 163.667 51.7102C162.477 51.7102 161.493 51.5325 160.714 51.177C159.938 50.8181 159.343 50.208 158.929 49.3467C158.516 48.4854 158.309 47.313 158.309 45.8296ZM166.666 45.8296C166.666 44.7803 166.572 43.9617 166.384 43.3738C166.196 42.7859 165.888 42.3655 165.461 42.1125C165.034 41.8596 164.436 41.7332 163.667 41.7332C162.894 41.7332 162.291 41.8596 161.857 42.1125C161.423 42.3655 161.115 42.7859 160.934 43.3738C160.753 43.9617 160.662 44.7803 160.662 45.8296C160.662 46.8789 160.756 47.6941 160.944 48.2751C161.136 48.8562 161.447 49.2732 161.877 49.5261C162.311 49.7791 162.908 49.9055 163.667 49.9055C164.449 49.9055 165.054 49.7791 165.482 49.5261C165.909 49.2732 166.213 48.8596 166.394 48.2854C166.575 47.7112 166.666 46.8926 166.666 45.8296ZM181.598 43.6865L181.598 51.5L179.332 51.5L179.332 44.4043C179.332 43.5054 179.192 42.8611 178.911 42.4714C178.631 42.0784 178.084 41.8818 177.271 41.8818C176.488 41.8818 175.84 42.022 175.328 42.3022C174.818 42.5825 174.444 43.114 174.205 43.8967L174.205 51.5L171.939 51.5L171.939 40.1592L174.205 40.1592L174.205 41.6716C174.516 41.0564 174.989 40.6155 175.625 40.3489C176.261 40.0823 176.985 39.949 177.799 39.949C179.183 39.949 180.162 40.2686 180.737 40.9077C181.311 41.5435 181.598 42.4697 181.598 43.6865ZM184.433 45.8296C184.433 44.3462 184.64 43.1738 185.053 42.3125C185.467 41.4512 186.062 40.8428 186.838 40.4873C187.617 40.1284 188.601 39.949 189.791 39.949C190.994 39.949 191.983 40.1284 192.759 40.4873C193.539 40.8428 194.13 41.4512 194.533 42.3125C194.94 43.1738 195.143 44.3462 195.143 45.8296C195.143 47.313 194.94 48.4854 194.533 49.3467C194.13 50.208 193.539 50.8181 192.759 51.177C191.983 51.5325 190.994 51.7102 189.791 51.7102C188.601 51.7102 187.617 51.5325 186.838 51.177C186.062 50.8181 185.467 50.208 185.053 49.3467C184.64 48.4854 184.433 47.313 184.433 45.8296ZM192.79 45.8296C192.79 44.7803 192.696 43.9617 192.508 43.3738C192.32 42.7859 192.012 42.3655 191.585 42.1125C191.158 41.8596 190.56 41.7332 189.791 41.7332C189.018 41.7332 188.415 41.8596 187.981 42.1125C187.547 42.3655 187.239 42.7859 187.058 43.3738C186.877 43.9617 186.786 44.7803 186.786 45.8296C186.786 46.8789 186.88 47.6941 187.068 48.2751C187.26 48.8562 187.571 49.2732 188.001 49.5261C188.436 49.7791 189.032 49.9055 189.791 49.9055C190.573 49.9055 191.178 49.7791 191.606 49.5261C192.033 49.2732 192.337 48.8596 192.518 48.2854C192.699 47.7112 192.79 46.8926 192.79 45.8296ZM214.125 43.7737L214.125 51.5L211.859 51.5L211.859 44.4043C211.859 43.5361 211.712 42.8987 211.418 42.4919C211.124 42.0852 210.607 41.8818 209.865 41.8818C209.164 41.8818 208.59 42.0186 208.142 42.292C207.695 42.5654 207.38 43.0525 207.199 43.7532L207.199 51.5L204.928 51.5L204.928 44.4043C204.928 43.5361 204.788 42.8987 204.507 42.4919C204.23 42.0852 203.728 41.8818 203 41.8818C202.286 41.8818 201.718 42.0117 201.298 42.2715C200.877 42.5312 200.554 43.0166 200.329 43.7275L200.329 51.5L198.063 51.5L198.063 40.1592L200.329 40.1592L200.329 41.5691C200.64 40.9812 201.064 40.5642 201.6 40.3181C202.14 40.072 202.795 39.949 203.564 39.949C205.246 39.949 206.338 40.5369 206.84 41.7126C207.428 40.5369 208.611 39.949 210.388 39.949C212.88 39.949 214.125 41.2239 214.125 43.7737ZM217.382 36.9907C217.382 36.625 217.42 36.355 217.495 36.1807C217.573 36.0063 217.703 35.8918 217.884 35.8372C218.069 35.7791 218.342 35.75 218.705 35.75C219.07 35.75 219.34 35.7791 219.515 35.8372C219.689 35.8918 219.814 36.0063 219.889 36.1807C219.968 36.355 220.007 36.625 220.007 36.9907C220.007 37.5205 219.92 37.8674 219.745 38.0315C219.571 38.1921 219.224 38.2725 218.705 38.2725C218.342 38.2725 218.069 38.2417 217.884 38.1802C217.703 38.1152 217.573 37.9956 217.495 37.8213C217.42 37.6436 217.382 37.3667 217.382 36.9907ZM217.551 51.5L217.551 40.1592L219.817 40.1592L219.817 51.5L217.551 51.5ZM222.716 45.8296C222.716 44.3462 222.923 43.1738 223.336 42.3125C223.75 41.4512 224.348 40.8428 225.131 40.4873C225.917 40.1284 226.905 39.949 228.094 39.949C228.655 39.949 229.197 39.9883 229.719 40.0669C230.246 40.1421 230.69 40.2361 231.052 40.3489L231.052 42.3228C230.171 42.0151 229.241 41.8613 228.263 41.8613C227.464 41.8613 226.836 41.981 226.382 42.2202C225.927 42.4561 225.594 42.8611 225.382 43.4353C225.174 44.0095 225.069 44.8145 225.069 45.8501C225.069 46.8721 225.174 47.6633 225.382 48.2239C225.594 48.7844 225.927 49.1843 226.382 49.4236C226.836 49.6594 227.47 49.7773 228.284 49.7773C229.415 49.7773 230.36 49.6235 231.119 49.3159L231.119 51.2898C230.781 51.4026 230.324 51.5 229.75 51.582C229.176 51.6675 228.624 51.7102 228.094 51.7102C226.905 51.7102 225.917 51.5325 225.131 51.177C224.348 50.8181 223.75 50.208 223.336 49.3467C222.923 48.4854 222.716 47.313 222.716 45.8296ZM141.193 65.9241C142.595 65.9241 143.694 66.0898 144.49 66.4214C145.29 66.7495 145.857 67.2571 146.192 67.9441C146.527 68.6277 146.695 69.5437 146.695 70.6921C146.695 71.8816 146.508 72.8335 146.136 73.5479C145.767 74.2622 145.179 74.7817 144.372 75.1064C143.569 75.4277 142.509 75.5884 141.193 75.5884L139.178 75.5884L139.178 80.5L136.825 80.5L136.825 65.9241L141.193 65.9241ZM140.942 73.635C141.81 73.635 142.479 73.5479 142.947 73.3735C143.418 73.1958 143.759 72.9019 143.967 72.4917C144.176 72.0781 144.28 71.4851 144.28 70.7126C144.28 69.9983 144.176 69.4395 143.967 69.0361C143.759 68.6294 143.412 68.3354 142.926 68.1543C142.444 67.9697 141.783 67.8774 140.942 67.8774L139.178 67.8774L139.178 73.635L140.942 73.635ZM149.574 78.0237L149.574 64.5398L151.819 64.5398L151.819 77.4546C151.819 77.9878 151.896 78.345 152.05 78.5261C152.204 78.7073 152.47 78.7979 152.85 78.7979C153.13 78.7979 153.381 78.7637 153.603 78.6953L153.603 80.5C153.255 80.5854 152.85 80.6282 152.388 80.6282C151.394 80.6282 150.676 80.4214 150.235 80.0078C149.794 79.5942 149.574 78.9329 149.574 78.0237ZM165.053 72.5225L165.053 80.5L163.079 80.5L162.802 78.926C162.508 79.4729 162.007 79.907 161.3 80.2283C160.596 80.5496 159.803 80.7102 158.921 80.7102C156.316 80.7102 155.014 79.5754 155.014 77.3059C155.014 76.0208 155.399 75.0979 156.168 74.5374C156.937 73.9768 158.071 73.6965 159.572 73.6965L162.802 73.6965L162.802 72.9839C162.802 72.2422 162.616 71.7004 162.243 71.3586C161.874 71.0134 161.171 70.8408 160.136 70.8408C159.295 70.8408 158.476 70.9246 157.68 71.092L157.68 69.1387C158.521 69.0122 159.403 68.949 160.326 68.949C162.062 68.949 163.284 69.2549 163.991 69.8667C164.699 70.4751 165.053 71.3604 165.053 72.5225ZM162.802 77.0342L162.802 75.3782L159.823 75.3782C158.897 75.3782 158.241 75.5081 157.854 75.7678C157.472 76.0242 157.28 76.5164 157.28 77.2444C157.28 77.8049 157.441 78.2219 157.762 78.4954C158.087 78.7688 158.598 78.9055 159.295 78.9055C160.15 78.9055 160.881 78.7415 161.489 78.4133C162.101 78.0818 162.539 77.6221 162.802 77.0342ZM173.66 78.6953L173.66 80.5205C173.172 80.5923 172.724 80.6282 172.317 80.6282C171.408 80.6282 170.701 80.5273 170.195 80.3257C169.692 80.1206 169.328 79.76 169.103 79.2439C168.88 78.7244 168.769 77.9673 168.769 76.9727L168.769 70.9895L167.149 70.9895L167.149 69.1592L168.769 69.1592L168.769 66.4727L171.035 66.4727L171.035 69.1592L173.66 69.1592L173.66 70.9895L171.035 70.9895L171.035 76.8035C171.035 77.364 171.073 77.781 171.148 78.0544C171.227 78.3279 171.37 78.521 171.579 78.6338C171.791 78.7432 172.114 78.7979 172.548 78.7979C172.996 78.7979 173.367 78.7637 173.66 78.6953ZM178.657 69.1592L181.159 69.1592L181.159 70.9639L178.657 70.9639L178.657 80.5L176.391 80.5L176.391 70.9639L174.545 70.9639L174.545 69.1592L176.391 69.1592L176.391 69.0566C176.391 67.7954 176.552 66.8333 176.873 66.1702C177.194 65.5037 177.642 65.0525 178.216 64.8167C178.79 64.5774 179.534 64.4578 180.447 64.4578C180.85 64.4578 181.275 64.4919 181.723 64.5603L181.723 66.283C181.402 66.2146 181.024 66.1804 180.59 66.1804C180.06 66.1804 179.659 66.2642 179.385 66.4316C179.112 66.5991 178.922 66.8931 178.816 67.3135C178.71 67.7339 178.657 68.3491 178.657 69.1592ZM182.417 74.8296C182.417 73.3462 182.624 72.1738 183.037 71.3125C183.451 70.4512 184.046 69.8428 184.822 69.4873C185.601 69.1284 186.585 68.949 187.775 68.949C188.978 68.949 189.967 69.1284 190.743 69.4873C191.523 69.8428 192.114 70.4512 192.517 71.3125C192.924 72.1738 193.127 73.3462 193.127 74.8296C193.127 76.313 192.924 77.4854 192.517 78.3467C192.114 79.208 191.523 79.8181 190.743 80.177C189.967 80.5325 188.978 80.7102 187.775 80.7102C186.585 80.7102 185.601 80.5325 184.822 80.177C184.046 79.8181 183.451 79.208 183.037 78.3467C182.624 77.4854 182.417 76.313 182.417 74.8296ZM190.774 74.8296C190.774 73.7803 190.68 72.9617 190.492 72.3738C190.304 71.7859 189.996 71.3655 189.569 71.1125C189.142 70.8596 188.544 70.7332 187.775 70.7332C187.002 70.7332 186.399 70.8596 185.965 71.1125C185.531 71.3655 185.223 71.7859 185.042 72.3738C184.861 72.9617 184.77 73.7803 184.77 74.8296C184.77 75.8789 184.864 76.6941 185.052 77.2751C185.244 77.8562 185.555 78.2732 185.985 78.5261C186.419 78.7791 187.016 78.9055 187.775 78.9055C188.557 78.9055 189.162 78.7791 189.59 78.5261C190.017 78.2732 190.321 77.8596 190.502 77.2854C190.683 76.7112 190.774 75.8926 190.774 74.8296ZM202.03 68.949L201.948 70.9895L201.697 70.9895C199.861 70.9895 198.733 71.8149 198.313 73.4658L198.313 80.5L196.047 80.5L196.047 69.1592L198.313 69.1592L198.313 71.1946C198.637 70.3435 199.101 69.7573 199.702 69.436C200.304 69.1113 201.003 68.949 201.799 68.949L202.03 68.949ZM220.236 72.7737L220.236 80.5L217.97 80.5L217.97 73.4043C217.97 72.5361 217.823 71.8987 217.529 71.4919C217.235 71.0852 216.718 70.8818 215.976 70.8818C215.275 70.8818 214.701 71.0186 214.253 71.292C213.806 71.5654 213.491 72.0525 213.31 72.7532L213.31 80.5L211.039 80.5L211.039 73.4043C211.039 72.5361 210.899 71.8987 210.618 71.4919C210.341 71.0852 209.839 70.8818 209.111 70.8818C208.397 70.8818 207.829 71.0117 207.409 71.2715C206.988 71.5312 206.665 72.0166 206.44 72.7275L206.44 80.5L204.174 80.5L204.174 69.1592L206.44 69.1592L206.44 70.5691C206.751 69.9812 207.175 69.5642 207.711 69.3181C208.251 69.072 208.906 68.949 209.675 68.949C211.357 68.949 212.449 69.5369 212.951 70.7126C213.539 69.5369 214.722 68.949 216.499 68.949C218.991 68.949 220.236 70.2239 220.236 72.7737Z" fill="rgb(132,100,220)" fill-rule="nonzero" />
	</g>
</svg>
