<svg viewBox="0 0 83 85" xmlns="http://www.w3.org/2000/svg" xmlns:xlink="http://www.w3.org/1999/xlink" width="83" height="85" fill="none" customFrame="#000000">
	<defs>
		<radialGradient id="paint_radial_0" cx="0" cy="0" r="1" gradientUnits="userSpaceOnUse" gradientTransform="matrix(-6.5,14,-14.5405,-6.75095,40.4999,12)">
			<stop stop-color="rgb(242,230,244)" offset="0" stop-opacity="1" />
			<stop stop-color="rgb(133,124,134)" offset="1" stop-opacity="1" />
		</radialGradient>
		<g id="pixso_custom_effect_0">
			<effect x="0" y="4" visibility="visible" fill="rgb(0,0,0)" fill-opacity="0.25" effectType="dropShadow" stdDeviation="4" radius="0" />
		</g>
		<filter id="filter_0" width="47.0253906" height="30.1445312" x="18" y="22.7109375" filterUnits="userSpaceOnUse" customEffect="url(#pixso_custom_effect_0)" color-interpolation-filters="sRGB">
			<feFlood flood-opacity="0" result="BackgroundImageFix" />
			<feColorMatrix result="hardAlpha" in="SourceAlpha" type="matrix" values="0 0 0 0 0 0 0 0 0 0 0 0 0 0 0 0 0 0 127 0 " />
			<feOffset dx="0" dy="4" />
			<feGaussianBlur stdDeviation="1.33333337" />
			<feComposite k2="-1" k3="1" in2="hardAlpha" operator="out" />
			<feColorMatrix type="matrix" values="0 0 0 0 0 0 0 0 0 0 0 0 0 0 0 0 0 0 0.25 0 " />
			<feBlend result="effect_dropShadow_1" in2="BackgroundImageFix" mode="normal" />
			<feBlend result="shape" in="SourceGraphic" in2="effect_dropShadow_1" mode="normal" />
		</filter>
		<linearGradient id="paint_linear_0" x1="41.5126839" x2="41.5126839" y1="22.7109375" y2="44.8559036" gradientUnits="userSpaceOnUse">
			<stop stop-color="rgb(237,167,137)" offset="0" stop-opacity="1" />
			<stop stop-color="rgb(225,142,105)" offset="1" stop-opacity="1" />
		</linearGradient>
		<linearGradient id="paint_linear_1" x1="59.9005127" x2="24.1081505" y1="20.1625271" y2="20.1625271" gradientUnits="userSpaceOnUse">
			<stop stop-color="rgb(60,56,60)" offset="0" stop-opacity="1" />
			<stop stop-color="rgb(99,90,101)" offset="0.50210917" stop-opacity="1" />
			<stop stop-color="rgb(121,115,122)" offset="1" stop-opacity="1" />
		</linearGradient>
		<g id="pixso_custom_effect_1">
			<effect x="0" y="1" visibility="visible" fill="rgb(0,0,0)" fill-opacity="0.25" effectType="dropShadow" stdDeviation="2" radius="0" />
			<effect x="0" y="0.400000006" visibility="visible" fill="rgb(255,255,255)" fill-opacity="0.25" effectType="innerShadow" stdDeviation="0" radius="0" />
			<effect x="0" y="0.699999988" visibility="visible" fill="rgb(0,0,0)" fill-opacity="0.25" effectType="dropShadow" stdDeviation="0.5" radius="0" />
		</g>
		<filter id="filter_1" width="48.8815918" height="8" x="17.0617676" y="20" filterUnits="userSpaceOnUse" customEffect="url(#pixso_custom_effect_1)" color-interpolation-filters="sRGB">
			<feFlood flood-opacity="0" result="BackgroundImageFix" />
			<feColorMatrix result="hardAlpha" in="SourceAlpha" type="matrix" values="0 0 0 0 0 0 0 0 0 0 0 0 0 0 0 0 0 0 127 0 " />
			<feOffset dx="0" dy="1" />
			<feGaussianBlur stdDeviation="0.666666687" />
			<feComposite k2="-1" k3="1" in2="hardAlpha" operator="out" />
			<feColorMatrix type="matrix" values="0 0 0 0 0 0 0 0 0 0 0 0 0 0 0 0 0 0 0.25 0 " />
			<feBlend result="effect_dropShadow_1" in2="BackgroundImageFix" mode="normal" />
			<feColorMatrix result="hardAlpha" in="SourceAlpha" type="matrix" values="0 0 0 0 0 0 0 0 0 0 0 0 0 0 0 0 0 0 127 0 " />
			<feOffset dx="0" dy="0.699999988" />
			<feGaussianBlur stdDeviation="0.166666672" />
			<feComposite k2="-1" k3="1" in2="hardAlpha" operator="out" />
			<feColorMatrix type="matrix" values="0 0 0 0 0 0 0 0 0 0 0 0 0 0 0 0 0 0 0.25 0 " />
			<feBlend result="effect_dropShadow_2" in2="effect_dropShadow_1" mode="normal" />
			<feBlend result="shape" in="SourceGraphic" in2="effect_dropShadow_2" mode="normal" />
			<feColorMatrix result="hardAlpha" in="SourceAlpha" type="matrix" values="0 0 0 0 0 0 0 0 0 0 0 0 0 0 0 0 0 0 127 0 " />
			<feOffset dx="0" dy="0.400000006" />
			<feGaussianBlur stdDeviation="0" />
			<feComposite k2="-1" k3="1" in2="hardAlpha" operator="arithmetic" />
			<feColorMatrix type="matrix" values="0 0 0 0 1 0 0 0 0 1 0 0 0 0 1 0 0 0 0.25 0 " />
			<feBlend result="effect_innerShadow_3" in2="shape" mode="normal" />
		</filter>
		<linearGradient id="paint_linear_2" x1="36" x2="41.5000038" y1="14.5000019" y2="31.5000019" gradientUnits="userSpaceOnUse">
			<stop stop-color="rgb(184,173,187)" offset="0" stop-opacity="1" />
			<stop stop-color="rgb(215,212,212)" offset="0.204243019" stop-opacity="1" />
			<stop stop-color="rgb(166,156.5,168)" offset="0.540883362" stop-opacity="1" />
			<stop stop-color="rgb(139,130,140)" offset="0.753333509" stop-opacity="1" />
			<stop stop-color="rgb(165,154,166)" offset="1" stop-opacity="1" />
		</linearGradient>
		<g id="pixso_custom_effect_2">
			<effect x="0" y="2" visibility="visible" fill="rgb(0,0,0)" fill-opacity="0.25" effectType="dropShadow" stdDeviation="2" radius="0" />
		</g>
		<filter id="filter_2" width="46.421875" height="7.91796875" x="19" y="45.1875" filterUnits="userSpaceOnUse" customEffect="url(#pixso_custom_effect_2)" color-interpolation-filters="sRGB">
			<feFlood flood-opacity="0" result="BackgroundImageFix" />
			<feColorMatrix result="hardAlpha" in="SourceAlpha" type="matrix" values="0 0 0 0 0 0 0 0 0 0 0 0 0 0 0 0 0 0 127 0 " />
			<feOffset dx="0" dy="2" />
			<feGaussianBlur stdDeviation="0.666666687" />
			<feComposite k2="-1" k3="1" in2="hardAlpha" operator="out" />
			<feColorMatrix type="matrix" values="0 0 0 0 0 0 0 0 0 0 0 0 0 0 0 0 0 0 0.25 0 " />
			<feBlend result="effect_dropShadow_1" in2="BackgroundImageFix" mode="normal" />
			<feBlend result="shape" in="SourceGraphic" in2="effect_dropShadow_1" mode="normal" />
		</filter>
		<g id="pixso_custom_effect_3">
			<effect x="0" y="0.300000012" visibility="visible" fill="rgb(255,255,255)" fill-opacity="0.25" effectType="innerShadow" stdDeviation="0" radius="0" />
		</g>
		<filter id="filter_3" width="3.98657227" height="3" x="59.4353027" y="45.71875" filterUnits="userSpaceOnUse" customEffect="url(#pixso_custom_effect_3)" color-interpolation-filters="sRGB">
			<feFlood flood-opacity="0" result="BackgroundImageFix" />
			<feBlend result="shape" in="SourceGraphic" in2="BackgroundImageFix" mode="normal" />
			<feColorMatrix result="hardAlpha" in="SourceAlpha" type="matrix" values="0 0 0 0 0 0 0 0 0 0 0 0 0 0 0 0 0 0 127 0 " />
			<feOffset dx="0" dy="0.300000012" />
			<feGaussianBlur stdDeviation="0" />
			<feComposite k2="-1" k3="1" in2="hardAlpha" operator="arithmetic" />
			<feColorMatrix type="matrix" values="0 0 0 0 1 0 0 0 0 1 0 0 0 0 1 0 0 0 0.25 0 " />
			<feBlend result="effect_innerShadow_1" in2="shape" mode="normal" />
		</filter>
		<linearGradient id="paint_linear_3" x1="1.4791553" x2="2.91196108" y1="-0.157612085" y2="2.54517984" gradientUnits="userSpaceOnUse">
			<stop stop-color="rgb(141,136,142)" offset="0" stop-opacity="1" />
			<stop stop-color="rgb(111,106,112)" offset="1" stop-opacity="1" />
		</linearGradient>
		<g id="pixso_custom_effect_4">
			<effect x="0" y="0.300000012" visibility="visible" fill="rgb(255,255,255)" fill-opacity="0.25" effectType="innerShadow" stdDeviation="0" radius="0" />
		</g>
		<filter id="filter_4" width="3.98657227" height="3" x="21" y="45.71875" filterUnits="userSpaceOnUse" customEffect="url(#pixso_custom_effect_4)" color-interpolation-filters="sRGB">
			<feFlood flood-opacity="0" result="BackgroundImageFix" />
			<feBlend result="shape" in="SourceGraphic" in2="BackgroundImageFix" mode="normal" />
			<feColorMatrix result="hardAlpha" in="SourceAlpha" type="matrix" values="0 0 0 0 0 0 0 0 0 0 0 0 0 0 0 0 0 0 127 0 " />
			<feOffset dx="0" dy="0.300000012" />
			<feGaussianBlur stdDeviation="0" />
			<feComposite k2="-1" k3="1" in2="hardAlpha" operator="arithmetic" />
			<feColorMatrix type="matrix" values="0 0 0 0 1 0 0 0 0 1 0 0 0 0 1 0 0 0 0.25 0 " />
			<feBlend result="effect_innerShadow_1" in2="shape" mode="normal" />
		</filter>
		<linearGradient id="paint_linear_4" x1="22.4791546" x2="23.9119606" y1="45.5611382" y2="48.2639313" gradientUnits="userSpaceOnUse">
			<stop stop-color="rgb(141,136,142)" offset="0" stop-opacity="1" />
			<stop stop-color="rgb(111,106,112)" offset="1" stop-opacity="1" />
		</linearGradient>
		<linearGradient id="paint_linear_5" x1="42.4346619" x2="42.4346619" y1="45.1933594" y2="49.1059494" gradientUnits="userSpaceOnUse">
			<stop stop-color="rgb(106,98,106)" offset="0" stop-opacity="1" />
			<stop stop-color="rgb(213,200,213)" offset="0.316455185" stop-opacity="1" />
			<stop stop-color="rgb(89,81,89)" offset="0.691982567" stop-opacity="1" />
			<stop stop-color="rgb(142,129,142)" offset="1" stop-opacity="1" />
		</linearGradient>
		<linearGradient id="paint_linear_6" x1="42.003727" x2="42.003727" y1="45.1875" y2="49.096302" gradientUnits="userSpaceOnUse">
			<stop stop-color="rgb(161,153,167)" offset="0.113924049" stop-opacity="1" />
			<stop stop-color="rgb(255,255,255)" offset="0.329113424" stop-opacity="1" />
			<stop stop-color="rgb(96,90,100)" offset="0.691982567" stop-opacity="1" />
			<stop stop-color="rgb(146,140,150)" offset="1" stop-opacity="1" />
		</linearGradient>
		<linearGradient id="paint_linear_7" x1="33.5" x2="33.5" y1="42" y2="53" gradientUnits="userSpaceOnUse">
			<stop stop-color="rgb(75,74,77)" offset="0" stop-opacity="1" />
			<stop stop-color="rgb(39,39,41)" offset="1" stop-opacity="1" />
		</linearGradient>
		<linearGradient id="paint_linear_8" x1="33.5" x2="33.5" y1="42.5" y2="52.5" gradientUnits="userSpaceOnUse">
			<stop stop-color="rgb(94,93,99)" offset="0" stop-opacity="1" />
			<stop stop-color="rgb(55,54,59)" offset="1" stop-opacity="1" />
		</linearGradient>
		<g id="pixso_custom_effect_5">
			<effect x="0" y="0.300000012" visibility="visible" fill="rgb(255,255,255)" fill-opacity="0.25" effectType="innerShadow" stdDeviation="0" radius="0" />
		</g>
		<filter id="filter_5" width="4" height="4" x="31.5" y="45.5" filterUnits="userSpaceOnUse" customEffect="url(#pixso_custom_effect_5)" color-interpolation-filters="sRGB">
			<feFlood flood-opacity="0" result="BackgroundImageFix" />
			<feBlend result="shape" in="SourceGraphic" in2="BackgroundImageFix" mode="normal" />
			<feColorMatrix result="hardAlpha" in="SourceAlpha" type="matrix" values="0 0 0 0 0 0 0 0 0 0 0 0 0 0 0 0 0 0 127 0 " />
			<feOffset dx="0" dy="0.300000012" />
			<feGaussianBlur stdDeviation="0" />
			<feComposite k2="-1" k3="1" in2="hardAlpha" operator="arithmetic" />
			<feColorMatrix type="matrix" values="0 0 0 0 1 0 0 0 0 1 0 0 0 0 1 0 0 0 0.25 0 " />
			<feBlend result="effect_innerShadow_1" in2="shape" mode="normal" />
		</filter>
		<linearGradient id="paint_linear_9" x1="33.5" x2="33.5" y1="45.5" y2="49.5" gradientUnits="userSpaceOnUse">
			<stop stop-color="rgb(200,197,211)" offset="0" stop-opacity="1" />
			<stop stop-color="rgb(173,170,184)" offset="1" stop-opacity="1" />
		</linearGradient>
		<linearGradient id="paint_linear_10" x1="50.5" x2="50.5" y1="42" y2="53" gradientUnits="userSpaceOnUse">
			<stop stop-color="rgb(75,74,77)" offset="0" stop-opacity="1" />
			<stop stop-color="rgb(39,39,41)" offset="1" stop-opacity="1" />
		</linearGradient>
		<linearGradient id="paint_linear_11" x1="50.5" x2="50.5" y1="42.5" y2="52.5" gradientUnits="userSpaceOnUse">
			<stop stop-color="rgb(94,93,99)" offset="0" stop-opacity="1" />
			<stop stop-color="rgb(55,54,59)" offset="1" stop-opacity="1" />
		</linearGradient>
		<g id="pixso_custom_effect_6">
			<effect x="0" y="0.300000012" visibility="visible" fill="rgb(255,255,255)" fill-opacity="0.25" effectType="innerShadow" stdDeviation="0" radius="0" />
		</g>
		<filter id="filter_6" width="4" height="4" x="48.5" y="45.5" filterUnits="userSpaceOnUse" customEffect="url(#pixso_custom_effect_6)" color-interpolation-filters="sRGB">
			<feFlood flood-opacity="0" result="BackgroundImageFix" />
			<feBlend result="shape" in="SourceGraphic" in2="BackgroundImageFix" mode="normal" />
			<feColorMatrix result="hardAlpha" in="SourceAlpha" type="matrix" values="0 0 0 0 0 0 0 0 0 0 0 0 0 0 0 0 0 0 127 0 " />
			<feOffset dx="0" dy="0.300000012" />
			<feGaussianBlur stdDeviation="0" />
			<feComposite k2="-1" k3="1" in2="hardAlpha" operator="arithmetic" />
			<feColorMatrix type="matrix" values="0 0 0 0 1 0 0 0 0 1 0 0 0 0 1 0 0 0 0.25 0 " />
			<feBlend result="effect_innerShadow_1" in2="shape" mode="normal" />
		</filter>
		<linearGradient id="paint_linear_12" x1="50.5" x2="50.5" y1="45.5" y2="49.5" gradientUnits="userSpaceOnUse">
			<stop stop-color="rgb(200,197,211)" offset="0" stop-opacity="1" />
			<stop stop-color="rgb(173,170,184)" offset="1" stop-opacity="1" />
		</linearGradient>
	</defs>
	<g id="组合 3257">
		<path id="看排期" d="M4.62513 76.3486L7.17981 76.3486L7.17981 77.1631L4.62513 77.1631L4.62513 78.3877L6.81946 78.3877L6.81946 81.376C6.81946 81.5518 6.79895 81.6963 6.75794 81.8096C6.71888 81.9209 6.6554 82.0127 6.56751 82.085C6.47962 82.1572 6.36731 82.2129 6.23059 82.252C6.09583 82.291 5.93274 82.3232 5.74134 82.3486L5.31946 82.4072L5.03235 81.6162L5.4513 81.5693C5.67591 81.5361 5.8263 81.4941 5.90247 81.4434C5.97864 81.3906 6.01673 81.2598 6.01673 81.0508L6.01673 79.2051L4.62513 79.2051L4.63684 83.2832L3.78431 83.2832L3.78431 79.2051L2.31946 79.2051L2.31946 82.4688L1.55188 82.4688L1.55188 78.3877L3.78431 78.3877L3.78431 77.1631L0.784306 77.1631L0.784306 76.3486L3.78431 76.3486L3.78431 74.8838L2.29602 74.8838C2.21595 75.1084 2.13587 75.3232 2.05579 75.5283C1.97571 75.7314 1.89173 75.9209 1.80384 76.0967L1.03626 75.833C1.24329 75.3682 1.43274 74.876 1.60462 74.3564C1.77845 73.8369 1.92102 73.3203 2.03235 72.8066L2.82337 72.9414C2.78431 73.125 2.74231 73.3125 2.69739 73.5039C2.65442 73.6953 2.60462 73.8877 2.54798 74.0811L3.78431 74.0811L3.78431 72.4111L4.61341 72.4492L4.61341 74.0811L6.93958 74.0811L6.93958 74.8838L4.61341 74.8838L4.62513 76.3486ZM10.8038 72.5928L10.8038 81.6514C10.8038 81.9072 10.7814 82.1172 10.7365 82.2812C10.6935 82.4453 10.6173 82.5771 10.5079 82.6768C10.4005 82.7783 10.255 82.8564 10.0714 82.9111C9.88782 82.9678 9.65247 83.0117 9.36536 83.043L8.60657 83.1279L8.29602 82.2637L9.09876 82.1787C9.27649 82.1631 9.42102 82.1416 9.53235 82.1143C9.64368 82.0869 9.73157 82.0449 9.79602 81.9883C9.86048 81.9316 9.90442 81.8574 9.92786 81.7656C9.9513 81.6738 9.96302 81.5479 9.96302 81.3877L9.96302 72.5547L10.8038 72.5928ZM8.76477 80.6787L7.93567 80.6787L7.93567 73.5391L8.76477 73.5771L8.76477 80.6787ZM19.2749 75.0391L19.2749 76.9229L22.3599 76.9229L22.3599 77.7871L19.2749 77.7871L19.2749 79.7324L22.5767 79.7324L22.5767 80.6084L19.2749 80.6084L19.2749 83.2246L18.3521 83.2246L18.3521 75.0391L17.813 75.0391C17.5884 75.4473 17.3316 75.8721 17.0425 76.3135C16.7554 76.7529 16.4116 77.2246 16.0113 77.7285L15.3521 77.0928C15.6958 76.6768 15.9995 76.2725 16.2632 75.8799C16.5269 75.4873 16.7652 75.0977 16.978 74.7109C17.1909 74.3223 17.3784 73.9365 17.5405 73.5537C17.7046 73.1689 17.855 72.7764 17.9917 72.376L18.8325 72.7246C18.7525 72.9473 18.6665 73.1729 18.5747 73.4014C18.4829 73.6299 18.3804 73.8721 18.2671 74.1279L23.0191 74.1279L23.0191 75.0391L19.2749 75.0391ZM16.0113 72.915C15.8765 73.251 15.7271 73.6133 15.563 74.002C15.3989 74.3906 15.2085 74.8008 14.9917 75.2324L14.9917 83.1748L14.0806 83.1748L14.0806 76.8408C13.7193 77.3916 13.315 77.9355 12.8677 78.4727L12.2202 77.7988C12.605 77.3594 12.9468 76.9121 13.2456 76.457C13.5464 76 13.814 75.5498 14.0484 75.1064C14.2847 74.6631 14.4888 74.2275 14.6607 73.7998C14.8345 73.3701 14.9888 72.96 15.1236 72.5693L16.0113 72.915ZM33.2919 77.585L33.1952 80.3066L34.6249 80.3066L34.6249 81.1709L33.1601 81.1709C33.1523 81.2119 33.1484 81.249 33.1484 81.2822C33.1484 81.3135 33.1484 81.3369 33.1484 81.3525C33.1327 81.6807 33.0849 81.9521 33.0048 82.167C32.9247 82.3838 32.7987 82.5557 32.6269 82.6826C32.455 82.8115 32.2226 82.9053 31.9296 82.9639C31.6386 83.0244 31.2724 83.0635 30.831 83.0811L29.955 83.1279L29.621 82.2402L30.7724 82.2051C31.0595 82.1973 31.2948 82.1748 31.4784 82.1377C31.664 82.1025 31.8105 82.0469 31.9179 81.9707C32.0253 81.8945 32.1005 81.7969 32.1435 81.6777C32.1884 81.5566 32.2148 81.4043 32.2226 81.2207L32.2226 81.1709L25.3349 81.1709L25.6718 77.585L24.3153 77.585L24.3153 76.7441L25.745 76.7441L26.0907 73.0352L33.4589 73.0352C33.4589 73.084 33.455 73.2207 33.4472 73.4453C33.4394 73.668 33.4296 73.9473 33.4179 74.2832C33.4062 74.6191 33.3925 74.999 33.3769 75.4229C33.3612 75.8467 33.3446 76.2871 33.3271 76.7441L35.0204 76.7441L35.0204 77.585L33.2919 77.585ZM26.6327 76.7441L32.4159 76.7441C32.4316 76.4004 32.4452 76.0684 32.4569 75.748C32.4687 75.4277 32.4804 75.1396 32.4921 74.8838C32.5058 74.6279 32.5165 74.4141 32.5243 74.2422C32.5321 74.0703 32.536 73.9561 32.536 73.8994L26.9198 73.8994L26.6327 76.7441ZM28.9355 74.1895C29.0644 74.2676 29.2187 74.3711 29.3984 74.5C29.578 74.6289 29.7616 74.7656 29.9491 74.9102C30.1386 75.0527 30.3193 75.1963 30.4911 75.3408C30.663 75.4834 30.8046 75.6152 30.9159 75.7363L30.4003 76.5156C30.289 76.3887 30.1493 76.2451 29.9814 76.085C29.8134 75.9248 29.6366 75.7686 29.4511 75.6162C29.2675 75.4639 29.0878 75.3203 28.912 75.1855C28.7362 75.0488 28.5839 74.9404 28.455 74.8604L28.9355 74.1895ZM32.2607 80.3066C32.2763 79.9473 32.2958 79.5303 32.3193 79.0557C32.3446 78.5791 32.3652 78.0889 32.3808 77.585L26.5595 77.585L26.2841 80.3066L32.2607 80.3066ZM30.2919 80.1514C30.1728 80.0244 30.0224 79.8848 29.8407 79.7324C29.661 79.5801 29.4735 79.4297 29.2782 79.2812C29.0829 79.1328 28.8905 78.9951 28.7011 78.8682C28.5136 78.7393 28.3515 78.6348 28.2148 78.5547L28.6835 77.8955C28.8202 77.9678 28.9823 78.0664 29.1698 78.1914C29.3573 78.3145 29.5487 78.4443 29.7441 78.5811C29.9413 78.7158 30.1278 78.8535 30.3036 78.9941C30.4794 79.1348 30.6239 79.2529 30.7372 79.3486L30.2919 80.1514ZM46.8284 74.0928L46.8284 74.957L42.0765 74.957L42.0765 77.1514C42.0765 77.9189 42.0521 78.5811 42.0032 79.1377C41.9564 79.6943 41.8743 80.2031 41.7571 80.6641C41.6419 81.123 41.4837 81.5586 41.2825 81.9707C41.0833 82.3828 40.8314 82.8242 40.5267 83.2949L39.7005 82.876C40.013 82.4209 40.2689 82.0078 40.4681 81.6367C40.6673 81.2637 40.8206 80.875 40.928 80.4707C41.0374 80.0664 41.1116 79.6123 41.1507 79.1084C41.1917 78.6045 41.2122 77.9883 41.2122 77.2598L41.2122 74.0928L43.7317 74.0928C43.6927 73.9639 43.6526 73.8242 43.6116 73.6738C43.5726 73.5215 43.5306 73.3711 43.4857 73.2227C43.4427 73.0742 43.3987 72.9365 43.3538 72.8096C43.3108 72.6807 43.2728 72.5762 43.2396 72.4961L44.0804 72.3291C44.1116 72.417 44.1526 72.5371 44.2034 72.6895C44.2562 72.8398 44.3108 72.999 44.3675 73.167C44.4241 73.335 44.4759 73.501 44.5228 73.665C44.5716 73.8291 44.6116 73.9717 44.6429 74.0928L46.8284 74.0928ZM37.2396 82.085L37.2396 78.1592C36.9837 78.5908 36.7083 79.0234 36.4134 79.457L35.7396 78.915C35.9876 78.5947 36.2259 78.2451 36.4544 77.8662C36.6829 77.4854 36.8968 77.0889 37.096 76.6768C37.2952 76.2646 37.473 75.8467 37.6292 75.4229C37.7855 74.999 37.9114 74.583 38.0071 74.1748L36.5306 74.1748L36.5306 73.3252L40.6116 73.3252L40.6116 74.1748L38.8362 74.1748C38.7249 74.6162 38.6028 75.0352 38.47 75.4316C38.3372 75.8262 38.1907 76.2119 38.0306 76.5889L40.0491 76.5889L40.0491 82.085L37.2396 82.085ZM39.2552 77.4033L38.0189 77.4033L38.0189 81.2793L39.2552 81.2793L39.2552 77.4033ZM51.989 79.2051C51.7722 78.9004 51.5593 78.6143 51.3503 78.3467C51.1433 78.0791 50.9519 77.8447 50.7761 77.6436L50.7761 83.2363L49.9118 83.2363L49.9118 77.2715C49.4958 78.3594 48.9597 79.3711 48.3034 80.3066L47.6911 79.6826C48.0993 79.0908 48.4909 78.4336 48.8659 77.7109C49.2429 76.9863 49.5476 76.2402 49.78 75.4727L48.2067 75.4727L48.2067 74.6084L49.9118 74.6084L49.9118 72.3643L50.7761 72.3994L50.7761 74.6084L52.4196 74.6084L52.4196 75.4727L50.7761 75.4727L50.7761 77.0811L51.028 76.8291C51.1159 76.9092 51.2194 77.0117 51.3386 77.1367C51.4597 77.2598 51.5876 77.3955 51.7224 77.5439C51.8591 77.6904 51.9997 77.8457 52.1442 78.0098C52.2888 78.1738 52.4284 78.3359 52.5632 78.4961L51.989 79.2051ZM58.7331 80.248C58.7331 80.3359 58.7282 80.4443 58.7185 80.5732C58.7106 80.7002 58.7028 80.832 58.695 80.9688C58.6872 81.1035 58.6774 81.2354 58.6657 81.3643C58.654 81.4912 58.6442 81.5947 58.6364 81.6748C58.613 81.9072 58.5827 82.0977 58.5456 82.2461C58.5104 82.3945 58.4548 82.5127 58.3786 82.6006C58.3024 82.6885 58.1979 82.7559 58.0651 82.8027C57.9343 82.8516 57.7604 82.8877 57.5437 82.9111C57.4479 82.9268 57.3337 82.9346 57.2009 82.9346C57.07 82.9346 56.9362 82.9268 56.7995 82.9111C56.6159 82.8955 56.4577 82.8672 56.3249 82.8262C56.194 82.7871 56.0866 82.7236 56.0026 82.6357C55.9187 82.5479 55.8581 82.4316 55.821 82.2871C55.7858 82.1445 55.7683 81.957 55.7683 81.7246L55.7683 74.0693L53.7644 74.0693L53.7644 77.2129C53.7644 78.0117 53.738 78.6973 53.6853 79.2695C53.6345 79.8418 53.5388 80.3564 53.3981 80.8135C53.2575 81.2686 53.0632 81.6875 52.8151 82.0703C52.5671 82.4551 52.2478 82.8555 51.8571 83.2715L51.0866 82.7441C51.4636 82.3516 51.7683 81.9854 52.0007 81.6455C52.2331 81.3057 52.4128 80.9336 52.5397 80.5293C52.6687 80.125 52.7546 79.6592 52.7976 79.1318C52.8425 78.6045 52.8649 77.9609 52.8649 77.2012L52.8649 73.167L56.6677 73.167L56.6677 81.4727C56.6677 81.584 56.6716 81.6738 56.6794 81.7422C56.6872 81.8105 56.7067 81.8652 56.738 81.9062C56.7712 81.9453 56.8151 81.9746 56.8698 81.9941C56.9265 82.0137 56.9987 82.0273 57.0866 82.0352C57.1765 82.043 57.2692 82.043 57.3649 82.0352C57.5153 82.0195 57.613 81.9736 57.6579 81.8975C57.7028 81.8213 57.7448 81.6553 57.7839 81.3994C57.7917 81.335 57.8015 81.2373 57.8132 81.1064C57.8249 80.9736 57.8347 80.834 57.8425 80.6875C57.8522 80.5391 57.8591 80.3994 57.863 80.2686C57.8669 80.1357 57.8688 80.0371 57.8688 79.9727L58.7331 80.248ZM61.3595 72.5693C61.4806 72.6885 61.6183 72.8428 61.7725 73.0322C61.9288 73.2197 62.087 73.417 62.2472 73.624C62.4073 73.8311 62.5597 74.0371 62.7042 74.2422C62.8487 74.4453 62.9649 74.6191 63.0528 74.7637L62.3321 75.4609C62.2442 75.2852 62.128 75.0889 61.9835 74.8721C61.839 74.6553 61.6866 74.4395 61.5265 74.2246C61.3683 74.0078 61.211 73.8018 61.0548 73.6064C60.8985 73.4111 60.7599 73.249 60.6388 73.1201L61.3595 72.5693ZM65.212 80.9307C65.212 81.1396 65.2237 81.3066 65.2472 81.4316C65.2726 81.5547 65.3204 81.6504 65.3907 81.7188C65.463 81.7871 65.5645 81.835 65.6954 81.8623C65.8282 81.8896 66.003 81.9111 66.2198 81.9268C66.9151 81.9912 67.6114 81.9912 68.3087 81.9268C68.4845 81.9111 68.63 81.8916 68.7452 81.8682C68.8624 81.8447 68.9581 81.8135 69.0323 81.7744C69.1085 81.7334 69.169 81.6768 69.214 81.6045C69.2589 81.5322 69.2931 81.4404 69.3165 81.3291C69.3634 81.1123 69.3927 80.8945 69.4044 80.6758C69.4181 80.4551 69.4327 80.2285 69.4483 79.9961L70.3712 80.3066C70.3556 80.6113 70.3311 80.8896 70.2979 81.1416C70.2667 81.3936 70.2198 81.6514 70.1573 81.915C70.1241 82.0518 70.0831 82.1719 70.0343 82.2754C69.9874 82.3789 69.9122 82.4668 69.8087 82.5391C69.7052 82.6113 69.5606 82.6709 69.3751 82.7178C69.1915 82.7666 68.9522 82.8037 68.6573 82.8291C67.7276 82.8994 66.8028 82.8994 65.8829 82.8291C65.5724 82.8037 65.3145 82.7646 65.1095 82.7119C64.9063 82.6611 64.7462 82.5771 64.629 82.46C64.5138 82.3447 64.4317 82.1855 64.3829 81.9824C64.336 81.7773 64.3126 81.5107 64.3126 81.1826L64.3126 76.8291L68.5724 76.8291L68.5724 74.0312L63.9757 74.0312L63.9757 73.1318L69.4952 73.1318L69.4952 77.7285L65.212 77.7285L65.212 80.9307ZM62.3204 81.1709C62.4005 81.1162 62.5118 81.0312 62.6544 80.916C62.7989 80.7988 62.9454 80.6807 63.0938 80.5615C63.2423 80.4404 63.3741 80.3301 63.4893 80.2305C63.6065 80.1309 63.6847 80.0645 63.7237 80.0312L63.9757 80.9688C63.9112 81.0078 63.795 81.0918 63.627 81.2207C63.4591 81.3477 63.2774 81.4873 63.0821 81.6396C62.8868 81.792 62.7003 81.9336 62.5225 82.0645C62.3468 82.1973 62.2237 82.292 62.1534 82.3486C62.0636 82.4131 61.9845 82.4805 61.9161 82.5508C61.8497 82.623 61.7647 82.7197 61.6612 82.8408L61.0841 82.1436C61.2364 81.9912 61.3321 81.875 61.3712 81.7949C61.4122 81.7148 61.4327 81.5996 61.4327 81.4492L61.4327 77.0547L59.8009 77.0547L59.8009 76.1553L62.3204 76.1553L62.3204 81.1709ZM79.0972 80.0312C79.4956 80.3672 79.9526 80.6738 80.4682 80.9512C80.9858 81.2266 81.5923 81.4883 82.2876 81.7363L81.8188 82.5391C81.2524 82.3086 80.7446 82.0752 80.2954 81.8389C79.8481 81.6025 79.4438 81.3564 79.0825 81.1006C78.7231 80.8447 78.4009 80.5674 78.1157 80.2686C77.8325 79.9678 77.5708 79.6367 77.3306 79.2754L77.3306 81.6895C77.3306 81.9453 77.3081 82.1523 77.2632 82.3105C77.2202 82.4707 77.1391 82.5986 77.02 82.6943C76.9009 82.792 76.7368 82.8662 76.5278 82.917C76.3208 82.9697 76.0493 83.0078 75.7134 83.0312L74.9429 83.0928L74.6557 82.2168L75.5317 82.167C75.7485 82.1514 75.9165 82.1318 76.0356 82.1084C76.1567 82.085 76.2485 82.043 76.311 81.9824C76.3755 81.9219 76.4155 81.8418 76.4311 81.7422C76.4468 81.6426 76.4546 81.5088 76.4546 81.3408L76.4546 77.5117L71.8374 77.5117L71.8374 76.7324L79.6245 76.7324L79.6245 75.6045L73.0972 75.6045L73.0972 74.8369L79.6245 74.8369L79.6245 73.6826L72.7837 73.6826L72.7837 72.8916L80.5239 72.8916L80.5239 76.7324L82.1323 76.7324L82.1323 77.5117L77.3306 77.5117L77.3306 77.7168C77.4829 78.0371 77.6489 78.3369 77.8286 78.6162C78.0102 78.8955 78.2163 79.1631 78.4468 79.4189C78.6323 79.2998 78.8325 79.1641 79.0473 79.0117C79.2641 78.8594 79.4761 78.7012 79.6831 78.5371C79.8921 78.373 80.0903 78.2109 80.2778 78.0508C80.4653 77.8906 80.6274 77.7471 80.7641 77.6201L81.3413 78.3408C81.2124 78.46 81.0581 78.5938 80.8784 78.7422C80.6987 78.8906 80.5063 79.041 80.3013 79.1934C80.0981 79.3438 79.8921 79.4912 79.6831 79.6357C79.4761 79.7803 79.2807 79.9121 79.0972 80.0312ZM74.5005 79.8291C74.3872 79.708 74.2466 79.5723 74.0786 79.4219C73.9106 79.2695 73.7388 79.1211 73.563 78.9766C73.3872 78.832 73.2153 78.6963 73.0473 78.5693C72.8794 78.4404 72.7358 78.332 72.6167 78.2441L73.1206 77.5967C73.2397 77.6768 73.3833 77.7793 73.5513 77.9043C73.7192 78.0273 73.8931 78.1572 74.0727 78.2939C74.2544 78.4287 74.4311 78.5664 74.603 78.707C74.7749 78.8457 74.9165 78.9678 75.0278 79.0732L74.5005 79.8291ZM76.3843 79.9111C76.1284 80.0869 75.812 80.293 75.435 80.5293C75.06 80.7656 74.6723 81.002 74.272 81.2383C73.8716 81.4746 73.479 81.7012 73.0942 81.918C72.7114 82.1328 72.3882 82.3037 72.1245 82.4307L71.6323 81.6748C71.9116 81.5557 72.2456 81.3906 72.6343 81.1797C73.0229 80.9668 73.4204 80.7422 73.8266 80.5059C74.2348 80.2695 74.6284 80.0342 75.0073 79.7998C75.3882 79.5635 75.7075 79.3525 75.9653 79.167L76.1792 79.5508L76.3843 79.9111Z" fill="rgb(68,68,72)" fill-rule="nonzero" />
		<g id="007 record">
			<path id="矩形 35" d="M30 0L54 0C65.0457 0 74 8.95431 74 20L74 44C74 55.0457 65.0457 64 54 64L30 64C18.9543 64 10 55.0457 10 44L10 20C10 8.95431 18.9543 0 30 0Z" fill="rgb(70,69,73)" fill-rule="evenodd" />
			<g id="组合 3023">
				<g id="组合 3022">
					<g id="wzdjLr.tif_1_">
						<g id="组合 3018">
							<path id="矢量 52" d="M45.2836 12C45.5975 12.2709 45.9601 13.4857 46.2288 13.8088C46.1189 13.9377 46.0184 14.075 45.8991 14.1955C45.2959 14.8017 44.6908 15.4069 44.0782 16.0037C43.8292 16.2465 43.801 16.5305 43.9448 16.8079C44.1101 17.1264 44.4099 17.2767 44.7697 17.1749C44.9416 17.1264 45.1117 17.0143 45.2414 16.8891C45.9122 16.2409 46.5699 15.5778 47.2323 14.9212C47.3018 14.853 47.346 14.7746 47.3478 14.6756C47.9943 14.8325 48.651 14.7494 49.3021 14.7438C49.7897 14.74 50.1674 14.8773 50.5038 15.235C51.0572 15.8234 51.6491 16.3754 52.2166 16.9508C52.4656 17.2039 52.7268 17.4383 53.0293 17.626C53.2943 18.1724 53.8101 18.4965 54.2113 18.9215C54.4969 19.2241 54.8446 19.2278 55.1734 18.9616C55.4957 18.7011 55.4675 18.3779 55.3218 18.0389C55.2674 17.9118 55.1245 17.8353 55.1208 17.6802C55.7108 17.6727 56.3018 17.6606 56.8918 17.6615C57.2301 17.6625 57.4762 17.8483 57.6764 18.1005C58.0231 18.5367 58.3669 18.9747 58.7118 19.4118C56.6654 19.4156 54.62 19.4221 52.5736 19.4221C43.5154 19.4212 34.4562 19.4184 25.3979 19.4165C26.2163 18.4657 27.0384 17.5177 27.853 16.5641C28.0747 16.3045 28.3312 16.1027 28.6798 16.1036C30.1568 16.1046 31.6338 16.0532 33.1098 16.1298C32.8618 16.4361 32.4897 16.5856 32.2003 16.8359C31.9166 17.0815 31.7879 17.3841 32.0199 17.7381C32.2558 18.0977 32.6241 18.2182 32.9811 17.9931C33.2356 17.8324 39.1697 12.0037 39.1749 12C40.7665 12 43.6902 12 45.2836 12Z" fill="url(#paint_radial_0)" fill-rule="nonzero" />
							<g filter="url(#filter_0)">
								<path id="矢量 54" d="M61.0254 22.7285C61.018 22.7678 58.1635 44.8545 58.1388 44.8559C57.4435 44.8531 55.497 44.8512 54.8027 44.8484C54.3761 44.0835 53.9298 43.5854 53.1369 43.1258L53.1416 43.1324C53.1087 43.1044 53.0428 43.2233 53.0429 43.0483C52.3063 42.515 51.4691 43.2455 50.5709 43.2194C48.3705 43.154 48 44.8558 48 44.8558C48 44.8558 44.4469 44.8456 43.7592 44.8503C42.2615 44.8503 40.7639 44.8503 39.2653 44.8503C38.5813 44.8456 37.8973 44.841 37.2142 44.8363C37.0545 44.557 36.9211 44.2582 36.7285 44.0041C36.4194 43.5978 36.1657 43.3696 35.6113 43.2192L35.6123 43.223C35.6189 43.152 35.5784 43.1277 35.5155 43.1249L35.5193 43.1305C35.4883 43.0988 35.4572 43.0679 35.4262 43.0362C33.8995 41.8827 31.4839 41.936 29.8509 43.1212C29.1256 43.648 28.6614 44.1134 28.2095 44.8512C27.5236 44.8503 26.8368 44.8494 26.151 44.8484C26.0119 44.8419 25.8719 44.8363 25.7328 44.8298C24.8452 40.2249 24.8543 37.28 22.0329 23.0507C22.0122 22.9451 22.0103 22.8349 22 22.7275C22.156 22.7219 22.3119 22.7116 22.4679 22.7116C35.1641 22.7107 47.8613 22.7107 60.5575 22.7116C60.7134 22.7116 60.8694 22.7228 61.0254 22.7285Z" fill="url(#paint_linear_0)" fill-rule="nonzero" />
							</g>
							<path id="矩形 1498" d="M23.25 29L60.1835 29.1738L59.7324 33L23.9688 33L23.25 29Z" opacity="0.400000006" fill="rgb(183,119,85)" fill-rule="evenodd" />
							<path id="矩形 1499" d="M24.625 37L59.1259 37L58.5321 41L25.1746 41L24.625 37Z" opacity="0.400000006" fill="rgb(159,102,77)" fill-rule="evenodd" />
							<path id="矢量 56" d="M59.9005 20.9139C47.97 20.9139 36.0396 20.9139 24.1082 20.9139C24.4981 20.3806 24.9368 19.8903 25.3953 19.4158C34.4536 19.4177 43.5128 19.4205 52.571 19.4214C54.6174 19.4214 56.6628 19.4149 58.7092 19.4111C59.1329 19.8912 59.5501 20.3769 59.9005 20.9139Z" fill="url(#paint_linear_1)" fill-rule="nonzero" />
							<path id="合并" />
							<path id="矢量 69" d="M34.9874 16.0795C34.1334 16.8005 33.9216 17.3974 32.9783 17.9923C32.6213 18.2174 32.253 18.0969 32.0172 17.7373C31.7851 17.3834 31.9129 17.0807 32.1976 16.8351C32.4879 16.5848 32.859 16.4344 33.1071 16.129C33.9761 16.0197 34.1174 16.1103 34.9874 16.0795Z" fill="rgb(86,79,88)" fill-rule="nonzero" />
							<path id="矢量 71" d="M47.3461 14.6753C47.3442 14.7743 47.3001 14.8519 47.2305 14.921C46.5682 15.5776 45.9105 16.2407 45.2396 16.8889C45.11 17.014 44.9399 17.1271 44.768 17.1747C44.4081 17.2765 44.1084 17.1261 43.943 16.8076C43.7993 16.5302 43.8284 16.2463 44.0765 16.0035C44.689 15.4057 45.2932 14.8014 45.8973 14.1953C46.0166 14.0757 46.1181 13.9384 46.2271 13.8086C46.602 14.0981 46.974 14.3867 47.3461 14.6753Z" fill="rgb(86,79,88)" fill-rule="nonzero" />
							<path id="矢量 72" d="M55.119 17.6792C55.1228 17.8333 55.2665 17.9108 55.3201 18.0378C55.4657 18.3769 55.4939 18.7 55.1716 18.9606C54.8428 19.2268 54.4952 19.2231 54.2095 18.9204C53.8084 18.4955 53.2925 18.1714 53.0276 17.625C53.7247 17.6437 54.4219 17.6614 55.119 17.6792Z" fill="rgb(86,79,88)" fill-rule="nonzero" />
							<path id="矢量 73" d="M36.0102 43.2369C35.9792 43.2052 35.9482 43.1743 35.9163 43.1426C35.9473 43.1743 35.9792 43.2061 36.0102 43.2369Z" fill="rgb(86,79,88)" fill-rule="nonzero" />
							<path id="矢量 74" d="M53.6316 43.2384C53.5987 43.2103 53.5658 43.1823 53.533 43.1543C53.5658 43.1823 53.5987 43.2103 53.6316 43.2384Z" fill="rgb(86,79,88)" fill-rule="nonzero" />
							<path id="矢量 75" d="M36.1024 43.3285C36.0704 43.2958 36.0385 43.2632 36.0056 43.2305C36.0695 43.2333 36.109 43.2585 36.1024 43.3285Z" fill="rgb(86,79,88)" fill-rule="nonzero" />
						</g>
					</g>
					<g filter="url(#filter_1)">
						<path id="矩形 1497" d="M19.5617 21L63.4433 21C63.7406 21 63.9722 21.2579 63.9404 21.5535L63.6174 24.5535C63.5901 24.8075 63.3757 25 63.1203 25L19.9116 25C19.6579 25 19.4444 24.81 19.415 24.5579L19.0651 21.5579C19.0304 21.2608 19.2626 21 19.5617 21Z" fill="url(#paint_linear_2)" fill-rule="evenodd" />
					</g>
				</g>
				<g id="组合 3021" filter="url(#filter_2)">
					<g filter="url(#filter_3)">
						<path id="矢量 78" d="M3.98581 2.05313C2.69961 2.05673 3.39641 2.06611 2.53208 2.05889C2.30683 2.05673 2.16302 2.10145 2.03755 2.3135C1.79029 2.73182 1.38087 2.94098 0.894409 2.99363C0.38227 3.04917 0.0154083 2.73687 0.00660351 2.23127C-0.00220117 1.74082 -0.00220117 1.25037 0.00660351 0.759923C0.0154082 0.278848 0.338247 -0.0211895 0.824705 0.00116903C1.34492 0.0249693 1.77194 0.244952 2.03755 0.685634C2.16448 0.89624 2.30609 0.941677 2.53208 0.939513C3.39641 0.931581 2.69961 0.940235 3.98655 0.943119C3.98655 1.31312 3.98581 1.68312 3.98581 2.05313Z" fill="url(#paint_linear_3)" fill-rule="nonzero" transform="matrix(-1,0,0,1,63.4219,45.7188)" />
					</g>
					<g filter="url(#filter_4)">
						<path id="矢量 79" d="M24.9858 47.7719C23.6996 47.7755 24.3964 47.7849 23.5321 47.7776C23.3068 47.7755 23.163 47.8202 23.0375 48.0322C22.7903 48.4506 22.3809 48.6597 21.8944 48.7124C21.3823 48.7679 21.0154 48.4556 21.0066 47.95C20.9978 47.4596 20.9978 46.9691 21.0066 46.4787C21.0154 45.9976 21.3382 45.6976 21.8247 45.7199C22.3449 45.7437 22.7719 45.9637 23.0375 46.4044C23.1645 46.615 23.3061 46.6604 23.5321 46.6583C24.3964 46.6503 23.6996 46.659 24.9865 46.6619C24.9865 47.0319 24.9858 47.4019 24.9858 47.7719Z" fill="url(#paint_linear_4)" fill-rule="nonzero" />
					</g>
					<path id="合并" d="M26.4776 48.8328C26.4892 48.9082 26.5008 48.9837 26.5122 49.0591C27.1961 49.132 28.052 49.1058 28.737 49.0741C28.7069 48.9246 28.6853 48.7724 28.6458 48.6248C28.3329 47.462 28.3301 46.3151 28.8215 45.1934C28.1338 45.198 27.2741 45.2018 26.5864 45.2064C26.4135 45.7005 26.3374 46.2114 26.3064 46.7326C26.264 47.4421 26.3707 48.1371 26.4776 48.8328ZM36.175 49.0594C36.175 49.0594 36.152 48.9085 36.1404 48.833C36.0336 48.1373 35.9268 47.4423 35.9692 46.7328C36.0002 46.2117 36.0763 45.7008 36.2492 45.2067C36.937 45.202 45.6247 45.1983 46.3125 45.1936C45.8211 46.3153 45.8239 47.4623 46.1368 48.6251C46.1762 48.7726 46.2279 49.0743 46.2279 49.0743L36.175 49.0594ZM55.6844 47.282C55.6609 47.9059 55.458 48.4878 55.3002 49.0809L55.347 49.0824C56.0182 49.1034 57.6894 49.1244 58.3597 49.0687C58.6613 47.7845 58.619 46.4993 58.3785 45.2123C57.6832 45.2095 55.9889 45.2076 55.2936 45.2048C55.3077 45.2529 55.322 45.3009 55.3362 45.3489L55.3362 45.349C55.5233 45.9802 55.7098 46.6094 55.6844 47.282Z" fill="url(#paint_linear_5)" fill-rule="evenodd" />
					<path id="合并" d="M26.6411 45.2052C26.6345 45.6965 26.4438 46.1579 26.4316 46.6539C26.41 47.4702 26.4851 48.2715 26.6467 49.0692C26.3677 49.0785 26.0896 49.0944 25.8105 49.0953C24.8494 49.0972 24.5553 48.8048 24.5647 47.8634C24.5647 47.3842 24.5656 46.9051 24.5656 46.426C24.5525 45.5079 24.8484 45.2034 25.7598 45.1987C25.9139 45.1978 26.0689 45.1912 26.223 45.1875C26.362 45.1931 26.5011 45.1987 26.6411 45.2052ZM57.3787 45.2128C57.6182 46.4989 57.6615 47.785 57.3599 49.0692C57.6389 49.0776 57.917 49.0944 58.197 49.0963C59.1572 49.0991 59.4504 48.8058 59.4429 47.8644C59.4419 47.3843 59.4419 46.9051 59.441 46.426C59.4541 45.507 59.1582 45.2034 58.2421 45.1987C58.1021 45.1978 57.9631 45.1922 57.824 45.1885C57.6756 45.1969 57.5271 45.2044 57.3787 45.2128Z" fill="url(#paint_linear_6)" fill-rule="evenodd" />
				</g>
				<g id="组合 3024">
					<g id="组合 3019">
						<path id="椭圆 35" d="M28 47.5C28 44.4624 30.4624 42 33.5 42C36.5376 42 39 44.4624 39 47.5C39 50.5376 36.5376 53 33.5 53C30.4624 53 28 50.5376 28 47.5Z" fill="url(#paint_linear_7)" fill-rule="evenodd" />
						<path id="椭圆 36" d="M28.5 47.5C28.5 44.7386 30.7386 42.5 33.5 42.5C36.2614 42.5 38.5 44.7386 38.5 47.5C38.5 50.2614 36.2614 52.5 33.5 52.5C30.7386 52.5 28.5 50.2614 28.5 47.5Z" fill="url(#paint_linear_8)" fill-rule="evenodd" />
						<g filter="url(#filter_5)">
							<path id="椭圆 37" d="M31.5 47.5C31.5 46.3954 32.3954 45.5 33.5 45.5C34.6046 45.5 35.5 46.3954 35.5 47.5C35.5 48.6046 34.6046 49.5 33.5 49.5C32.3954 49.5 31.5 48.6046 31.5 47.5Z" opacity="0.589999974" fill="url(#paint_linear_9)" fill-rule="evenodd" />
						</g>
					</g>
					<g id="组合 3020">
						<path id="椭圆 35" d="M45 47.5C45 44.4624 47.4624 42 50.5 42C53.5376 42 56 44.4624 56 47.5C56 50.5376 53.5376 53 50.5 53C47.4624 53 45 50.5376 45 47.5Z" fill="url(#paint_linear_10)" fill-rule="evenodd" />
						<path id="椭圆 36" d="M45.5 47.5C45.5 44.7386 47.7386 42.5 50.5 42.5C53.2614 42.5 55.5 44.7386 55.5 47.5C55.5 50.2614 53.2614 52.5 50.5 52.5C47.7386 52.5 45.5 50.2614 45.5 47.5Z" fill="url(#paint_linear_11)" fill-rule="evenodd" />
						<g filter="url(#filter_6)">
							<path id="椭圆 37" d="M48.5 47.5C48.5 46.3954 49.3954 45.5 50.5 45.5C51.6046 45.5 52.5 46.3954 52.5 47.5C52.5 48.6046 51.6046 49.5 50.5 49.5C49.3954 49.5 48.5 48.6046 48.5 47.5Z" opacity="0.589999974" fill="url(#paint_linear_12)" fill-rule="evenodd" />
						</g>
					</g>
				</g>
			</g>
		</g>
	</g>
</svg>
