<svg viewBox="0 0 37 37" xmlns="http://www.w3.org/2000/svg" xmlns:xlink="http://www.w3.org/1999/xlink" width="37" height="37" fill="none" customFrame="#000000">
	<g id="组合 3435">
		<g id="组合 253">
			<rect id="矩形备份 69" width="37" height="37" x="0" y="0" rx="13" fill="rgb(246,244,252)" />
			<rect id="矩形备份 69" width="36" height="36" x="0.5" y="0.5" rx="13" stroke="rgb(151,151,151)" stroke-opacity="0" stroke-width="1" />
			<circle id="椭圆 28" cx="18.5" cy="18.5" r="10.5" fill="rgb(0,0,0)" />
		</g>
		<g id="组合 3431">
			<path id="矢量 173" d="M21.0347 16.9569C21.0347 16.9569 23.7886 15.6291 23.8378 15.4816C23.887 15.334 24.2311 15.4816 24.2311 15.4816L24.2311 23.7927L16.8545 23.7927C16.8545 23.7927 20.6411 20.8912 21.0347 16.9569Z" fill="rgb(255,255,255)" fill-rule="nonzero" />
			<path id="矢量 174" d="M18.0344 19.465L18.6492 19.0225L19.018 19.2437L19.1165 19.2437L19.1165 20.4486L18.7968 20.5961L18.0344 19.465ZM16.4854 20.5961L16.8543 20.3504L17.1493 20.1535L17.764 20.1535L17.8625 20.5961L18.0344 20.7929L18.0344 21.4567L17.2599 21.8748L16.6329 22.0222L16.4854 22.0222L16.4854 20.5961Z" fill="rgb(255,255,255)" fill-rule="nonzero" />
			<path id="矢量 175" d="M14.0511 21.6777L18.3788 17.1534L19.9034 19.1453L20.395 17.7928L19.4608 16.588L19.1166 16.465L19.3623 16.0962L19.387 15.9487L19.2641 15.8258C19.2641 15.8258 18.9383 15.4323 18.5694 15.4753L18.4957 15.5737L18.4527 15.5983L18.3235 15.5184C18.3235 15.5184 16.9588 14.0615 14.8626 14L14.8379 14.1599L17.5551 16.2745L13 20.7557L13 21.2169L13.4425 21.6778L14.0511 21.6777Z" fill="rgb(255,255,255)" fill-rule="nonzero" />
		</g>
	</g>
</svg>
