<svg viewBox="0 0 20.2622 21.7686" xmlns="http://www.w3.org/2000/svg" xmlns:xlink="http://www.w3.org/1999/xlink" width="20.262207" height="21.7685547" fill="none" customFrame="#000000">
	<path id="矩形 1516" d="M0.115758 -0.741013L12.5076 1.19479C12.8681 1.25111 13.0765 1.45953 13.1328 1.82005L15.0686 14.2119L13.5866 14.4434L11.6508 2.05157L12.3918 1.93581L12.2761 2.67682L-0.115758 0.741013L0.115758 -0.741013ZM-0.0929112 0.724339L-0.115758 0.741013C-0.530726 0.676188 -0.805838 0.299209 -0.741013 -0.115758C-0.676188 -0.530726 -0.299209 -0.805838 0.115758 -0.741013L0.132432 -0.718166L-0.0929112 0.724339ZM15.0458 14.1952L15.0686 14.2119C15.1335 14.6268 14.8584 15.0038 14.4434 15.0686C14.0284 15.1335 13.6514 14.8584 13.5866 14.4434L13.6033 14.4205L15.0458 14.1952Z" fill="rgb(203,202,202)" fill-rule="nonzero" transform="matrix(0.707107,0.707107,-0.707107,0.707107,10.1311,0.75293)" />
</svg>
