<svg viewBox="0 0 94 24.5217" xmlns="http://www.w3.org/2000/svg" xmlns:xlink="http://www.w3.org/1999/xlink" width="94" height="24.5217285" fill="none" customFrame="#000000">
	<g id="组合 3366">
		<g id="组合 3269">
			<g id="组合 3151">
				<path id="矩形备份 5" d="M12.2609 0L81.7391 0C88.5106 0 94 5.48938 94 12.2609C94 19.0324 88.5106 24.5217 81.7391 24.5217L12.2609 24.5217C5.48938 24.5217 0 19.0324 0 12.2609C0 5.48938 5.48938 0 12.2609 0Z" fill="rgb(255,99,99)" fill-rule="evenodd" />
				<path id="矩形备份 5" d="M81.7391 0L12.2609 0C5.48938 0 0 5.48938 0 12.2609C0 19.0324 5.48938 24.5217 12.2609 24.5217L81.7391 24.5217C88.5106 24.5217 94 19.0324 94 12.2609C94 5.48938 88.5106 0 81.7391 0ZM12.2609 2.04348L81.7391 2.04348C82.5218 2.04348 83.2849 2.12864 84.0285 2.29896C84.6025 2.43043 85.1648 2.61263 85.7156 2.84557C86.2816 3.08499 86.8177 3.37014 87.324 3.70104C87.9108 4.08459 88.4575 4.52961 88.9639 5.03608C89.4706 5.54276 89.9158 6.08964 90.2994 6.67671C90.6301 7.18275 90.9151 7.71866 91.1544 8.28443C91.3873 8.83496 91.5694 9.3971 91.7009 9.97086C91.8713 10.7147 91.9565 11.478 91.9565 12.2609C91.9565 13.0436 91.8713 13.8068 91.701 14.5504C91.5695 15.1244 91.3873 15.6866 91.1544 16.2373C90.9151 16.8032 90.63 17.3393 90.2992 17.8454C89.9156 18.4324 89.4705 18.9791 88.9639 19.4857C88.4574 19.9922 87.9107 20.4373 87.3238 20.8208C86.8176 21.1517 86.2815 21.4368 85.7156 21.6762C85.1649 21.9091 84.6026 22.0913 84.0287 22.2227C83.285 22.3931 82.5218 22.4783 81.7391 22.4783L12.2609 22.4783C11.4782 22.4783 10.7151 22.3931 9.97143 22.2228C9.39748 22.0913 8.83514 21.9091 8.28443 21.6762C7.71858 21.4368 7.1826 21.1518 6.6765 20.821C6.0895 20.4374 5.5427 19.9923 5.03608 19.4857C4.52944 18.979 4.0843 18.4322 3.70066 17.8452C3.36992 17.3391 3.08489 16.8031 2.84557 16.2373C2.61263 15.6866 2.43043 15.1242 2.29897 14.5503C2.12864 13.8066 2.04348 13.0435 2.04348 12.2609C2.04348 11.4782 2.12864 10.7151 2.29896 9.97149C2.43043 9.39751 2.61263 8.83516 2.84557 8.28443C3.08491 7.71858 3.36995 7.18261 3.70071 6.67651C4.08434 6.08951 4.52946 5.5427 5.03608 5.03608C5.54271 4.52946 6.08952 4.08433 6.67653 3.7007C7.18262 3.36994 7.71859 3.0849 8.28443 2.84557C8.83516 2.61263 9.39751 2.43043 9.97148 2.29896C10.7151 2.12864 11.4782 2.04348 12.2609 2.04348Z" fill="rgb(151,151,151)" fill-opacity="0" fill-rule="evenodd" />
				<path id="我的矿机备份 13" d="M41.8675 12.1565C42.6178 13.1702 43.5411 14.1494 44.6374 15.094C45.7336 16.0359 46.9137 16.8501 48.1775 17.5366L47.3594 18.6661C46.1061 17.8811 44.9673 17.0177 43.9429 16.0758C42.9185 15.1312 42.0418 14.1574 41.3127 13.1543L41.3127 19.5162L40.0835 19.5162L40.0835 13.2381C39.4209 14.2173 38.6067 15.1432 37.6409 16.0159C36.6777 16.8887 35.4976 17.7601 34.1007 18.6302L33.2506 17.5845C35.8768 16.0918 37.9695 14.2824 39.5287 12.1565L33.969 12.1565L33.969 11.015L40.0835 11.015L40.0835 8.3968L34.9827 8.3968L34.9827 7.21941L40.0835 7.21941L40.0835 4.85265L41.3127 4.90054L41.3127 7.21941L46.4294 7.21941L46.4294 8.3968L41.3127 8.3968L41.3127 11.015L47.4432 11.015L47.4432 12.1565L41.8675 12.1565ZM64.0004 11.8132L64.0004 13.0066L60.3405 13.0066L60.3405 19.628L59.0314 19.628L59.0314 13.0066L54.6331 13.0066C54.5693 14.0869 54.4229 14.9929 54.1941 15.7246C53.9653 16.4536 53.6074 17.1295 53.1205 17.7521C52.6362 18.3721 51.9471 19.0745 51.053 19.8594L50.1231 18.9415C50.9506 18.2443 51.5825 17.6204 52.0189 17.0696C52.4553 16.5188 52.7732 15.9335 52.9728 15.3135C53.175 14.6909 53.3041 13.9219 53.3599 13.0066L49.5324 13.0066L49.5324 11.8132L53.3919 11.8132L53.3919 11.4381L53.3919 7.21941L50.4663 7.21941L50.4663 6.02605L63.2181 6.02605L63.2181 7.21941L60.3405 7.21941L60.3405 11.8132L64.0004 11.8132ZM54.685 11.8132L59.0314 11.8132L59.0314 7.21941L54.685 7.21941L54.685 11.3064L54.685 11.8132ZM70.9987 14.2359C70.3442 13.3312 69.7934 12.6221 69.3464 12.1086L69.3464 19.7118L68.169 19.7118L68.169 11.8132C67.6262 13.1889 66.9238 14.4966 66.0617 15.7366L65.2275 14.8864C65.8262 14.027 66.3756 13.1011 66.8759 12.1086C67.3788 11.1161 67.7779 10.1303 68.0732 9.15113L65.93 9.15113L65.93 7.97374L68.169 7.97374L68.169 4.91651L69.3464 4.9644L69.3464 7.97374L71.6693 7.97374L71.6693 9.15113L69.3464 9.15113L69.3464 11.3423L69.6897 10.999C70.1367 11.4008 70.8351 12.1578 71.785 13.27L70.9987 14.2359ZM80.2662 15.6567C80.245 16.3645 80.2024 17.0124 80.1385 17.6004C80.0933 18.0474 80.0294 18.3747 79.9469 18.5823C79.8671 18.7898 79.7314 18.9428 79.5398 19.0412C79.3483 19.1397 79.0516 19.2155 78.6498 19.2687L77.6361 19.2687C77.2769 19.2368 76.9988 19.1716 76.8019 19.0732C76.605 18.9747 76.46 18.8164 76.3669 18.5982C76.2764 18.38 76.2312 18.0701 76.2312 17.6683L76.2312 7.23937L73.5012 7.23937L73.5012 11.5219C73.5012 13.0252 73.4294 14.2319 73.2857 15.1419C73.1447 16.0519 72.8919 16.8554 72.5274 17.5525C72.1628 18.2497 71.62 18.9854 70.899 19.7597L69.8533 19.0412C70.5504 18.3228 71.0679 17.659 71.4059 17.0497C71.7438 16.4377 71.9726 15.7233 72.0923 14.9064C72.2121 14.0869 72.2719 12.9534 72.2719 11.5059L72.2719 6.01009L77.4565 6.01009L77.4565 17.325C77.4565 17.6284 77.4884 17.8239 77.5522 17.9117C77.6188 17.9996 77.7771 18.0541 78.0272 18.0754L78.4024 18.0754C78.6099 18.0647 78.743 18.0102 78.8015 17.9117C78.8627 17.8133 78.9212 17.5845 78.9771 17.2253C78.9984 17.0523 79.0223 16.753 79.0489 16.3273C79.0782 15.9015 79.0928 15.553 79.0928 15.2816L80.2662 15.6567Z" fill="rgb(255,255,255)" fill-rule="nonzero" />
			</g>
		</g>
		<g id="组合 3365">
			<path id="矢量 154" d="M26.5651 12.2609C26.5651 8.87518 23.8204 6.13049 20.4346 6.13049C17.0489 6.13049 14.3042 8.87518 14.3042 12.2609C14.3042 15.6467 17.0489 18.3914 20.4346 18.3914C23.8204 18.3914 26.5651 15.6467 26.5651 12.2609Z" fill-rule="nonzero" stroke="rgb(255,255,255)" stroke-linecap="round" stroke-linejoin="round" stroke-width="1.43043458" />
			<path id="矢量 155" d="M0 0L0 11.6478" stroke="rgb(255,255,255)" stroke-linecap="round" stroke-linejoin="round" stroke-width="1.43043458" transform="matrix(0.707107,0.707107,-0.707107,0.707107,24.3799,7.9696)" />
		</g>
	</g>
</svg>
