<svg viewBox="0 0 32 32" xmlns="http://www.w3.org/2000/svg" xmlns:xlink="http://www.w3.org/1999/xlink" width="32" height="32" fill="none" customFrame="#000000">
	<g id="004 NO">
		<path id="矩形 34" d="M10 0L22 0C27.5228 0 32 4.47715 32 10L32 22C32 27.5228 27.5228 32 22 32L10 32C4.47715 32 0 27.5228 0 22L0 10C0 4.47715 4.47715 0 10 0Z" fill="rgb(236,236,238)" fill-rule="evenodd" />
		<g id="组合 156">
			<ellipse id="circle" rx="9" ry="9.00005627" cx="16" cy="16.0000572" fill="rgb(67,65,72)" />
			<g id="NO">
				<path id="矢量 84" d="M14.5282 13.0897C14.514 13.1039 14.5069 13.1252 14.5069 13.1536L14.5173 17.4692C14.5173 17.4819 14.5142 17.4908 14.5079 17.496C14.5054 17.4981 14.5022 17.4995 14.4986 17.5003C14.4955 17.5011 14.4925 17.5011 14.4899 17.5004C14.483 17.4984 14.4776 17.4915 14.4737 17.4795L11.817 13.1266C11.7976 13.0995 11.7752 13.0818 11.7498 13.0737C11.7388 13.0701 11.7272 13.0684 11.7151 13.0684L11.0852 13.0684C11.0568 13.0684 11.0355 13.0755 11.0213 13.0897C11.0071 13.1039 11 13.1252 11 13.1536L11 18.943C11 18.9714 11.0071 18.9927 11.0213 19.0069C11.0355 19.0211 11.0568 19.0282 11.0852 19.0282L11.7317 19.0282C11.7601 19.0282 11.7815 19.0211 11.7957 19.0069C11.8099 18.9927 11.817 18.9714 11.817 18.943L11.8086 14.6254C11.8086 14.6132 11.8116 14.6047 11.8176 14.6C11.8197 14.5983 11.8223 14.597 11.8253 14.5963C11.8284 14.5955 11.8313 14.5955 11.834 14.5962C11.8409 14.5982 11.8463 14.6051 11.8502 14.6171L14.5173 18.968C14.5372 18.9968 14.5603 19.0153 14.5865 19.0234C14.5969 19.0266 14.6078 19.0282 14.6192 19.0282L15.2407 19.0282C15.2691 19.0282 15.2904 19.0211 15.3047 19.0069C15.3189 18.9927 15.326 18.9714 15.326 18.943L15.326 13.1536C15.326 13.1252 15.3189 13.1039 15.3047 13.0897C15.2904 13.0755 15.2691 13.0684 15.2407 13.0684L14.5921 13.0684C14.5637 13.0684 14.5424 13.0755 14.5282 13.0897Z" fill="rgb(255,255,255)" fill-rule="evenodd" />
				<path id="矢量 85" d="M17.0724 18.8497C17.3912 19.0202 17.7577 19.1054 18.1721 19.1054C18.592 19.1054 18.9606 19.0202 19.278 18.8497C19.4542 18.7555 19.6085 18.6401 19.7411 18.5036C19.8484 18.3931 19.9414 18.2687 20.0201 18.1305C20.0283 18.1161 20.0363 18.1016 20.0441 18.087C20.2041 17.7882 20.2841 17.4465 20.2841 17.062L20.2841 15.0351C20.2841 14.6445 20.2016 14.2994 20.0364 13.9997C20.0311 13.99 20.0257 13.9804 20.0201 13.9708C19.9455 13.8408 19.8579 13.7231 19.7575 13.6176C19.6213 13.4745 19.4615 13.3538 19.278 13.2557C18.9606 13.0852 18.592 13 18.1721 13C17.7577 13 17.3912 13.0852 17.0724 13.2557C16.8931 13.352 16.7364 13.47 16.6022 13.6096C16.4989 13.7172 16.4089 13.8376 16.3324 13.9708C16.3269 13.9804 16.3214 13.99 16.3161 13.9997C16.1509 14.2994 16.0684 14.6445 16.0684 15.0351L16.0684 17.062C16.0684 17.4465 16.1484 17.7882 16.3084 18.087C16.3162 18.1016 16.3242 18.1161 16.3324 18.1305C16.413 18.272 16.5084 18.399 16.6187 18.5115C16.7492 18.6446 16.9004 18.7573 17.0724 18.8497ZM18.8916 18.2123C18.6901 18.3365 18.4502 18.3986 18.1721 18.3986C17.8885 18.3986 17.6456 18.3345 17.4432 18.2063C17.3697 18.1597 17.3015 18.1046 17.2387 18.0411C17.1827 17.9843 17.1333 17.9233 17.0906 17.8579C16.9537 17.6483 16.8853 17.3941 16.8853 17.0952L16.8853 15.0268C16.8853 14.7173 16.9567 14.4551 17.0994 14.2404C17.14 14.1793 17.1865 14.122 17.2387 14.0685C17.3044 14.0013 17.3759 13.9435 17.4532 13.895C17.6536 13.7695 17.8932 13.7068 18.1721 13.7068C18.4456 13.7068 18.6821 13.7675 18.8815 13.8891C18.9631 13.9387 19.0384 13.9985 19.1075 14.0685C19.1634 14.125 19.2127 14.1858 19.2555 14.2509C19.3952 14.4636 19.4651 14.7223 19.4651 15.0268L19.4651 17.0952C19.4651 17.3892 19.3981 17.64 19.2642 17.8476C19.2194 17.9169 19.1672 17.9814 19.1075 18.0411C19.0413 18.1074 18.9693 18.1644 18.8916 18.2123Z" fill="rgb(255,255,255)" fill-rule="evenodd" />
			</g>
		</g>
	</g>
</svg>
