<svg viewBox="0 0 32 32" xmlns="http://www.w3.org/2000/svg" xmlns:xlink="http://www.w3.org/1999/xlink" width="32" height="32" fill="none" customFrame="#000000">
	<g id="006 percent">
		<path id="矩形 35" d="M10 0L22 0C27.5228 0 32 4.47715 32 10L32 22C32 27.5228 27.5228 32 22 32L10 32C4.47715 32 0 27.5228 0 22L0 10C0 4.47715 4.47715 0 10 0Z" fill="rgb(236,236,238)" fill-rule="evenodd" />
		<ellipse id="circle" rx="9" ry="9.00005627" cx="16" cy="16.0000572" fill="rgb(67,65,72)" />
		<g id="%">
			<path id="矢量 87" d="M12.4307 12.0635C12.1436 12.4033 12 12.9971 12 13.8447C12 14.6924 12.1436 15.2842 12.4307 15.6201C12.4793 15.6767 12.5319 15.7284 12.5885 15.7754C12.868 16.0078 13.2441 16.124 13.7168 16.124C14.2043 16.124 14.5898 16.0038 14.8732 15.7632C14.9247 15.7195 14.9728 15.6718 15.0176 15.6201C15.3105 15.2842 15.457 14.6924 15.457 13.8447C15.457 12.9971 15.3105 12.4033 15.0176 12.0635C14.9679 12.0051 14.914 11.9517 14.856 11.9033C14.5743 11.6683 14.1946 11.5508 13.7168 11.5508C13.2537 11.5508 12.8833 11.6642 12.6057 11.8911C12.5425 11.9427 12.4842 12.0002 12.4307 12.0635ZM18.0117 11.6709L13.3564 20L14.2822 20L18.9492 11.6709L18.0117 11.6709ZM14.4668 12.8896C14.5195 13.1104 14.5459 13.4287 14.5459 13.8447C14.5459 14.2607 14.5195 14.5791 14.4668 14.7998C14.4141 15.0186 14.3301 15.1738 14.2148 15.2656C14.0996 15.3574 13.9336 15.4033 13.7168 15.4033C13.5176 15.4033 13.3594 15.3574 13.2422 15.2656C13.127 15.1738 13.043 15.0166 12.9902 14.7939C12.9395 14.5693 12.9141 14.2529 12.9141 13.8447C12.9141 13.4365 12.9395 13.1201 12.9902 12.8955C13.043 12.6709 13.127 12.5146 13.2422 12.4268C13.3594 12.3389 13.5176 12.2949 13.7168 12.2949C13.9336 12.2949 14.0996 12.3389 14.2148 12.4268C14.3301 12.5146 14.4141 12.6689 14.4668 12.8896ZM17.2969 16.0596C17.0059 16.3994 16.8604 16.9932 16.8604 17.8408C16.8604 18.6885 17.0059 19.2803 17.2969 19.6162C17.3468 19.6735 17.4008 19.7259 17.4587 19.7734C17.7407 20.0045 18.1174 20.1201 18.5889 20.1201C19.0764 20.1201 19.4619 19.9999 19.7452 19.7593C19.7967 19.7156 19.8449 19.6679 19.8896 19.6162C20.1826 19.2803 20.3291 18.6885 20.3291 17.8408C20.3291 16.9932 20.1826 16.3994 19.8896 16.0596C19.8399 16.0012 19.7861 15.9478 19.7281 15.8994C19.4464 15.6644 19.0666 15.5469 18.5889 15.5469C18.1271 15.5469 17.7563 15.6597 17.4763 15.8852C17.4116 15.9373 17.3518 15.9954 17.2969 16.0596ZM19.3271 16.8916C19.3799 17.1162 19.4062 17.4326 19.4062 17.8408C19.4062 18.2568 19.3799 18.5752 19.3271 18.7959C19.2744 19.0146 19.1904 19.1699 19.0752 19.2617C18.96 19.3535 18.7979 19.3994 18.5889 19.3994C18.3818 19.3994 18.2217 19.3535 18.1084 19.2617C17.9971 19.1699 17.915 19.0127 17.8623 18.79C17.8115 18.5654 17.7861 18.249 17.7861 17.8408C17.7861 17.4326 17.8115 17.1162 17.8623 16.8916C17.915 16.667 17.9971 16.5107 18.1084 16.4229C18.2217 16.335 18.3818 16.291 18.5889 16.291C18.7979 16.291 18.96 16.335 19.0752 16.4229C19.1904 16.5107 19.2744 16.667 19.3271 16.8916Z" fill="rgb(255,255,255)" fill-rule="evenodd" />
		</g>
	</g>
</svg>
