<svg viewBox="0 0 32 32" xmlns="http://www.w3.org/2000/svg" xmlns:xlink="http://www.w3.org/1999/xlink" width="32" height="32" fill="none" customFrame="#000000">
	<g id="005 dl">
		<path id="矩形 35" d="M10 0L22 0C27.5228 0 32 4.47715 32 10L32 22C32 27.5228 27.5228 32 22 32L10 32C4.47715 32 0 27.5228 0 22L0 10C0 4.47715 4.47715 0 10 0Z" fill="rgb(236,236,238)" fill-rule="evenodd" />
		<ellipse id="circle" rx="9" ry="9.00005627" cx="16" cy="16.0000572" fill="rgb(67,65,72)" />
		<g id="¥">
			<path id="矢量 86" d="M18.4319 15.1719L16.6607 15.1719L19.3761 11L18.0737 11L15.7701 14.8839L15.673 14.8839L13.356 11L12 11L14.7154 15.1719L12.9576 15.1719L12.9576 16.0491L15.1138 16.0491L15.1138 17.1306L12.9576 17.1306L12.9576 17.9944L15.1138 17.9944L15.1138 20.519L16.2656 20.519L16.2656 17.9944L18.4319 17.9944L18.4319 17.1306L16.2656 17.1306L16.2656 16.0491L18.4319 16.0491L18.4319 15.1719Z" fill="rgb(255,255,255)" fill-rule="evenodd" />
		</g>
	</g>
</svg>
