<svg viewBox="0 0 26.0188 26.0186" xmlns="http://www.w3.org/2000/svg" xmlns:xlink="http://www.w3.org/1999/xlink" width="26.0187988" height="26.0185547" fill="none" customFrame="#000000">
	<g id="组合 240">
		<circle id="椭圆形" cx="13" cy="13" r="13" fill="rgb(255,255,255)" transform="matrix(1,0.000727309,-0.000727309,1,0.0187988,0)" />
		<circle id="椭圆形" cx="13" cy="13" r="12.1999998" stroke="rgb(151,151,151)" stroke-opacity="0" stroke-width="1.60000002" transform="matrix(1,0.000727309,-0.000727309,1,0.0187988,0)" />
		<path id="path" d="M6.26965 0.893975C6.41647 0.346702 6.95577 0 7.49365 0C8.08094 0 8.57082 0.398278 8.71765 0.944118C8.86447 1.5401 8.62024 2.03723 7.98353 2.33522C7.83671 2.38537 7.68988 2.53436 7.68988 2.68336L7.68988 3.72776L7.29741 3.72776L7.29741 2.58451C7.29741 2.48565 7.10118 2.38537 7.00377 2.33666C6.36706 1.98709 6.12282 1.48996 6.26965 0.893975ZM1.66588 8.59735C0.784941 8.59735 0.0494118 7.90108 0 7.05582C0 6.16184 0.686118 5.46557 1.66588 5.41543L1.66588 8.59735ZM12.7341 8.59735L12.7341 5.41686C13.6151 5.36672 14.4 6.11313 14.4 6.9584C14.4 7.85237 13.6165 8.64749 12.7341 8.59735ZM11.9026 4.2736L11.9026 9.6919C11.9026 10.189 11.8052 10.2879 11.2165 10.338C11.2165 10.338 9.03529 10.3379 9.06071 10.338C9.03529 11.4612 5.38878 11.5301 5.38871 10.2879L2.98871 10.2879C2.59624 10.2879 2.44941 10.1389 2.44941 9.79075L2.44941 4.22346C2.44941 3.82518 2.59624 3.72633 3.03671 3.72633L11.2659 3.72633C11.8038 3.67762 11.9026 3.77647 11.9026 4.2736ZM5.92659 6.95696C5.92659 6.50998 5.53412 6.16184 5.04565 6.16184C4.60518 6.16184 4.21271 6.50998 4.21271 6.95696L4.21271 7.00711C4.21271 7.45409 4.60518 7.85237 5.09365 7.85237C5.58353 7.80223 5.92659 7.45409 5.92659 6.95696ZM10.2367 7.00711C10.2367 6.56012 9.89365 6.16184 9.40376 6.16184L9.35435 6.16184C8.86447 6.16184 8.47341 6.50998 8.47341 6.95696C8.47341 7.40395 8.86588 7.80223 9.35435 7.80223C9.84424 7.85237 10.2367 7.45409 10.2367 7.00711Z" fill="rgb(44.4392,42.3482,50.0893)" fill-rule="nonzero" transform="matrix(1,0.000727309,-0.000727309,1,6.01367,7.00391)" />
	</g>
</svg>
