<svg viewBox="0 0 13 17.9375" xmlns="http://www.w3.org/2000/svg" xmlns:xlink="http://www.w3.org/1999/xlink" width="13" height="17.9375" fill="none" customFrame="#000000">
	<g id="组合 3211">
		<path id="矢量 101" d="M6.5001 5.09058C5.38299 5.09058 4.47412 5.96052 4.47412 7.02977C4.47412 8.09903 5.38299 8.96894 6.5001 8.96894C7.6172 8.96894 8.52608 8.099 8.52608 7.02975C8.52608 5.96049 7.6172 5.09058 6.5001 5.09058L6.5001 5.09058ZM6.5001 7.51455C6.22076 7.51455 5.9936 7.29699 5.9936 7.02975C5.9936 6.7625 6.22076 6.54495 6.5001 6.54495C6.77943 6.54495 7.00659 6.7625 7.00659 7.02975C7.00659 7.29702 6.77943 7.51455 6.5001 7.51455Z" fill="rgb(58,58,63)" fill-rule="nonzero" />
		<path id="矢量 102" d="M12 10.7196L12 8.53166C12 6.53235 11.401 5.07393 10.2678 3.39726C9.51378 2.2816 8.5473 1.32727 7.42859 0.568003C7.12923 0.3649 6.82071 0.173763 6.49993 0C6.17929 0.173763 5.87077 0.3649 5.57141 0.568003C4.4527 1.32727 3.48621 2.2816 2.73216 3.39726C1.59899 5.07393 1 6.53235 1 8.53166L1 10.7196L0 12.6465L0 14.8776L13 14.8776L13 12.6465L12 10.7196ZM11.4805 13.4232L1.51946 13.4232L1.51946 13.2487L2.51946 11.3219L2.51946 8.53166C2.51946 6.81332 3.03423 5.62809 4.00789 4.1872C4.66784 3.21086 5.51586 2.37774 6.49991 1.72049C7.48395 2.37774 8.33211 3.21086 8.99206 4.1872C9.96572 5.62809 10.4805 6.81335 10.4805 8.53166L10.4805 11.3218L11.4805 13.2487L11.4805 13.4232L11.4805 13.4232ZM6.50004 16.3274C5.89968 16.0338 5.51476 15.6786 5.05662 15.2711L2.89635 15.2711C3.84849 16.3311 4.82673 17.1949 6.18052 17.7957L6.50004 17.9375L6.81956 17.7957C8.17322 17.195 9.15132 16.3312 10.1035 15.2711L7.94346 15.2711C7.48535 15.6786 7.1004 16.0338 6.50004 16.3274Z" fill="rgb(58,58,63)" fill-rule="nonzero" />
	</g>
</svg>
