<svg viewBox="0 0 94 24.5217" xmlns="http://www.w3.org/2000/svg" xmlns:xlink="http://www.w3.org/1999/xlink" width="94" height="24.5217285" fill="none" customFrame="#000000">
	<g id="组合 3150">
		<g id="组合 3151">
			<path id="矩形备份 5" d="M12.2609 0L81.7391 0C88.5106 0 94 5.48938 94 12.2609C94 19.0324 88.5106 24.5217 81.7391 24.5217L12.2609 24.5217C5.48938 24.5217 0 19.0324 0 12.2609C0 5.48938 5.48938 0 12.2609 0Z" fill="rgb(2,194,104)" fill-rule="evenodd" />
			<path id="矩形备份 5" d="M81.7391 0L12.2609 0C5.48938 0 0 5.48938 0 12.2609C0 19.0324 5.48938 24.5217 12.2609 24.5217L81.7391 24.5217C88.5106 24.5217 94 19.0324 94 12.2609C94 5.48938 88.5106 0 81.7391 0ZM12.2609 2.04348L81.7391 2.04348C82.5218 2.04348 83.2849 2.12864 84.0285 2.29896C84.6025 2.43043 85.1648 2.61263 85.7156 2.84557C86.2816 3.08499 86.8177 3.37014 87.324 3.70104C87.9108 4.08459 88.4575 4.52961 88.9639 5.03608C89.4706 5.54276 89.9158 6.08964 90.2994 6.67671C90.6301 7.18275 90.9151 7.71866 91.1544 8.28443C91.3873 8.83496 91.5694 9.3971 91.7009 9.97086C91.8713 10.7147 91.9565 11.478 91.9565 12.2609C91.9565 13.0436 91.8713 13.8068 91.701 14.5504C91.5695 15.1244 91.3873 15.6866 91.1544 16.2373C90.9151 16.8032 90.63 17.3393 90.2992 17.8454C89.9156 18.4324 89.4705 18.9791 88.9639 19.4857C88.4574 19.9922 87.9107 20.4373 87.3238 20.8208C86.8176 21.1517 86.2815 21.4368 85.7156 21.6762C85.1649 21.9091 84.6026 22.0913 84.0287 22.2227C83.285 22.3931 82.5218 22.4783 81.7391 22.4783L12.2609 22.4783C11.4782 22.4783 10.7151 22.3931 9.97143 22.2228C9.39748 22.0913 8.83514 21.9091 8.28443 21.6762C7.71858 21.4368 7.1826 21.1518 6.6765 20.821C6.0895 20.4374 5.5427 19.9923 5.03608 19.4857C4.52944 18.979 4.0843 18.4322 3.70066 17.8452C3.36992 17.3391 3.08489 16.8031 2.84557 16.2373C2.61263 15.6866 2.43043 15.1242 2.29897 14.5503C2.12864 13.8066 2.04348 13.0435 2.04348 12.2609C2.04348 11.4782 2.12864 10.7151 2.29896 9.97149C2.43043 9.39751 2.61263 8.83516 2.84557 8.28443C3.08491 7.71858 3.36995 7.18261 3.70071 6.67651C4.08434 6.08951 4.52946 5.5427 5.03608 5.03608C5.54271 4.52946 6.08952 4.08433 6.67653 3.7007C7.18262 3.36994 7.71859 3.0849 8.28443 2.84557C8.83516 2.61263 9.39751 2.43043 9.97148 2.29896C10.7151 2.12864 11.4782 2.04348 12.2609 2.04348Z" fill="rgb(151,151,151)" fill-opacity="0" fill-rule="evenodd" />
			<path id="我的矿机备份 13" d="M47.523 15.4452C47.5123 15.706 47.4818 16.0026 47.4312 16.3352C47.3833 16.6678 47.354 16.8887 47.3434 16.9978C47.2556 17.6284 47.1292 18.094 46.9642 18.3947C46.8019 18.6953 46.5491 18.9082 46.2059 19.0333C45.8627 19.1583 45.3372 19.2368 44.6294 19.2687C43.6822 19.3246 42.5101 19.3526 41.1132 19.3526C39.7402 19.3526 38.5695 19.3246 37.6009 19.2687C36.9251 19.2368 36.4036 19.1437 36.0364 18.9894C35.6719 18.8377 35.4111 18.5823 35.2541 18.2231C35.0972 17.8639 35.0187 17.341 35.0187 16.6545L35.0187 8.91965L36.3078 8.97153L36.3078 11.1427L44.7132 11.1427L44.7132 7.21941L34.5437 7.21941L34.5437 5.96219L46.0183 5.96219L46.0183 12.4039L36.3078 12.4039L36.3078 16.3273C36.3078 16.7956 36.3544 17.1415 36.4475 17.365C36.5406 17.5885 36.7043 17.7441 36.9384 17.8319C37.1726 17.9197 37.5344 17.9796 38.024 18.0115C39.2027 18.0647 40.2817 18.0914 41.2608 18.0914C42.1655 18.0914 43.1633 18.0647 44.2542 18.0115C44.7438 17.9796 45.0977 17.9304 45.3159 17.8639C45.5341 17.7973 45.7004 17.667 45.8148 17.4727C45.9292 17.2758 46.025 16.9645 46.1021 16.5388C46.1553 16.2222 46.1979 15.7046 46.2299 14.9862L47.523 15.4452ZM63.0225 6.58481L63.0225 11.2585L52.7692 11.2585C52.7267 12.8496 52.5111 14.2199 52.1227 15.3694C51.7369 16.5188 51.0916 17.792 50.187 19.1889L49.1413 18.4027C49.7399 17.5299 50.2082 16.7237 50.5462 15.984C50.8841 15.2417 51.1315 14.4381 51.2885 13.5733C51.4482 12.7059 51.528 11.6736 51.528 10.4762L51.528 6.58481L56.9081 6.58481C56.7883 6.02871 56.6021 5.46729 56.3493 4.90054L57.5427 4.68901C57.6518 4.94977 57.7688 5.26241 57.8939 5.62693C58.0216 5.99146 58.1174 6.31075 58.1813 6.58481L63.0225 6.58481ZM52.7692 10.133L61.7613 10.133L61.7613 7.69436L52.7692 7.69436L52.7692 10.133ZM54.669 19.6958L53.4398 19.6958L53.4398 13.3339L62.7112 13.3339L62.7112 19.6958L61.466 19.6958L61.466 18.682L54.669 18.682L54.669 19.6958ZM61.466 17.6004L61.466 14.4474L54.669 14.4474L54.669 17.6004L61.466 17.6004ZM79.3523 8.15334C79.3203 9.27619 79.2738 10.7449 79.2126 12.5596C79.154 14.3742 79.0968 15.8856 79.041 17.0936C79.0197 17.6177 78.9385 18.0155 78.7975 18.2869C78.6565 18.561 78.4223 18.7632 78.095 18.8936C77.7678 19.024 77.2715 19.1277 76.6063 19.2049L75.6564 19.3166L75.2813 18.0435L76.3429 17.9636C76.7793 17.9184 77.0986 17.8559 77.3008 17.776C77.503 17.6936 77.6467 17.5592 77.7318 17.3729C77.8197 17.1867 77.8755 16.898 77.8995 16.5069C77.9421 15.5596 77.9899 14.3663 78.0432 12.9268C78.099 11.4873 78.1429 10.2939 78.1749 9.3467L75.5766 9.3467C75.5101 11.4274 75.4063 13.0106 75.2653 14.0962C75.1243 15.1791 74.8516 16.157 74.4471 17.0297C74.0453 17.9024 73.4028 18.867 72.5194 19.9233L71.4737 19.1889C72.3225 18.239 72.9398 17.3689 73.3256 16.5787C73.7141 15.7884 73.9735 14.8878 74.1039 13.8767C74.2343 12.8629 74.3327 11.3529 74.3992 9.3467L72.4036 9.3467L72.4036 8.15334L74.4152 8.15334L74.479 4.91651L75.6724 4.98036L75.6245 8.15334L79.3523 8.15334ZM66.5845 6.18969L72.3717 6.18969L72.3717 7.35112L66.5845 7.35112L66.5845 6.18969ZM71.7172 18.0594C71.6427 17.7774 71.5615 17.4887 71.4737 17.1933L67.3548 17.78C67.0807 17.8146 66.7375 17.9024 66.3251 18.0435L65.8661 16.8022C66.063 16.725 66.2067 16.6319 66.2971 16.5228C66.3903 16.4137 66.4861 16.2661 66.5845 16.0798C66.824 15.5902 67.118 14.8851 67.4666 13.9645C67.8151 13.0439 68.1038 12.1964 68.3326 11.4221L65.7504 11.4221L65.7504 10.2447L72.8786 10.2447L72.8786 11.4221L69.5939 11.4221C69.3438 12.2736 69.0298 13.2115 68.6519 14.2359C68.2768 15.2603 67.9588 16.0173 67.6981 16.5069L71.0786 16.0479C70.6768 14.9144 70.2737 13.9605 69.8692 13.1862L70.9668 12.7631C71.2835 13.3964 71.6294 14.184 72.0045 15.1259C72.3797 16.0678 72.6378 16.8222 72.7788 17.3889L71.7172 18.0594Z" fill="rgb(255,255,255)" fill-rule="nonzero" />
			<path id="矢量 95" d="M25.203 11.5631L21.116 11.5631L21.116 4.08691L14.3042 13.4322L18.3912 13.4322L18.3912 20.9083L25.203 11.5631Z" fill="rgb(255,255,255)" fill-rule="nonzero" />
		</g>
	</g>
</svg>
