<svg viewBox="0 0 94 24.5217" xmlns="http://www.w3.org/2000/svg" xmlns:xlink="http://www.w3.org/1999/xlink" width="94" height="24.5217285" fill="none" customFrame="#000000">
	<g id="组合 3150">
		<g id="组合 3151">
			<path id="矩形备份 5" d="M12.2609 0L81.7391 0C88.5106 0 94 5.48938 94 12.2609C94 19.0324 88.5106 24.5217 81.7391 24.5217L12.2609 24.5217C5.48938 24.5217 0 19.0324 0 12.2609C0 5.48938 5.48938 0 12.2609 0Z" fill="rgb(60,41,86)" fill-rule="evenodd" />
			<path id="矩形备份 5" d="M81.7391 0L12.2609 0C5.48938 0 0 5.48938 0 12.2609C0 19.0324 5.48938 24.5217 12.2609 24.5217L81.7391 24.5217C88.5106 24.5217 94 19.0324 94 12.2609C94 5.48938 88.5106 0 81.7391 0ZM12.2609 2.04348L81.7391 2.04348C82.5218 2.04348 83.2849 2.12864 84.0285 2.29896C84.6025 2.43043 85.1648 2.61263 85.7156 2.84557C86.2816 3.08499 86.8177 3.37014 87.324 3.70104C87.9108 4.08459 88.4575 4.52961 88.9639 5.03608C89.4706 5.54276 89.9158 6.08964 90.2994 6.67671C90.6301 7.18275 90.9151 7.71866 91.1544 8.28443C91.3873 8.83496 91.5694 9.3971 91.7009 9.97086C91.8713 10.7147 91.9565 11.478 91.9565 12.2609C91.9565 13.0436 91.8713 13.8068 91.701 14.5504C91.5695 15.1244 91.3873 15.6866 91.1544 16.2373C90.9151 16.8032 90.63 17.3393 90.2992 17.8454C89.9156 18.4324 89.4705 18.9791 88.9639 19.4857C88.4574 19.9922 87.9107 20.4373 87.3238 20.8208C86.8176 21.1517 86.2815 21.4368 85.7156 21.6762C85.1649 21.9091 84.6026 22.0913 84.0287 22.2227C83.285 22.3931 82.5218 22.4783 81.7391 22.4783L12.2609 22.4783C11.4782 22.4783 10.7151 22.3931 9.97143 22.2228C9.39748 22.0913 8.83514 21.9091 8.28443 21.6762C7.71858 21.4368 7.1826 21.1518 6.6765 20.821C6.0895 20.4374 5.5427 19.9923 5.03608 19.4857C4.52944 18.979 4.0843 18.4322 3.70066 17.8452C3.36992 17.3391 3.08489 16.8031 2.84557 16.2373C2.61263 15.6866 2.43043 15.1242 2.29897 14.5503C2.12864 13.8066 2.04348 13.0435 2.04348 12.2609C2.04348 11.4782 2.12864 10.7151 2.29896 9.97149C2.43043 9.39751 2.61263 8.83516 2.84557 8.28443C3.08491 7.71858 3.36995 7.18261 3.70071 6.67651C4.08434 6.08951 4.52946 5.5427 5.03608 5.03608C5.54271 4.52946 6.08952 4.08433 6.67653 3.7007C7.18262 3.36994 7.71859 3.0849 8.28443 2.84557C8.83516 2.61263 9.39751 2.43043 9.97148 2.29896C10.7151 2.12864 11.4782 2.04348 12.2609 2.04348Z" fill="rgb(151,151,151)" fill-opacity="0" fill-rule="evenodd" />
			<g id="组合 3193">
				<g id="组合 3095">
					<rect id="矩形 1506" width="10.8985434" height="6.74347448" x="16.3481445" y="11.647583" rx="1.36231768" stroke="rgb(255,255,255)" stroke-linejoin="round" stroke-width="1.36231768" />
					<path id="矢量 82" d="M18.7695 11.6476L18.7695 9.19547C18.7695 7.50259 20.1249 6.13025 21.7969 6.13025C23.4689 6.13025 24.8243 7.50259 24.8243 9.19547L24.8243 11.6476" fill-rule="nonzero" stroke="rgb(255,255,255)" stroke-linecap="round" stroke-linejoin="round" stroke-width="1.36231768" />
					<path id="矢量 83" d="M21.7974 14.0997L21.7974 15.9389" stroke="rgb(255,255,255)" stroke-linecap="round" stroke-linejoin="round" stroke-width="1.36231768" />
				</g>
			</g>
			<path id="我的矿机备份 13" d="M38.2715 5.68281C37.867 6.28415 37.275 6.99058 36.4954 7.80212C35.7158 8.61366 34.9615 9.33606 34.2324 9.96932L33.4302 9.03539C34.106 8.51388 34.8311 7.84469 35.6054 7.02783C36.3797 6.20831 36.9743 5.49922 37.3894 4.90054L38.2715 5.68281ZM47.95 11.2904L45.3797 11.2904L45.3797 13.1383L47.539 13.1383L47.539 14.2518L45.3797 14.2518L45.3797 17.4368C45.3797 17.961 45.3225 18.3534 45.2081 18.6142C45.0937 18.8776 44.8782 19.0718 44.5615 19.1969C44.2476 19.322 43.758 19.4111 43.0928 19.4643L42.2267 19.5322L41.8515 18.3867L42.8134 18.3228C43.2178 18.2882 43.5092 18.2377 43.6875 18.1712C43.8684 18.1073 43.9881 17.9996 44.0467 17.8479C44.1079 17.6962 44.1385 17.4568 44.1385 17.1295L44.1385 14.2518L38.04 14.2518L38.04 13.1383L44.1385 13.1383L44.1385 11.2904L37.6967 11.2904L37.6967 10.1809L41.9832 10.1809L41.9832 8.15334L38.7105 8.15334L38.7105 7.02384L41.9832 7.02384L41.9832 4.99633L43.2564 5.04821L43.2564 7.02384L46.8844 7.02384L46.8844 8.15334L43.2564 8.15334L43.2564 10.1809L47.95 10.1809L47.95 11.2904ZM38.1078 9.29881C37.7805 9.89748 37.3176 10.5999 36.7189 11.4061L36.7189 19.6639L35.5734 19.6639L35.5734 12.811C34.9508 13.5082 34.3734 14.0922 33.8413 14.5632L33.0869 13.6292C33.7628 13.0731 34.4985 12.3161 35.2941 11.3583C36.0896 10.3977 36.7162 9.51965 37.1739 8.72408L38.1078 9.29881ZM39.6923 14.5632C40.0196 14.8665 40.4094 15.2563 40.8617 15.7326C41.3141 16.2062 41.6493 16.5893 41.8675 16.882L41.0334 17.8798C40.7939 17.51 40.456 17.0723 40.0196 16.5667C39.5832 16.0585 39.2067 15.6567 38.8901 15.3614L39.6923 14.5632ZM58.0176 6.46907L58.0176 11.4381L53.4398 11.4381L53.4398 6.46907L54.8646 6.46907L55.0442 5.94623C55.2278 5.42205 55.3369 5.08413 55.3715 4.93247L56.4491 5.11207L55.9741 6.46907L58.0176 6.46907ZM63.2181 19.5322C62.3028 18.4971 61.5565 17.4448 60.9791 16.3751C60.3671 17.3889 59.4997 18.4572 58.3768 19.5801L57.5626 18.8138C58.2358 18.1911 58.8039 17.5911 59.2669 17.0137C59.7325 16.4363 60.117 15.8417 60.4203 15.2297C59.9201 14.0749 59.5276 12.7126 59.2429 11.1427C59.07 11.5791 58.9077 11.9609 58.756 12.2882L57.9538 11.7813C58.7387 10.0598 59.3813 7.78216 59.8815 4.94843L60.9112 5.06418C60.7596 5.94756 60.5746 6.81364 60.3564 7.66243L63.741 7.66243L63.741 8.75601L62.8589 8.75601C62.7259 10.2727 62.5689 11.5245 62.388 12.5117C62.2097 13.4962 61.9356 14.4022 61.5658 15.2297C62.1751 16.4403 63.0252 17.5738 64.1161 18.6302L63.2181 19.5322ZM52.3621 8.62829C52.112 8.29037 51.7329 7.88726 51.2247 7.41897C50.7191 6.94801 50.2921 6.5928 49.9435 6.35333L50.5621 5.50321C50.8894 5.72139 51.3151 6.04601 51.8393 6.47705C52.3635 6.9081 52.7613 7.26996 53.0327 7.56265L52.3621 8.62829ZM57.0198 8.52851L57.0198 7.403L54.4056 7.403L54.4056 8.52851L57.0198 8.52851ZM60.9791 13.9246C61.2079 13.2381 61.3902 12.4864 61.5259 11.6696C61.6616 10.85 61.7733 9.87886 61.8611 8.75601L60.0611 8.75601L59.8815 9.36267C60.1662 11.2039 60.5321 12.7246 60.9791 13.9246ZM51.7555 12.1565C51.5054 11.8186 51.1209 11.4155 50.602 10.9472C50.0858 10.4789 49.6375 10.1143 49.257 9.85358L49.8437 8.97153C50.2162 9.22165 50.6739 9.56755 51.2167 10.0092C51.7621 10.4509 52.1719 10.8128 52.446 11.0948L51.7555 12.1565ZM54.4056 9.42653L54.4056 10.5401L57.0198 10.5401L57.0198 9.42653L54.4056 9.42653ZM57.9378 14.9703L57.9059 15.525L57.7901 17.4727C57.7582 17.8958 57.681 18.2244 57.5586 18.4585C57.4389 18.6953 57.254 18.871 57.0039 18.9854C56.7538 19.0998 56.3945 19.1783 55.9263 19.2209L55.2078 19.2847L54.8646 18.3069L55.7307 18.2231C56.1431 18.1805 56.4172 18.102 56.5529 17.9876C56.6912 17.8732 56.7764 17.6417 56.8083 17.2931C56.8535 16.91 56.8868 16.4523 56.9081 15.9202L54.7967 15.9202C54.6664 16.6705 54.4349 17.3184 54.1023 17.8639C53.7697 18.4093 53.2442 19.0306 52.5258 19.7277L51.7076 19.0412C52.2956 18.4958 52.7373 18.0142 53.0327 17.5964C53.328 17.176 53.5435 16.7264 53.6792 16.2474C53.8149 15.7658 53.9041 15.1499 53.9466 14.3995C53.9706 14.2026 53.9826 14.011 53.9826 13.8248L52.4938 13.8248L52.4938 12.843L55.4194 12.843C55.289 12.4199 55.1639 12.0554 55.0442 11.7494L56.042 11.5698C56.183 11.9183 56.3347 12.3427 56.497 12.843L58.8198 12.843L58.8198 13.8248L54.9604 13.8248C54.9604 14.1095 54.9551 14.3011 54.9444 14.3995L54.9125 14.9703L57.9378 14.9703ZM51.4961 13.4017L52.0668 13.5494C51.9683 14.3343 51.7714 15.3428 51.4761 16.5747C51.1834 17.804 50.912 18.7619 50.6619 19.4483L49.5683 19.157C49.8184 18.5024 50.0925 17.5619 50.3905 16.3352C50.6912 15.1086 50.9014 14.0922 51.0211 13.286L51.4961 13.4017ZM80.1705 10.8514L75.3811 10.8514L75.3811 13.3179L78.7456 13.3179L78.7456 19.5641L77.5044 19.5641L77.5044 18.6661L72.0604 18.6661L72.0604 19.5641L70.8351 19.5641L70.8351 13.3179L74.1039 13.3179L74.1039 10.8514L69.9211 10.8514L69.9211 9.67398L74.1039 9.67398L74.1039 6.99191C72.9278 7.09036 71.7238 7.17285 70.4919 7.23937L70.2963 6.0939C71.5495 6.03802 73.0422 5.92893 74.7744 5.76662C76.5066 5.60166 77.8915 5.4327 78.9292 5.25975L79.1567 6.40521C77.9141 6.58881 76.6556 6.74047 75.3811 6.8602L75.3811 9.67398L80.1705 9.67398L80.1705 10.8514ZM69.2506 8.79193C68.9021 8.43272 68.4218 8.01099 67.8098 7.52673C67.2005 7.03981 66.6883 6.66597 66.2732 6.40521L66.9437 5.45531C67.3588 5.69478 67.8763 6.04334 68.4963 6.501C69.1189 6.95865 69.5939 7.34047 69.9211 7.64646L69.2506 8.79193ZM66.1774 9.15113C66.6138 9.41189 67.1632 9.79371 67.8258 10.2966C68.491 10.7968 68.9978 11.2053 69.3464 11.5219L68.644 12.6993C68.306 12.3374 67.8098 11.8984 67.1553 11.3822C66.5034 10.8633 65.9486 10.4523 65.4909 10.1489L66.1774 9.15113ZM68.7437 13.8088L69.3464 14.0363C69.1735 14.7361 68.8768 15.6527 68.4564 16.7862C68.036 17.9197 67.6568 18.8071 67.3189 19.4483L66.1415 19.0253C66.4688 18.4373 66.8479 17.5712 67.279 16.427C67.71 15.2802 68.012 14.3423 68.185 13.6133L68.7437 13.8088ZM72.0604 17.4887L77.5044 17.4887L77.5044 14.4793L72.0604 14.4793L72.0604 17.4887Z" fill="rgb(255,255,255)" fill-rule="nonzero" />
		</g>
	</g>
</svg>
