<svg viewBox="0 0 15.0117 16.0107" xmlns="http://www.w3.org/2000/svg" xmlns:xlink="http://www.w3.org/1999/xlink" width="15.0117188" height="16.0107422" fill="none" customFrame="#000000">
	<g id="_图层_1-2">
		<g id="g">
			<path id="path" d="M14.2755 6.13934C14.6764 6.13934 15 5.79609 15 5.37468L15 4.58454C15 2.05607 13.0519 3.86361e-14 10.6563 3.86361e-14L4.34367 3.86361e-14C1.94805 -3.24103e-07 0 2.05607 0 4.58454L0 11.4155C0 13.9439 1.94805 16 4.34367 16L10.6563 16C13.0519 16 15 13.9439 15 11.4155L15 10.2192C15 9.79609 14.6748 9.45455 14.2755 9.45455C13.8762 9.45455 13.551 9.79779 13.551 10.2192L13.551 11.4155C13.551 13.0994 12.2534 14.469 10.6579 14.469L4.34367 14.469C2.7482 14.469 1.45057 13.0994 1.45057 11.4155L1.45057 4.58454C1.45057 2.90059 2.7482 1.53101 4.34367 1.53101L10.6563 1.53101C12.2518 1.53101 13.5494 2.90059 13.5494 4.58454L13.5494 5.37468C13.5494 5.79779 13.8762 6.13934 14.2755 6.13934Z" fill="rgb(58,58,63)" fill-rule="nonzero" transform="matrix(1,0.000727309,-0.000727309,1,0.0117188,0)" />
			<path id="path" d="M0 2.41576C0 2.83887 0.325212 3.18041 0.724482 3.18041L8.34443 3.18041C8.65354 3.18041 8.92884 2.9731 9.03027 2.66384C9.1317 2.35458 9.0351 2.01304 8.79199 1.81253L6.79242 0.16257C6.47687 -0.0974135 6.02125 -0.0396395 5.77493 0.293411C5.5286 0.626461 5.58334 1.10734 5.89889 1.36733L6.24182 1.6494L0.726092 1.6494C0.325212 1.6494 0 1.99435 0 2.41576Z" fill="rgb(58,58,63)" fill-rule="nonzero" transform="matrix(1,0.000727309,-0.000727309,1,2.88721,4.31543)" />
			<path id="path" d="M9.07014 0.764656C9.07014 0.341546 8.74493 0 8.34566 0L0.725718 0C0.416605 0 0.141302 0.207307 0.0398747 0.516568C-0.0615527 0.825828 0.0350447 1.16737 0.278149 1.36788L2.27772 3.01784C2.40974 3.12659 2.56751 3.18097 2.72368 3.18097C2.93941 3.18097 3.15193 3.08071 3.29521 2.887C3.54154 2.55395 3.4868 2.07307 3.17125 1.81308L2.82994 1.53101L8.34727 1.53101C8.74815 1.53101 9.07014 1.18607 9.07014 0.764656Z" fill="rgb(58,58,63)" fill-rule="nonzero" transform="matrix(1,0.000727309,-0.000727309,1,2.88452,8.53027)" />
		</g>
	</g>
</svg>
