<svg viewBox="0 0 94.2617 24.59" xmlns="http://www.w3.org/2000/svg" xmlns:xlink="http://www.w3.org/1999/xlink" width="94.2617188" height="24.5899658" fill="none" customFrame="#000000">
	<g id="组合 3154">
		<g id="组合 3151">
			<path id="矩形备份 5" d="M12.295 0L81.9667 0C88.757 0 94.2617 5.50466 94.2617 12.295C94.2617 19.0853 88.757 24.59 81.9667 24.59L12.295 24.59C5.50466 24.59 0 19.0853 0 12.295C0 5.50466 5.50466 0 12.295 0Z" fill="rgb(60,41,86)" fill-rule="evenodd" />
			<path id="矩形备份 5" d="M81.9667 0L12.295 0C5.50466 0 0 5.50466 0 12.295C0 19.0853 5.50466 24.59 12.295 24.59L81.9667 24.59C88.757 24.59 94.2617 19.0853 94.2617 12.295C94.2617 5.50466 88.757 0 81.9667 0ZM12.295 2.04917L81.9667 2.04917C82.7515 2.04917 83.5167 2.13456 84.2624 2.30536C84.838 2.43719 85.4019 2.6199 85.9542 2.85349C86.5216 3.0935 87.0591 3.37934 87.5666 3.71103C88.1552 4.09572 88.7035 4.54208 89.2116 5.0501C89.7196 5.55815 90.166 6.1065 90.5507 6.69516C90.8824 7.20265 91.1682 7.74009 91.4082 8.30749C91.6418 8.85982 91.8245 9.4238 91.9563 9.99944C92.1271 10.7451 92.2125 11.5103 92.2125 12.295C92.2125 13.0797 92.1271 13.8449 91.9564 14.5906C91.8245 15.1662 91.6418 15.7302 91.4082 16.2825C91.1682 16.8499 90.8824 17.3874 90.5507 17.8948C90.166 18.4835 89.7196 19.0319 89.2116 19.5399C88.7035 20.048 88.1551 20.4944 87.5664 20.8791C87.059 21.2107 86.5216 21.4965 85.9542 21.7365C85.4019 21.9701 84.838 22.1528 84.2624 22.2846C83.5167 22.4554 82.7515 22.5408 81.9667 22.5408L12.295 22.5408C11.5101 22.5408 10.7448 22.4554 9.99912 22.2846C9.42359 22.1528 8.85971 21.9701 8.30749 21.7365C7.74006 21.4965 7.20259 21.2107 6.69508 20.879C6.10645 20.4943 5.55813 20.0479 5.0501 19.5399C4.54207 19.0319 4.09571 18.4835 3.71101 17.8949C3.37933 17.3874 3.09349 16.8499 2.85349 16.2825C2.61989 15.7302 2.43718 15.1663 2.30535 14.5907C2.13456 13.845 2.04917 13.0798 2.04917 12.295C2.04917 11.5102 2.13456 10.7449 2.30536 9.99926C2.43719 9.42368 2.6199 8.85976 2.85349 8.30749C3.0935 7.74005 3.37934 7.20258 3.71103 6.69507C4.09572 6.10644 4.54208 5.55812 5.0501 5.0501C5.55813 4.54207 6.10646 4.09571 6.6951 3.71101C7.2026 3.37933 7.74007 3.09349 8.30749 2.85349C8.85977 2.6199 9.4237 2.43719 9.99929 2.30535C10.745 2.13456 11.5102 2.04917 12.295 2.04917Z" fill="rgb(151,151,151)" fill-opacity="0" fill-rule="evenodd" />
			<path id="我的矿机备份 13" d="M54.2948 16.3282C54.0654 17.1367 53.8025 17.8357 53.5064 18.4254C53.3436 18.7749 53.1248 19.0458 52.85 19.2379C52.5779 19.43 52.2723 19.526 51.9335 19.526C51.5172 19.526 51.137 19.3993 50.7928 19.1458C50.4486 18.895 50.0698 18.4307 49.6562 17.753C49.4587 17.4355 49.2666 17.0313 49.0799 16.5403C47.8018 17.2634 46.3436 17.8971 44.7054 18.4414L44.1811 17.3448C45.8754 16.8752 47.3882 16.2522 48.7197 15.4757C48.4795 14.5899 48.2727 13.6067 48.0993 12.526L45.886 12.8342L45.786 11.7216L47.9512 11.4094C47.8845 10.9612 47.8138 10.3381 47.7391 9.54035L46.0661 9.73646L45.9661 8.62383L47.639 8.42772L47.639 8.32766C47.5963 7.73799 47.5577 7.10163 47.523 6.41857C47.491 5.73552 47.4696 5.21922 47.4589 4.86969L48.6236 4.91772C48.6343 5.21389 48.6529 5.67415 48.6796 6.2985C48.7063 6.92019 48.7423 7.5859 48.7877 8.29564L53.1622 7.77134L53.2622 8.89999L48.8837 9.40827C48.9184 9.88054 48.9785 10.4982 49.0639 11.2613L53.4584 10.641L53.5744 11.7696L49.2279 12.378C49.3827 13.3839 49.5575 14.2083 49.7522 14.8514C50.7048 14.2297 51.6346 13.4706 52.5418 12.5741L53.2142 13.4586C52.251 14.3978 51.2117 15.2236 50.0964 15.936C50.3046 16.4376 50.518 16.8578 50.7368 17.1967C50.9876 17.5676 51.2024 17.8277 51.3812 17.9772C51.5626 18.1239 51.7467 18.1973 51.9335 18.1973C52.1416 18.1973 52.3057 18.1399 52.4258 18.0252C52.5458 17.9104 52.6659 17.7103 52.786 17.4248C52.9834 16.9552 53.1528 16.3656 53.2943 15.6558L54.2948 16.3282ZM51.5573 7.83538C51.3492 7.53121 51.037 7.15766 50.6207 6.71474C50.2072 6.27182 49.8576 5.93029 49.5721 5.69016L50.2966 5.00177C50.5794 5.23123 50.9276 5.54874 51.3411 5.95431C51.7574 6.3572 52.0749 6.68939 52.2937 6.95088L51.5573 7.83538ZM45.6379 9.29621L45.6379 10.4088C45.4191 11.7536 45.1243 12.9263 44.7534 13.9268C44.3825 14.9274 43.8822 15.876 43.2525 16.7725C42.6255 17.6663 41.7984 18.6335 40.7711 19.6741L39.8346 18.8537C41.2994 17.5089 42.376 16.1761 43.0644 14.8554C43.7528 13.532 44.2291 12.0551 44.4932 10.4249L42.4081 10.4249C42.1893 11.0279 41.9985 11.5095 41.8357 11.8697C42.5348 12.382 43.0431 12.8075 43.3606 13.1464L42.7683 14.131C42.6055 13.9335 42.3961 13.7067 42.1399 13.4506C41.8838 13.1944 41.6343 12.9676 41.3915 12.7702C41.0873 13.3705 40.7431 13.9602 40.3589 14.5392L39.4744 13.8028C40.0987 12.941 40.6457 11.9124 41.1153 10.717C41.5849 9.519 41.9238 8.32899 42.1319 7.14699L40.1628 7.14699L40.1628 6.01834L46.4744 6.01834L46.4744 7.14699L43.3286 7.14699C43.1845 7.85672 43.0044 8.57313 42.7883 9.29621L45.6379 9.29621ZM70.3618 7.14699L70.3618 8.2316L66.2115 8.2316C65.982 8.76524 65.7112 9.31622 65.399 9.88455C65.0895 10.4529 64.8093 10.9065 64.5585 11.2453L66.8999 11.0972C67.3161 10.4755 67.7203 9.75514 68.1125 8.93601L69.1131 9.2802C68.3153 10.8971 67.4215 12.2712 66.4316 13.4025C65.4444 14.5339 64.2397 15.5851 62.8175 16.5563L62.1652 15.6398C63.0483 15.0288 63.7981 14.4551 64.4144 13.9188C65.0335 13.3825 65.5951 12.8089 66.0994 12.1979L65.327 12.2459L63.9982 12.3259C63.8034 12.3393 63.5686 12.3886 63.2938 12.474L63.0497 11.3454C63.2685 11.268 63.4379 11.1533 63.558 11.0012C63.7767 10.7157 64.0249 10.3141 64.3024 9.7965C64.5825 9.2762 64.8374 8.75457 65.0668 8.2316L62.6895 8.2316L62.6895 7.14699L66.0154 7.14699C65.8072 6.33853 65.6058 5.67815 65.411 5.16586L66.5717 4.93373C66.7264 5.31795 66.9626 6.0557 67.2801 7.14699L70.3618 7.14699ZM62.7215 10.1807L62.7215 12.9663L61.6889 12.9663L61.6889 11.1132L56.9342 11.1132L56.9342 13.0824L55.8856 13.0824L55.8856 10.1807L56.9022 10.1807L56.9022 5.63813L61.821 5.63813L61.821 10.1807L62.7215 10.1807ZM60.8204 10.1807L60.8204 6.6387L57.9027 6.6387L57.9027 7.78735L59.8999 7.78735L59.8999 10.1807L60.8204 10.1807ZM59.0634 8.71988L57.9027 8.71988L57.9027 10.1807L59.0634 10.1807L59.0634 8.71988ZM57.0142 19.5901L57.0142 12.0178L61.5568 12.0178L61.5568 18.2933C61.5568 18.7523 61.4768 19.0751 61.3167 19.2619C61.1593 19.4487 60.8351 19.5634 60.3441 19.6061L59.7038 19.6741L59.4436 18.7216L60.0159 18.6735C60.2774 18.6495 60.4495 18.5882 60.5322 18.4894C60.6149 18.3934 60.6563 18.2133 60.6563 17.9491L60.6563 17.1647L57.9828 17.1647L57.9828 19.5901L57.0142 19.5901ZM70.2618 18.9017L69.4733 19.9343C69.1905 19.518 68.7809 19.0364 68.2446 18.4894C67.7083 17.9451 67.1947 17.4649 66.7038 17.0486C65.7645 17.9238 64.4758 18.8416 62.8375 19.8022L62.0171 18.8537C63.7221 17.9678 65.0855 17.05 66.1074 16.1001C67.1293 15.1475 68.0605 13.9175 68.901 12.41L69.8335 12.8702C69.1024 14.247 68.3273 15.3783 67.5082 16.2642C67.9778 16.6457 68.4821 17.0913 69.0211 17.6009C69.5627 18.1079 69.9763 18.5415 70.2618 18.9017ZM60.6563 14.147L60.6563 12.9823L57.9828 12.9823L57.9828 14.147L60.6563 14.147ZM57.9828 15.0675L57.9828 16.2442L60.6563 16.2442L60.6563 15.0675L57.9828 15.0675Z" fill="rgb(255,255,255)" fill-rule="nonzero" />
			<path id="减去顶层" d="M27.0233 6.14746L27.0233 6.83052L24.4619 6.83052C24.4342 6.83052 24.4066 6.83115 24.3791 6.83242L24.379 6.83242C24.3438 6.83404 24.3087 6.8367 24.2736 6.84038C24.211 6.84696 24.1488 6.8568 24.0871 6.86989C24.0254 6.88298 23.9644 6.89927 23.9042 6.91875C23.844 6.93823 23.7848 6.96082 23.7267 6.9865C23.6686 7.01218 23.6118 7.04084 23.5563 7.07248C23.5008 7.10412 23.4469 7.13858 23.3946 7.17586C23.3422 7.21315 23.2918 7.25308 23.2431 7.29566C23.1945 7.33823 23.1479 7.38325 23.1034 7.4307C23.059 7.47816 23.0168 7.52783 22.9768 7.57971C22.9369 7.63158 22.8995 7.68542 22.8645 7.74123C22.8296 7.79703 22.7973 7.85452 22.7676 7.91371C22.738 7.9729 22.7111 8.0335 22.687 8.0955C22.686 8.09806 22.685 8.10062 22.684 8.10319L22.6825 8.10708C22.6603 8.16536 22.6406 8.22461 22.6235 8.28484C22.6052 8.34906 22.59 8.41409 22.5777 8.47991C22.5654 8.54573 22.5562 8.61204 22.55 8.67883C22.5439 8.74562 22.5408 8.81257 22.5408 8.87968L22.5408 10.9289C22.5408 11.0407 22.5459 11.1523 22.5562 11.2636C22.5665 11.3749 22.5818 11.4854 22.6023 11.5951C22.6228 11.7048 22.6482 11.8132 22.6786 11.9203C22.7091 12.0273 22.7444 12.1325 22.7845 12.2358C22.8246 12.3392 22.8694 12.4402 22.9188 12.5388C22.9683 12.6374 23.0221 12.7333 23.0804 12.8263C23.1386 12.9193 23.201 13.009 23.2676 13.0955C23.3341 13.1819 23.4044 13.2647 23.4786 13.3438C23.5527 13.4229 23.6303 13.4979 23.7114 13.5689C23.7924 13.6399 23.8766 13.7064 23.9638 13.7685C24.0509 13.8307 24.1408 13.8881 24.2333 13.9409C24.3257 13.9936 24.4204 14.0413 24.5173 14.0842C24.6142 14.127 24.7128 14.1646 24.8132 14.1971C24.9135 14.2295 25.0151 14.2567 25.118 14.2785C25.2208 14.3003 25.3244 14.3167 25.4288 14.3277C25.5331 14.3386 25.6377 14.3441 25.7426 14.3441L29.5848 14.3441C29.6896 14.3441 29.7943 14.3386 29.8986 14.3277C30.003 14.3167 30.1066 14.3003 30.2094 14.2785C30.3123 14.2567 30.4139 14.2295 30.5142 14.1971C30.6146 14.1646 30.7132 14.127 30.8101 14.0842C30.9069 14.0413 31.0016 13.9936 31.0941 13.9409C31.1866 13.8881 31.2764 13.8307 31.3636 13.7685C31.4508 13.7064 31.5349 13.6399 31.616 13.5689C31.6971 13.4979 31.7747 13.4229 31.8488 13.3438C31.923 13.2647 31.9933 13.1819 32.0598 13.0955C32.1264 13.009 32.1887 12.9193 32.247 12.8263C32.3053 12.7333 32.3591 12.6374 32.4085 12.5388C32.458 12.4402 32.5028 12.3392 32.5429 12.2358C32.583 12.1325 32.6183 12.0273 32.6487 11.9203C32.6792 11.8132 32.7046 11.7048 32.7251 11.5951C32.7455 11.4854 32.7609 11.3749 32.7712 11.2636C32.7815 11.1523 32.7866 11.0407 32.7866 10.9289L32.7866 8.87968C32.7866 8.81257 32.7835 8.74562 32.7774 8.67883C32.7712 8.61204 32.762 8.54573 32.7497 8.47991C32.7374 8.41409 32.7221 8.34906 32.7039 8.28484C32.6856 8.22062 32.6644 8.15751 32.6404 8.0955C32.6163 8.0335 32.5894 7.9729 32.5598 7.91371C32.5301 7.85452 32.4978 7.79703 32.4628 7.74123C32.4279 7.68542 32.3904 7.63158 32.3505 7.57971C32.3106 7.52783 32.2684 7.47816 32.2239 7.4307C32.1794 7.38325 32.1329 7.33823 32.0842 7.29566C32.0356 7.25308 31.9851 7.21315 31.9328 7.17586C31.8805 7.13858 31.8266 7.10412 31.7711 7.07248C31.7166 7.04138 31.6607 7.01315 31.6036 6.9878L31.6007 6.9865C31.5426 6.96082 31.4834 6.93823 31.4232 6.91875C31.363 6.89927 31.302 6.88298 31.2403 6.86989C31.1786 6.8568 31.1164 6.84696 31.0538 6.84038C30.9912 6.83381 30.9284 6.83052 30.8655 6.83052L28.3041 6.83052L28.3041 6.14746L27.0233 6.14746ZM23.8215 8.87968C23.8215 8.83483 23.8256 8.79041 23.8338 8.74643C23.842 8.70244 23.8542 8.65973 23.8702 8.61829C23.8863 8.57685 23.9061 8.53749 23.9294 8.5002C23.9528 8.46291 23.9793 8.4284 24.0091 8.39669C24.0388 8.36498 24.0711 8.33666 24.1061 8.31174C24.1411 8.28683 24.178 8.26579 24.2168 8.24862C24.2557 8.23146 24.2957 8.2185 24.3369 8.20975C24.3782 8.201 24.4198 8.19663 24.4619 8.19663L30.8655 8.19663C30.9076 8.19663 30.9492 8.201 30.9904 8.20975C31.0317 8.2185 31.0717 8.23146 31.1106 8.24862C31.1494 8.26579 31.1863 8.28683 31.2213 8.31174C31.2562 8.33666 31.2886 8.36497 31.3183 8.39669C31.348 8.4284 31.3746 8.46291 31.398 8.5002C31.4213 8.53749 31.441 8.57685 31.4571 8.61829C31.4732 8.65972 31.4854 8.70244 31.4936 8.74643C31.5018 8.79041 31.5059 8.83483 31.5059 8.87968L31.5059 10.9289C31.5059 10.967 31.5049 11.0051 31.5029 11.0432C31.5014 11.0721 31.4993 11.1009 31.4966 11.1297C31.4905 11.1965 31.4812 11.2628 31.469 11.3286C31.4567 11.3944 31.4414 11.4595 31.4232 11.5237C31.4049 11.5879 31.3837 11.651 31.3596 11.713C31.3356 11.775 31.3087 11.8356 31.279 11.8948C31.2494 11.954 31.2171 12.0115 31.1821 12.0673C31.1472 12.1231 31.1097 12.1769 31.0698 12.2288C31.0299 12.2807 30.9877 12.3304 30.9432 12.3778C30.8987 12.4253 30.8521 12.4703 30.8035 12.5129C30.7549 12.5555 30.7044 12.5954 30.6521 12.6327C30.5998 12.67 30.5459 12.7044 30.4904 12.7361C30.4357 12.7672 30.3797 12.7955 30.3225 12.8209L30.3224 12.8209L30.32 12.822C30.2618 12.8477 30.2027 12.8703 30.1424 12.8898C30.0822 12.9093 30.0213 12.9255 29.9596 12.9386C29.8979 12.9517 29.8357 12.9616 29.7731 12.9681C29.7105 12.9747 29.6477 12.978 29.5848 12.978L25.7426 12.978C25.6797 12.978 25.6169 12.9747 25.5543 12.9681C25.4917 12.9616 25.4295 12.9517 25.3678 12.9386C25.3061 12.9255 25.2451 12.9093 25.1849 12.8898C25.1247 12.8703 25.0656 12.8477 25.0074 12.822C24.9493 12.7963 24.8925 12.7677 24.837 12.7361C24.7815 12.7044 24.7276 12.67 24.6753 12.6327C24.623 12.5954 24.5725 12.5555 24.5239 12.5129C24.4752 12.4703 24.4287 12.4253 24.3842 12.3778C24.3397 12.3304 24.2975 12.2807 24.2576 12.2288C24.2177 12.1769 24.1802 12.1231 24.1453 12.0673C24.1103 12.0115 24.078 11.954 24.0483 11.8948C24.0187 11.8356 23.9918 11.775 23.9677 11.713C23.9437 11.651 23.9225 11.5879 23.9042 11.5237C23.886 11.4595 23.8707 11.3944 23.8584 11.3286C23.8461 11.2628 23.8369 11.1965 23.8308 11.1297C23.8281 11.1009 23.826 11.072 23.8245 11.0432L23.8245 11.0429C23.8225 11.005 23.8215 10.9669 23.8215 10.9289L23.8215 8.87968ZM26.0628 11.6119C26.1258 11.6119 26.1883 11.6053 26.2502 11.5922C26.312 11.5791 26.3721 11.5597 26.4304 11.5339C26.4886 11.5082 26.544 11.4766 26.5964 11.4392C26.6489 11.4019 26.6974 11.3594 26.742 11.3118C26.7497 11.3036 26.7572 11.2953 26.7646 11.2869L26.765 11.2865L26.765 11.2864C26.8004 11.246 26.8325 11.2027 26.8614 11.1565C26.8965 11.1006 26.9261 11.0416 26.9502 10.9794C26.9743 10.9173 26.9926 10.8532 27.0049 10.7872C27.0172 10.7212 27.0233 10.6546 27.0233 10.5873C27.0233 10.52 27.0172 10.4534 27.0049 10.3874C26.9926 10.3215 26.9743 10.2574 26.9502 10.1952C26.9261 10.1331 26.8965 10.074 26.8614 10.0181C26.8264 9.96216 26.7866 9.9104 26.742 9.86283C26.6974 9.81526 26.6489 9.77279 26.5964 9.73541C26.544 9.69804 26.4886 9.66648 26.4304 9.64073C26.3721 9.61499 26.312 9.59555 26.2502 9.58243C26.1883 9.5693 26.1258 9.56274 26.0628 9.56274C26.035 9.56274 26.0074 9.56401 25.9799 9.56654L25.9799 9.56655C25.9448 9.56979 25.91 9.57508 25.8754 9.58243C25.8135 9.59555 25.7535 9.61499 25.6952 9.64073C25.6369 9.66648 25.5816 9.69804 25.5291 9.73541C25.5195 9.74225 25.5101 9.74926 25.5007 9.75644L25.5007 9.75645C25.459 9.78851 25.42 9.82397 25.3836 9.86283C25.339 9.9104 25.2992 9.96216 25.2641 10.0181C25.2291 10.074 25.1995 10.1331 25.1753 10.1952C25.1512 10.2574 25.133 10.3215 25.1207 10.3874C25.1084 10.4534 25.1022 10.52 25.1022 10.5873C25.1022 10.6546 25.1084 10.7212 25.1207 10.7872C25.133 10.8532 25.1512 10.9173 25.1753 10.9794C25.1995 11.0416 25.2291 11.1006 25.2641 11.1565C25.2992 11.2125 25.339 11.2642 25.3836 11.3118C25.42 11.3507 25.4591 11.3861 25.5007 11.4182L25.5008 11.4182C25.5101 11.4254 25.5195 11.4324 25.5291 11.4392C25.5816 11.4766 25.6369 11.5082 25.6952 11.5339C25.7535 11.5597 25.8135 11.5791 25.8754 11.5922C25.9372 11.6053 25.9997 11.6119 26.0628 11.6119ZM29.2646 11.6119C29.3277 11.6119 29.3901 11.6053 29.452 11.5922C29.5139 11.5791 29.5739 11.5597 29.6322 11.5339C29.6905 11.5082 29.7458 11.4766 29.7983 11.4392C29.8507 11.4019 29.8992 11.3594 29.9438 11.3118C29.9884 11.2642 30.0282 11.2125 30.0633 11.1565C30.0983 11.1006 30.1279 11.0416 30.152 10.9794C30.1762 10.9173 30.1944 10.8532 30.2067 10.7872C30.219 10.7212 30.2251 10.6546 30.2251 10.5873C30.2251 10.52 30.219 10.4534 30.2067 10.3874C30.1944 10.3215 30.1762 10.2574 30.152 10.1952C30.1279 10.1331 30.0983 10.074 30.0633 10.0181C30.0282 9.96216 29.9884 9.9104 29.9438 9.86283C29.8992 9.81526 29.8507 9.77279 29.7983 9.73541C29.7458 9.69804 29.6905 9.66648 29.6322 9.64073C29.5739 9.61499 29.5139 9.59555 29.452 9.58243C29.4174 9.57508 29.3825 9.56979 29.3475 9.56655L29.3475 9.56655C29.32 9.56401 29.2923 9.56274 29.2646 9.56274C29.2369 9.56274 29.2092 9.56401 29.1817 9.56655C29.1467 9.56978 29.1119 9.57507 29.0772 9.58243C29.0569 9.58672 29.0369 9.5917 29.017 9.59735L29.017 9.59736C28.9762 9.60896 28.9362 9.62342 28.897 9.64073C28.8387 9.66648 28.7834 9.69804 28.7309 9.73541C28.6785 9.77279 28.63 9.81526 28.5854 9.86283C28.5408 9.9104 28.501 9.96216 28.4659 10.0181C28.4309 10.074 28.4013 10.1331 28.3772 10.1952C28.353 10.2574 28.3348 10.3215 28.3225 10.3874C28.3102 10.4534 28.3041 10.52 28.3041 10.5873C28.3041 10.6546 28.3102 10.7212 28.3225 10.7872C28.3348 10.8532 28.353 10.9173 28.3772 10.9794C28.4013 11.0416 28.4309 11.1006 28.4659 11.1565C28.501 11.2125 28.5408 11.2642 28.5854 11.3118C28.63 11.3594 28.6785 11.4019 28.7309 11.4392C28.7834 11.4766 28.8387 11.5082 28.897 11.5339C28.9553 11.5597 29.0153 11.5791 29.0772 11.5922C29.1391 11.6053 29.2015 11.6119 29.2646 11.6119ZM30.9911 18.4425C30.9492 18.365 30.905 18.2891 30.8583 18.2147C30.7884 18.1031 30.7136 17.9954 30.6337 17.8917C30.5539 17.7879 30.4695 17.6886 30.3805 17.5937C30.2915 17.4988 30.1984 17.4087 30.1011 17.3236C30.0039 17.2384 29.9029 17.1586 29.7983 17.084C29.6937 17.0094 29.5859 16.9405 29.4749 16.8772C29.3639 16.8139 29.2503 16.7566 29.134 16.7053C29.0178 16.6539 28.8994 16.6087 28.779 16.5698C28.6586 16.5308 28.5367 16.4982 28.4133 16.472C28.2898 16.4459 28.1655 16.4262 28.0403 16.413C27.9151 16.3999 27.7895 16.3933 27.6637 16.3933C27.5379 16.3933 27.4123 16.3999 27.2871 16.413C27.1619 16.4262 27.0375 16.4459 26.9141 16.472C26.7907 16.4982 26.6688 16.5308 26.5484 16.5698C26.4279 16.6087 26.3096 16.6539 26.1933 16.7053L26.1888 16.7073L26.1887 16.7073C26.0741 16.7582 25.962 16.8148 25.8525 16.8772C25.7415 16.9405 25.6337 17.0094 25.5291 17.084C25.4245 17.1586 25.3235 17.2384 25.2262 17.3236C25.129 17.4087 25.0358 17.4988 24.9469 17.5937C24.8579 17.6886 24.7735 17.7879 24.6936 17.8917C24.6138 17.9954 24.5389 18.1031 24.469 18.2147C24.4224 18.2891 24.3782 18.365 24.3363 18.4425L22.9146 18.4425C22.9199 18.4284 22.9253 18.4144 22.9307 18.4005C22.9628 18.3179 22.9968 18.2361 23.0326 18.1553C23.0685 18.0744 23.1062 17.9946 23.1457 17.9157C23.1852 17.8368 23.2265 17.759 23.2696 17.6823C23.3127 17.6056 23.3576 17.5301 23.4041 17.4557C23.4507 17.3814 23.499 17.3083 23.5489 17.2365C23.5989 17.1646 23.6504 17.0942 23.7036 17.025C23.7568 16.9559 23.8116 16.8882 23.8679 16.8219C23.9242 16.7557 23.982 16.6909 24.0412 16.6277C24.1005 16.5644 24.1612 16.5028 24.2233 16.4427C24.2855 16.3827 24.3489 16.3243 24.4137 16.2676C24.4786 16.2108 24.5446 16.1558 24.612 16.1025C24.6793 16.0493 24.7478 15.9978 24.8175 15.9481C24.8873 15.8984 24.9581 15.8506 25.03 15.8046C25.1019 15.7586 25.1748 15.7146 25.2488 15.6724C25.3227 15.6303 25.3976 15.5901 25.4734 15.5518C25.5492 15.5136 25.6258 15.4774 25.7032 15.4431C25.7807 15.4089 25.8589 15.3767 25.9378 15.3466C26.0168 15.3165 26.0964 15.2884 26.1766 15.2625C26.2568 15.2365 26.3376 15.2127 26.4189 15.1909C26.5002 15.1692 26.582 15.1496 26.6643 15.1322C26.7465 15.1147 26.8291 15.0995 26.912 15.0863C26.9949 15.0732 27.0781 15.0623 27.1616 15.0535C27.245 15.0447 27.3286 15.0382 27.4123 15.0338C27.4961 15.0294 27.5798 15.0272 27.6637 15.0272C27.7475 15.0272 27.8313 15.0294 27.9151 15.0338C27.9415 15.0352 27.9678 15.0368 27.9942 15.0386L27.9953 15.0386C28.0522 15.0426 28.109 15.0475 28.1658 15.0535C28.1817 15.0552 28.1975 15.0569 28.2133 15.0587L28.2168 15.0591C28.2831 15.0668 28.3493 15.0759 28.4154 15.0863C28.4983 15.0995 28.5809 15.1147 28.6631 15.1322C28.7453 15.1496 28.8271 15.1692 28.9085 15.1909C28.9898 15.2127 29.0706 15.2365 29.1508 15.2625C29.231 15.2884 29.3106 15.3165 29.3895 15.3466C29.4685 15.3767 29.5467 15.4089 29.6241 15.4431C29.7016 15.4774 29.7782 15.5136 29.854 15.5518C29.9298 15.5901 30.0047 15.6303 30.0786 15.6724C30.1526 15.7146 30.2255 15.7586 30.2974 15.8046C30.3693 15.8506 30.4401 15.8984 30.5098 15.9481C30.5795 15.9978 30.6481 16.0493 30.7154 16.1025C30.7827 16.1558 30.8488 16.2108 30.9136 16.2676C30.9784 16.3243 31.0419 16.3827 31.104 16.4427C31.1662 16.5028 31.2269 16.5644 31.2861 16.6277C31.3454 16.6909 31.4032 16.7557 31.4595 16.8219C31.5158 16.8882 31.5706 16.9559 31.6238 17.025C31.6769 17.0942 31.7285 17.1646 31.7785 17.2365C31.8284 17.3083 31.8767 17.3814 31.9232 17.4557C31.9698 17.5301 32.0147 17.6056 32.0578 17.6823C32.1009 17.759 32.1422 17.8368 32.1817 17.9157C32.2212 17.9946 32.2589 18.0744 32.2947 18.1553C32.3306 18.2361 32.3646 18.3179 32.3966 18.4005C32.4021 18.4144 32.4074 18.4284 32.4128 18.4425L30.9911 18.4425Z" fill="rgb(255,255,255)" fill-rule="evenodd" />
		</g>
	</g>
</svg>
