<svg width="20" height="20" viewBox="0 0 20 20" fill="none" xmlns="http://www.w3.org/2000/svg">
    <path d="M10 20C15.5228 20 20 15.5228 20 10C20 4.47715 15.5228 0 10 0C4.47715 0 0 4.47715 0 10C0 15.5228 4.47715 20 10 20Z" fill="black"/>
    <path fill-rule="evenodd" clip-rule="evenodd" d="M11.6667 13.8889V11.6667H13.8889L13.8894 13.8889H11.6667ZM13.8889 10.5556H11.6667C11.0539 10.5556 10.5556 11.0539 10.5556 11.6667V13.8889C10.5556 14.5017 11.0539 15 11.6667 15H13.8889C14.5017 15 15 14.5017 15 13.8889V11.6667C15 11.0539 14.5017 10.5556 13.8889 10.5556ZM6.11111 13.8889V11.6667H8.33333L8.33389 13.8889H6.11111ZM8.33333 10.5556H6.11111C5.49833 10.5556 5 11.0539 5 11.6667V13.8889C5 14.5017 5.49833 15 6.11111 15H8.33333C8.94611 15 9.44444 14.5017 9.44444 13.8889V11.6667C9.44444 11.0539 8.94611 10.5556 8.33333 10.5556ZM11.6667 8.33333V6.11111H13.8889L13.8894 8.33333H11.6667ZM13.8889 5H11.6667C11.0539 5 10.5556 5.49833 10.5556 6.11111V8.33333C10.5556 8.94611 11.0539 9.44444 11.6667 9.44444H13.8889C14.5017 9.44444 15 8.94611 15 8.33333V6.11111C15 5.49833 14.5017 5 13.8889 5ZM6.11111 8.33333V6.11111H8.33333L8.33389 8.33333H6.11111ZM8.33333 5H6.11111C5.49833 5 5 5.49833 5 6.11111V8.33333C5 8.94611 5.49833 9.44444 6.11111 9.44444H8.33333C8.94611 9.44444 9.44444 8.94611 9.44444 8.33333V6.11111C9.44444 5.49833 8.94611 5 8.33333 5Z" fill="white"/>
</svg>
