<svg width="32" height="32" viewBox="0 0 32 32" fill="none" xmlns="http://www.w3.org/2000/svg">
  <path d="M16 32C24.8366 32 32 24.8366 32 16C32 7.16344 24.8366 0 16 0C7.16344 0 0 7.16344 0 16C0 24.8366 7.16344 32 16 32Z" fill="#F7931A"/>
  <path d="M23.3198 14.1193C23.6398 12.102 22.0122 11.0173 19.7884 10.2935L20.51 7.56015L18.7489 7.14629L18.0457 9.80748C17.583 9.69776 17.1081 9.59574 16.6342 9.49372L17.3425 6.81521L15.5814 6.40039L14.8599 9.1328C14.4767 9.05003 14.0996 8.96918 13.7347 8.88256L13.7368 8.8739L11.3071 8.30124L10.8383 10.0779C10.8383 10.0779 12.1459 10.3609 12.1184 10.3782C12.8318 10.5466 12.9602 10.9923 12.9388 11.3464L12.1173 14.46C12.1663 14.4715 12.2295 14.4889 12.3008 14.5148L12.1143 14.4715L10.9627 18.8334C10.875 19.0374 10.6539 19.3444 10.1545 19.228C10.1728 19.252 8.87443 18.9267 8.87443 18.9267L8 20.8305L10.2931 21.3704C10.7191 21.4715 11.1369 21.5773 11.5476 21.6765L10.819 24.4406L12.579 24.8545L13.3006 22.1211C13.7816 22.2434 14.2484 22.3569 14.705 22.4647L13.9854 25.1865L15.7465 25.6004L16.4752 22.842C19.4796 23.379 21.7381 23.1625 22.6889 20.5966C23.4553 18.5312 22.6512 17.3387 21.0705 16.562C22.2222 16.3117 23.0884 15.5966 23.3198 14.1193ZM19.2942 19.4493C18.751 21.5157 15.0667 20.3983 13.8723 20.1183L14.8405 16.4561C16.0349 16.7381 19.8639 17.2954 19.2942 19.4493ZM19.8394 14.0894C19.3431 15.9691 16.2775 15.0134 15.2838 14.7795L16.1603 11.4591C17.154 11.6929 20.3571 12.1289 19.8394 14.0894Z" fill="white"/>
</svg>
