<svg viewBox="0 0 40 41" fill="none" xmlns="http://www.w3.org/2000/svg">
<path d="M20 40.8789C31.0457 40.8789 40 31.9246 40 20.8789C40 9.83321 31.0457 0.878906 20 0.878906C8.9543 0.878906 0 9.83321 0 20.8789C0 31.9246 8.9543 40.8789 20 40.8789Z" fill="#627EEA"/>
<path d="M19.5 8.87891V17.7508L26.9986 21.1015L19.5 8.87891Z" fill="white" fill-opacity="0.602"/>
<path d="M19.4996 8.87891L12 21.1015L19.4996 17.7508V8.87891Z" fill="white"/>
<path d="M19.5 26.851V32.8792L27.0036 22.498L19.5 26.851Z" fill="white" fill-opacity="0.602"/>
<path d="M19.4996 32.8792V26.85L12 22.498L19.4996 32.8792Z" fill="white"/>
<path d="M19.5 25.4546L26.9986 21.1007L19.5 17.752V25.4546Z" fill="white" fill-opacity="0.2"/>
<path d="M12 21.1007L19.4996 25.4546V17.752L12 21.1007Z" fill="white" fill-opacity="0.602"/>
</svg>
