<svg width="20" height="20" viewBox="0 0 20 20" fill="none" xmlns="http://www.w3.org/2000/svg">
<path d="M10 20C15.5228 20 20 15.5228 20 10C20 4.47715 15.5228 0 10 0C4.47715 0 0 4.47715 0 10C0 15.5228 4.47715 20 10 20Z" fill="black"/>
<path d="M13.4829 8.02973C14.3208 8.02973 15 7.3515 15 6.51486C15 5.67823 14.3208 5 13.4829 5C12.645 5 11.9657 5.67823 11.9657 6.51486C11.9657 7.3515 12.645 8.02973 13.4829 8.02973Z" fill="white"/>
<path d="M6 6.54054H7.69714V12.8054H13.4571V14.5H6V6.54054Z" fill="white"/>
</svg>
