<svg width="32" height="32" viewBox="0 0 32 32" fill="none" xmlns="http://www.w3.org/2000/svg">
<path d="M16 32C24.8366 32 32 24.8366 32 16C32 7.16344 24.8366 0 16 0C7.16344 0 0 7.16344 0 16C0 24.8366 7.16344 32 16 32Z" fill="black"/>
<path d="M17.6486 5.48456L18.4709 0.190379C17.6567 0.0648094 16.8263 0 15.9959 0H15.9838V10.799H15.9959C16.4496 10.799 16.9033 10.8557 17.3367 10.9732L18.7342 5.71139C18.3777 5.61418 18.0172 5.54126 17.6486 5.48456Z" fill="white"/>
<path d="M13.3914 11.4957L10.7058 6.86578C10.3899 7.05211 10.082 7.25059 9.78632 7.46527L6.57822 3.07034C7.25063 2.57616 7.97164 2.13464 8.71291 1.75388L11.1514 6.52148C11.6456 6.27034 12.16 6.05565 12.6906 5.88148L11.0299 0.785779C11.8238 0.526539 12.6461 0.328058 13.4724 0.198437L14.3271 5.57768C13.9625 5.63439 13.602 5.7154 13.2496 5.80856L14.639 10.9772C14.2056 11.0946 13.7843 11.2688 13.3914 11.4957Z" fill="white"/>
<path d="M1.73368 8.74941L6.58634 11.2203C6.3352 11.7104 6.12457 12.2249 5.95444 12.7514L0.773682 11.0745C1.03292 10.2765 1.35292 9.49473 1.73368 8.74941Z" fill="white"/>
<path d="M25.1301 10.7018L20.5002 13.3914C20.7271 13.7843 20.9053 14.2056 21.0228 14.639L26.1914 13.2456C26.2886 13.598 26.3656 13.9585 26.4223 14.319L31.8015 13.4643C31.6719 12.638 31.4734 11.8157 31.2101 11.0218L26.1185 12.6906C25.9443 12.16 25.7296 11.6456 25.4785 11.1514L30.2461 8.7048C29.8653 7.96353 29.4238 7.24252 28.9296 6.57012L24.5347 9.78227C24.7453 10.078 24.9438 10.3858 25.1301 10.7018Z" fill="white"/>
<path d="M20.9175 0.769531C21.7154 1.02877 22.4972 1.34877 23.2425 1.72953L20.7757 6.58219C20.2815 6.33105 19.7671 6.12042 19.2446 5.95029L20.9175 0.769531Z" fill="white"/>
<path d="M21.3063 6.77257L18.5884 11.4916C18.9813 11.7184 19.3458 11.9979 19.6658 12.3179L27.2891 4.66624C26.6977 4.07485 26.0537 3.52802 25.3813 3.03789L22.238 7.37612C21.9382 7.15738 21.6304 6.95485 21.3063 6.77257Z" fill="white"/>
<path d="M11.4876 13.4077L6.77265 10.6857C6.95898 10.3657 7.16151 10.0538 7.37619 9.75402L3.04202 6.60668C3.53214 5.93427 4.07898 5.29022 4.67037 4.69883L12.3139 12.3262C11.9939 12.6502 11.7144 13.0148 11.4876 13.4077Z" fill="white"/>
<path d="M5.71139 13.2578L10.9732 14.6593C10.8597 15.0927 10.799 15.5424 10.799 16.0001H0C0 15.1697 0.0648094 14.3312 0.190379 13.5171L5.48456 14.3434C5.54126 13.9788 5.61823 13.6143 5.71139 13.2578Z" fill="white"/>
<path d="M25.4137 20.7798L30.2663 23.2507C30.6471 22.5053 30.9671 21.7236 31.2263 20.9256L26.0456 19.2486C25.8754 19.7752 25.6648 20.2896 25.4137 20.7798Z" fill="white"/>
<path d="M18.6046 20.5002L21.2901 25.1301C21.6101 24.9478 21.918 24.7493 22.2137 24.5265L25.4218 28.9255C24.7494 29.4197 24.0283 29.8612 23.2871 30.242L20.8446 25.4744C20.3504 25.7255 19.8359 25.9402 19.3053 26.1144L20.9661 31.2101C20.1721 31.4693 19.3499 31.6678 18.5235 31.7974L17.6689 26.4182C18.0334 26.3615 18.3939 26.2804 18.7463 26.1873L17.357 21.0187C17.7904 20.9012 18.2116 20.727 18.6046 20.5002Z" fill="white"/>
<path d="M6.86988 21.2983L11.4998 18.6046C11.2729 18.2117 11.0947 17.7904 10.9772 17.357L5.80861 18.7504C5.7114 18.398 5.63444 18.0375 5.57773 17.677L0.198486 18.5317C0.328107 19.358 0.526588 20.1803 0.789879 20.9742L5.88153 19.3094C6.0557 19.836 6.27039 20.3545 6.52152 20.8487L1.75393 23.2953C2.13469 24.0365 2.57621 24.7575 3.07039 25.4299L7.46532 22.2178C7.25469 21.9221 7.05621 21.6142 6.86988 21.2983Z" fill="white"/>
<path d="M11.0825 31.2304C10.2846 30.9712 9.50279 30.6512 8.75747 30.2704L11.2243 25.4178C11.7185 25.6689 12.2329 25.8795 12.7554 26.0497L11.0825 31.2304Z" fill="white"/>
<path d="M10.6896 25.2273L13.4076 20.5084C13.0147 20.2815 12.6501 20.002 12.3301 19.682L4.70684 27.3337C5.29823 27.9251 5.94228 28.4719 6.61468 28.962L9.75797 24.6238C10.0577 24.8385 10.3696 25.041 10.6896 25.2273Z" fill="white"/>
<path d="M20.5084 18.5924L25.2233 21.3144C25.041 21.6344 24.8385 21.9423 24.6238 22.2461L28.958 25.3934C28.4679 26.0658 27.921 26.7098 27.3296 27.3012L19.682 19.6739C20.002 19.3499 20.2815 18.9853 20.5084 18.5924Z" fill="white"/>
<path d="M14.6592 21.0268L13.2618 26.2885C13.6182 26.3817 13.9828 26.4587 14.3473 26.5154L13.5251 31.8095C14.3392 31.9351 15.1696 31.9999 16 31.9999H16.0121V21.2009H16C15.5463 21.2009 15.0927 21.1402 14.6592 21.0268Z" fill="white"/>
<path d="M21.0268 17.3408C21.1443 16.9073 21.201 16.4577 21.201 16H32C32 16.8304 31.9352 17.6689 31.8096 18.483L26.5154 17.6567C26.4587 18.0213 26.3818 18.3858 26.2886 18.7423L21.0268 17.3408Z" fill="white"/>
</svg>
