<svg width="44" height="44" viewBox="0 0 44 44" fill="none" xmlns="http://www.w3.org/2000/svg">
<path d="M22 44C34.1503 44 44 34.1503 44 22C44 9.84974 34.1503 0 22 0C9.84974 0 0 9.84974 0 22C0 34.1503 9.84974 44 22 44Z" fill="black"/>
<g clip-path="url(#clip0_3110_30682)">
<path d="M35.0701 28.3454L30.8936 32.7004C30.8028 32.795 30.6929 32.8704 30.5709 32.9219C30.4488 32.9735 30.3171 33.0001 30.1841 33H10.3853C10.2908 33 10.1984 32.9732 10.1194 32.9228C10.0404 32.8724 9.97823 32.8007 9.94057 32.7165C9.90292 32.6322 9.89139 32.5392 9.90741 32.4486C9.92343 32.3581 9.9663 32.2741 10.0308 32.2069L14.2104 27.852C14.301 27.7576 14.4105 27.6824 14.5321 27.6308C14.6538 27.5793 14.7851 27.5526 14.9178 27.5524H34.7155C34.81 27.5524 34.9024 27.5792 34.9815 27.6296C35.0604 27.68 35.1225 27.7517 35.1603 27.8359C35.1979 27.9201 35.2094 28.0132 35.1934 28.1038C35.1773 28.1943 35.1345 28.2783 35.0701 28.3454ZM30.8936 19.5758C30.8028 19.4812 30.6929 19.4058 30.5709 19.3542C30.4488 19.3027 30.3171 19.2761 30.1841 19.2762H10.3853C10.2908 19.2762 10.1984 19.303 10.1194 19.3534C10.0404 19.4038 9.97823 19.4755 9.94057 19.5597C9.90292 19.644 9.89139 19.737 9.90741 19.8276C9.92343 19.9181 9.9663 20.0021 10.0308 20.0693L14.2104 24.4242C14.301 24.5186 14.4105 24.5938 14.5321 24.6454C14.6538 24.6969 14.7851 24.7236 14.9178 24.7238H34.7155C34.81 24.7238 34.9024 24.697 34.9815 24.6466C35.0604 24.5962 35.1225 24.5245 35.1603 24.4403C35.1979 24.356 35.2094 24.263 35.1934 24.1724C35.1773 24.0819 35.1345 23.9979 35.0701 23.9307L30.8936 19.5758ZM10.3853 16.4476H30.1841C30.3171 16.4477 30.4488 16.4211 30.5709 16.3696C30.6929 16.318 30.8028 16.2426 30.8936 16.148L35.0701 11.793C35.1345 11.7259 35.1773 11.6419 35.1934 11.5514C35.2094 11.4609 35.1979 11.3678 35.1603 11.2835C35.1225 11.1993 35.0604 11.1276 34.9815 11.0772C34.9024 11.0268 34.81 11 34.7155 11H14.9178C14.7851 11.0002 14.6538 11.0269 14.5321 11.0785C14.4105 11.13 14.301 11.2053 14.2104 11.2996L10.0318 15.6546C9.96744 15.7216 9.92459 15.8056 9.90854 15.896C9.89248 15.9864 9.90391 16.0794 9.94144 16.1636C9.97896 16.2478 10.0409 16.3195 10.1198 16.37C10.1986 16.4204 10.2909 16.4474 10.3853 16.4476Z" fill="url(#paint0_linear_3110_30682)"/>
</g>
<defs>
<linearGradient id="paint0_linear_3110_30682" x1="12.036" y1="33.5243" x2="32.1471" y2="10.2066" gradientUnits="userSpaceOnUse">
<stop offset="0.08" stop-color="#9945FF"/>
<stop offset="0.3" stop-color="#8752F3"/>
<stop offset="0.5" stop-color="#5497D5"/>
<stop offset="0.6" stop-color="#43B4CA"/>
<stop offset="0.72" stop-color="#28E0B9"/>
<stop offset="0.97" stop-color="#19FB9B"/>
</linearGradient>
<clipPath id="clip0_3110_30682">
<rect width="25.3" height="22" fill="white" transform="translate(9.90039 11)"/>
</clipPath>
</defs>
</svg>
